<svg xmlns="http://www.w3.org/2000/svg" width="291" height="217" viewBox="0 0 291 217">
  <g id="ic_assessment" transform="translate(3.94 -2.935)">
    <path id="Path_1729" data-name="Path 1729" d="M42.625,14.321C25.583,22.307,16.831,33.064,9.914,47.083s-21.4,63.9-6.208,107.491,31.228,50.371,49.049,60.5,75.14,7.814,100.742-4.908c19.068-9.518,35.64-23.709,55.766-30.451,17.664-5.914,37.495-5.932,53.408-15.519,19.831-12.07,28.914-37.831,24.061-60.436S264.8,62.377,244.106,51.824c-11.736-5.966-24.425-9.415-36.247-14.984S185.237,23.649,173.71,17.459C132.522-4.7,59.666,6.335,42.625,14.321Z" transform="translate(-0.957 -1.467)" fill="#354c6b" style="mix-blend-mode: normal;isolation: isolate"/>
    <path id="Path_1730" data-name="Path 1730" d="M109.131,45.511l2.1.883a3.152,3.152,0,0,1,1.846,1.373,3.155,3.155,0,0,1-.11,2.161c-.284.931-.615,1.862-.978,2.777-.473,1.215-1.025,2.414-1.388,3.66a26.525,26.525,0,0,0-.379,9.608c0,1.041-1.325,1.578-2.351,1.72a11.393,11.393,0,0,1-5.822-.3,1.261,1.261,0,0,1-.473-.252,1.074,1.074,0,0,1-.221-.773c-.11-1.72-.11-3.5-.347-5.08a13.932,13.932,0,0,0-.521-2.54,24.488,24.488,0,0,1-.41-2.461c-.142-.663-.347-1.309-.458-1.972a3.749,3.749,0,0,1,.142-2c.284-.694.678-1.341,1.025-2a20.06,20.06,0,0,0,.978-2.225,6.186,6.186,0,0,1,.678-1.578,3.993,3.993,0,0,1,3.076-1.42A8.464,8.464,0,0,1,109.131,45.511Z" transform="translate(73.174 33.621)" fill="#ffbbab"/>
    <path id="Path_1731" data-name="Path 1731" d="M99.528,44.387a9.743,9.743,0,0,1-1.436-2.477,13.661,13.661,0,0,1-.726-3.534,2.967,2.967,0,0,1,.095-1.294c.205-.568.71-.994.868-1.578a.261.261,0,0,0,0-.189.275.275,0,0,0-.205-.126l-.663-.174a2.256,2.256,0,0,0-.252-1.578.978.978,0,0,0-.915-.568c-.41,0-.615.521-.962.757s-.726.268-1.025.5a1.894,1.894,0,0,0-.5,1.262,10.032,10.032,0,0,0,.5,3.345,30.524,30.524,0,0,0,.915,3.723,30.217,30.217,0,0,0,5.711,10.271c.978,1.152,4.733,5.7,6.216,4.528,2.1-1.578.726-4.181-.726-5.427A41.6,41.6,0,0,1,99.528,44.387Z" transform="translate(69.84 26.661)" fill="#ffbbab"/>
    <path id="Path_1732" data-name="Path 1732" d="M104.942,45.231c-.71,1.089-1.2,1.786-1.847,2.922a1.575,1.575,0,0,0-.284,1.183,1.17,1.17,0,0,0,.6.6,3.583,3.583,0,0,0,3.439-.284,11.829,11.829,0,0,0,2.6-2.508c.4-.533.825-.262,1.388-.616.584-.349,1.373-1.074,1.956-.725a1.156,1.156,0,0,1,.268,1.7.862.862,0,0,0-1.1-.694,2.278,2.278,0,0,0-1.12.994,16.842,16.842,0,0,0-1.041,1.688,4.912,4.912,0,0,0-.552,1.373,4.482,4.482,0,0,0,1.183,3.282,4.2,4.2,0,0,1,.694,1.167,4.091,4.091,0,0,1-.158,2.035,27.617,27.617,0,0,0-.426,8.456,1.766,1.766,0,0,1-.331,1.578,1.575,1.575,0,0,1-1.073.331c-1.814,0-3.613-.41-5.443-.363a30.171,30.171,0,0,1-3.376.174.488.488,0,0,1-.544-.426.478.478,0,0,1,.024-.221,35.166,35.166,0,0,0,.237-9.466,21.785,21.785,0,0,1-.694-4.37,2.142,2.142,0,0,1,.174-.947,3.381,3.381,0,0,1,.552-.789,12.5,12.5,0,0,0,2.493-4.907" transform="translate(73.056 33.566)" fill="#f3f8ff"/>
    <path id="Path_1733" data-name="Path 1733" d="M106.829,56.282a1.7,1.7,0,0,1-.615,1.388,2.924,2.924,0,0,0-.379.205c-.237.221-.205.6-.252.915a4.824,4.824,0,0,1-.915,1.578,1.4,1.4,0,0,0,0,1.72c.284.284.757.331.994.663s0,1.4.489,1.735a.727.727,0,0,0,.9-.284,2.063,2.063,0,0,0,.268-.978q.551-5.317,1.01-10.681a1.151,1.151,0,0,0-.3-1.057c-.237-.331-.552-.962-.9-1.136-.394.584-.095,1.846-.095,2.524C106.971,54.026,106.924,55.162,106.829,56.282Z" transform="translate(75.968 36.668)" fill="#020202" opacity="0.1" style="mix-blend-mode: normal;isolation: isolate"/>
    <path id="Path_1734" data-name="Path 1734" d="M100.594,42.224a2,2,0,0,0-.394.915,1.794,1.794,0,0,0,.252.663,4.443,4.443,0,0,1,.394,1.578,2.135,2.135,0,0,0,.3,1.167,1.8,1.8,0,0,0,1.388.489H103.7a.782.782,0,0,1,.426,0,.688.688,0,0,1,.3.3,8.377,8.377,0,0,1,.647,2.682.983.983,0,0,0,.205.426.824.824,0,0,0,.316.268,3.487,3.487,0,0,0,2.556,0,.975.975,0,0,0,.521-.379,1.074,1.074,0,0,0,0-.71,12.93,12.93,0,0,0-.41-1.877,6.808,6.808,0,0,1-.5-2.54,14.07,14.07,0,0,1,.552-2.24,3.771,3.771,0,0,0-2.225-3.881,4.477,4.477,0,0,0-3.881.284c-.426.221-.773.331-.978.789A13.99,13.99,0,0,1,100.594,42.224Z" transform="translate(73.55 30.049)" fill="#ffbbab"/>
    <path id="Path_1735" data-name="Path 1735" d="M100.56,39.106a4.067,4.067,0,0,1-.11-.883c0-1.01.584-2.161,1.578-2.193.71,0,1.341.536,2.067.536a6.034,6.034,0,0,0,.883-.189,5.16,5.16,0,0,1,2.3,0,6.392,6.392,0,0,1,4.07,2.556,4.323,4.323,0,0,1,.158,4.733c-.521.789-1.325,1.357-1.877,2.13a15.847,15.847,0,0,1-.868,1.4c-.284.331-.947.868-1.42.631s-.5-1.01-.836-1.341a11.49,11.49,0,0,0,.931-.82,1.1,1.1,0,0,0,.252-1.136.551.551,0,0,0-.994,0,3.47,3.47,0,0,0-1.1-2.871,1.422,1.422,0,0,0-.41-.347,1.443,1.443,0,0,0-.521,0h-1.451c-.836,0-1.246.237-1.846-.473A3.809,3.809,0,0,1,100.56,39.106Z" transform="translate(73.699 28.482)" fill="#f3f8ff"/>
    <path id="Path_1736" data-name="Path 1736" d="M104.618,44.16a.511.511,0,0,1,.363.11.6.6,0,0,1,.126.379,11.652,11.652,0,0,1,0,2.1,1.667,1.667,0,0,1-.142.536.555.555,0,0,1-.458.284c-.205,0-.379-.174-.6-.221a.79.79,0,0,0-.663.158,2.906,2.906,0,0,0-.473.521,10.488,10.488,0,0,1-1.152,1.231,9.822,9.822,0,0,1,1.262-2.7,1.281,1.281,0,0,1,.568-.552A.58.58,0,0,0,104,45.8c.126-.205,0-.6-.142-.868s-.5-.647-.284-.836S104.428,44.144,104.618,44.16Z" transform="translate(74.368 33.062)" fill="#e0a194"/>
    <path id="Path_1737" data-name="Path 1737" d="M117.025,45.546a17.765,17.765,0,0,0,1.735-1.877,10.8,10.8,0,0,0,2.366-6.705,1.976,1.976,0,0,1,0-.8.68.68,0,0,1,.552-.5,1.278,1.278,0,0,0,.347,0c.174,0,.252-.237.394-.363a.742.742,0,0,1,.789,0,2.17,2.17,0,0,1,.615.584c.252.347.5.71.726,1.073a1.869,1.869,0,0,1,.347.947,2.144,2.144,0,0,1-.773,1.4c-.489,0-.868,1.309-.994,1.578-.252.71-.536,1.42-.852,2.1a29.965,29.965,0,0,1-8.141,10.6c-1.167.962-5.585,4.733-6.91,3.392-1.814-1.925,0-4.244,1.578-5.238A41.031,41.031,0,0,0,117.025,45.546Z" transform="translate(77.204 27.983)" fill="#ffbbab"/>
    <path id="Path_1738" data-name="Path 1738" d="M101.2,42.011a5.313,5.313,0,0,1,.868,0,.124.124,0,0,1,.11,0h0a2.049,2.049,0,0,1,0,1.373,1.061,1.061,0,0,1-.3.442.459.459,0,0,1-.5,0,.805.805,0,0,1-.252-.379,2.674,2.674,0,0,1-.268-1.436h0a1.231,1.231,0,0,1,.536,0" transform="translate(73.915 31.898)" fill="#f3f8ff"/>
    <path id="Path_1740" data-name="Path 1740" d="M129.288,41.951a5.671,5.671,0,0,1-.71,2.43,24.864,24.864,0,0,1-12.164,11.943,1.949,1.949,0,0,0-.8.5,1.99,1.99,0,0,0-.331.741c-1.215,4.733-.947,9.561-1.814,14.294A1.865,1.865,0,0,1,112.975,73a1.943,1.943,0,0,1-1.436.331h-1.025a70.727,70.727,0,0,1-7.273-.773,1.692,1.692,0,0,1-1.12-.5,1.721,1.721,0,0,1-.158-1.231,64.721,64.721,0,0,0-.394-9.734,27.889,27.889,0,0,1,0-4.733,4.934,4.934,0,0,0,0-2.4,2.231,2.231,0,0,0-.379-.631,24.506,24.506,0,0,0-2.177-1.846,9.906,9.906,0,0,1-2.177-4.149c-.726-2.177-1.483-4.339-2.177-6.516-.521-1.578.3-2.319,1.483-2.919.426-.221.9-.426,1.388-.647a23.64,23.64,0,0,0,1.8,4.875,43.785,43.785,0,0,0,3.6,3.96c1.057.978,2.13,1.941,3.155,2.934a1.824,1.824,0,0,0,.71.458c.316,0,1.4-.284,1.357.3a.193.193,0,0,1,0,.095c0,.205-.189.363-.221.568a.632.632,0,0,0,.363.6,1.281,1.281,0,0,0,.726.126,2.748,2.748,0,0,0,.8-.174c.426-.174.773-.473,1.183-.678a3.3,3.3,0,0,1,1.956-.11,7.855,7.855,0,0,0,2.114-.126,12.248,12.248,0,0,0,5.411-2.824,61.661,61.661,0,0,0,5.964-6.689,2.174,2.174,0,0,1,.773-.647,1.422,1.422,0,0,1,1.483.379A2.112,2.112,0,0,1,129.288,41.951Z" transform="translate(70.272 29.149)" fill="#266fa8"/>
    <g id="lYf0vm" transform="translate(60.078 43.838)">
      <path id="Path_1744" data-name="Path 1744" d="M86.045,111.22a138.05,138.05,0,0,1-20.667,12.337l-1.025.126h-.284a1.908,1.908,0,0,1-1.822-1.991,1.879,1.879,0,0,1,.039-.312,14.865,14.865,0,0,1,.3-1.7q1.373-6.437,2.761-12.858a.726.726,0,0,0-.316-.852L48.513,93.14a.663.663,0,0,0-.8-.095c-.978.5-1.988.962-3,1.42-3.55,1.672-6.973,3.25-10.476,4.828a1.828,1.828,0,0,1-2.458-.808A1.629,1.629,0,0,1,31.7,98.3l-.205-.473v-.252a37.693,37.693,0,0,1,.663-3.771,165.337,165.337,0,0,1,6.484-19.263,15.376,15.376,0,0,1,6.61-8.078,20.214,20.214,0,0,1,7.573-2.477,54.671,54.671,0,0,1,6.216-.536h1.972a1.042,1.042,0,0,0,.694-.41c1.578-2.3,3.061-4.733,4.733-6.942a113.6,113.6,0,0,1,7.51-9.576,118.321,118.321,0,0,1,8.772-8.078,70.7,70.7,0,0,1,9.939-7.352,69.455,69.455,0,0,1,16.849-6.926c1.136-.347,2.288-.647,3.439-.962l2.366-.252h.426a2.919,2.919,0,0,1,2.43,1.988.892.892,0,0,1,0,.205,12.358,12.358,0,0,1,.221,1.578,40.686,40.686,0,0,1-.158,8.314,58.545,58.545,0,0,1-2.919,14.641,102.362,102.362,0,0,1-5.68,12.842,65.609,65.609,0,0,1-6.09,10.1,170.84,170.84,0,0,1-11.9,13.962.885.885,0,0,0-.237.962c.284,1.231.552,2.461.773,3.692a28.628,28.628,0,0,1,.631,7.778A15.5,15.5,0,0,1,86.045,111.22Z" transform="translate(-31.49 -22.95)" fill="#e3e3e3"/>
    </g>
    <path id="Path_1747" data-name="Path 1747" d="M58.627,45.141s3.155-.284,4.323.868a16.694,16.694,0,0,1,3.676,7.352c.284,1.041.631,2.051.868,3.155a10.409,10.409,0,0,0,.852,2.824,2.275,2.275,0,0,0,1.215,1.089,4.242,4.242,0,0,0,1.262.095,9.958,9.958,0,0,1,1.578.11.608.608,0,0,1,.284.095.56.56,0,0,1,.11.268,1.575,1.575,0,0,1-.615,1.436,6.591,6.591,0,0,1-4.291.489c-1.735-.584-2.288-3.8-2.919-5.3-.915-2.193-1.893-4.339-2.934-6.468a2,2,0,0,0-.5-.741,2.159,2.159,0,0,0-.868-.331l-3.8-.82C57.223,47.886,58.233,46.5,58.627,45.141Z" transform="translate(43.278 33.667)" fill="#ffbbab"/>
    <ellipse id="Ellipse_125" data-name="Ellipse 125" cx="9.324" cy="9.324" rx="9.324" ry="9.324" transform="translate(109.578 70.587)" fill="#0e9de9"/>
    <ellipse id="Ellipse_126" data-name="Ellipse 126" cx="6.2" cy="6.2" rx="6.2" ry="6.2" transform="translate(112.702 73.707)" fill="#f3f8ff" opacity="0.74"/>
    <path id="Path_1748" data-name="Path 1748" d="M62.828,49.142,48.045,78.423,34.02,84.734s-3.245,1.628-2.977-2.1,7.572-24.624,9.733-27.527S49.97,47.075,62.828,49.142Z" transform="translate(28.482 35.672)" fill="#0e9de9"/>
    <path id="Path_1749" data-name="Path 1749" d="M80.273,63.49,54.336,83.4,50.55,100.975a4.053,4.053,0,0,0,5.017,1.2c3.55-1.183,21.9-13.41,24.186-16.171S85.479,75.417,80.273,63.49Z" transform="translate(39.625 44.129)" fill="#0e9de9"/>
    <path id="Path_1750" data-name="Path 1750" d="M78.347,25.493l12.722,10.2s1.4-11.113-.03-12.566S78.347,25.493,78.347,25.493Z" transform="translate(55.831 20.826)" fill="#0e9de9"/>
    <path id="Path_1751" data-name="Path 1751" d="M43.237,66.7,40.76,71.1,57.4,83.881,61.238,80.6Z" transform="translate(33.93 46.012)" fill="#0e9de9"/>
    <path id="Path_1752" data-name="Path 1752" d="M50.738,69.48S2.682,120.659,34.2,144.166s67.95,8.015,67.95,8.015-52.063,11.5-59.651-17.7c-4.433-17.086,24.88-52.2,24.88-52.2Z" transform="translate(23.926 47.28)" fill="#f3f8ff" opacity="0.36" style="mix-blend-mode: normal;isolation: isolate"/>
    <path id="Path_1753" data-name="Path 1753" d="M115.233,121.776l11.706,7.115H97.216l11.706-7.573v-6.169l-1.956-2.319v-7.352C87.813,98.852,88.27,57.77,88.27,57.77s12.115.8,24.018.8,23.6-.8,23.6-.8v.489c.284,4.512,1.877,39.094-16.061,46.636a16.086,16.086,0,0,1-2.177.757v6.311L116.069,114l-.836,1.057Z" transform="translate(66.671 40.774)" fill="#e3e3e3"/>
    <path id="Path_1754" data-name="Path 1754" d="M95.157,91.428A4.406,4.406,0,0,1,92,90.244a4.023,4.023,0,0,1-.773-4.2,3.371,3.371,0,0,1,1.184.074,2.947,2.947,0,0,1,.993.557,1.911,1.911,0,0,0,.284,1.972,2.541,2.541,0,0,0,2.4.394,1.844,1.844,0,0,0,1.341-1.073c-.189-.663-3.155-3.155-5.459-5.254C85.66,77.2,77.771,70.334,80.343,64.813a5.886,5.886,0,0,1,4.1-3.5c5.049-1.167,11.738,4.26,12.022,4.5a2.116,2.116,0,0,1-.34,1.2,2.029,2.029,0,0,1-1.1.554c-1.688-1.388-6.8-4.733-10.081-4.039a3.676,3.676,0,0,0-2.556,2.256C80.532,69.751,88.31,76.519,93.437,81c4.575,3.991,6.579,5.822,6.184,7.51a3.974,3.974,0,0,1-2.934,2.729A6.333,6.333,0,0,1,95.157,91.428Z" transform="translate(61.741 42.81)" fill="#0398cd"/>
    <path id="Path_1755" data-name="Path 1755" d="M119.757,91.357a5.47,5.47,0,0,1-1.5-.205,3.979,3.979,0,0,1-2.95-2.729c-.394-1.688,1.578-3.518,6.184-7.51,5.143-4.481,12.921-11.249,11.044-15.224a3.451,3.451,0,0,0-2.4-2.082c-3.581-.789-9.466,3.155-11.375,4.733a1.82,1.82,0,0,1-1.021-.553,2.338,2.338,0,0,1-.336-1.214c.331-.252,7.888-6.311,13.315-5.159a5.633,5.633,0,0,1,3.96,3.329c2.587,5.522-5.3,12.385-11.627,17.906C120.7,84.7,117.785,87.24,117.6,88.06c.126.394.773.757,1.341.915a2.464,2.464,0,0,0,2.382-.394,1.911,1.911,0,0,0,.205-1.956,1.519,1.519,0,0,1,.98-.631,2.078,2.078,0,0,1,1.213,0,4.006,4.006,0,0,1-.789,4.2A4.385,4.385,0,0,1,119.757,91.357Z" transform="translate(82.311 42.88)" fill="#0398cd"/>
    <path id="Path_1762" data-name="Path 1762" d="M53.4,40.073l1.1-2.256a44.837,44.837,0,0,1,3.613-6.405c2.856-3.928,4.339-8.677,6.8-12.874a1.6,1.6,0,0,0,.284-.773c0-.615-.726-.962-1.341-1.12a5.033,5.033,0,0,0-2.508-.174,2.209,2.209,0,0,0-1.72,1.672,7.293,7.293,0,0,0,.11,1.436,6.513,6.513,0,0,1-1.325,3.707L52.2,33.352a8.054,8.054,0,0,0-1.578,3.865A3.012,3.012,0,0,0,53.4,40.073Z" transform="translate(39.653 17.36)" fill="#ffbbab"/>
    <path id="Path_1764" data-name="Path 1764" d="M49.11,33.558l3.25-4.118,3.865,3.534-3.644,3.282Z" transform="translate(38.772 24.718)" fill="#266fa8"/>
    <path id="Path_1766" data-name="Path 1766" d="M55.025,39.152l1.5.521c.521.174,1.578.868,2.067.394s0-1.909,0-2.43a26.257,26.257,0,0,0-1.341-5.474,3.471,3.471,0,0,1-.268-2.808,1.579,1.579,0,0,1,1.357-.8,1.673,1.673,0,0,1,1.373.757,6.952,6.952,0,0,1,.458,1.578,2.1,2.1,0,0,1,.189,1.136,3.875,3.875,0,0,0-.221.536,1.3,1.3,0,0,0,.11.6l1.972,5.191a6.32,6.32,0,0,1,.6,3.581,3.771,3.771,0,0,1-3.944,2.54,12.039,12.039,0,0,1-5.285-1.83c-.174-.095-.379-.268-.316-.458a.476.476,0,0,1,.205-.189,3.535,3.535,0,0,0,1.246-1.215A1.859,1.859,0,0,0,55.025,39.152Z" transform="translate(41.184 24.201)" fill="#ffbbab"/>
    <path id="Path_1767" data-name="Path 1767" d="M53.716,32.676a1.04,1.04,0,0,1-.3.568,1.786,1.786,0,0,1-.8.268,1.588,1.588,0,0,0-.8.331.444.444,0,0,0,0,.426l.426,1.814a.61.61,0,0,1,0,.41.694.694,0,0,1-.394.331c-.631.3-1.436.568-1.988.142a1.8,1.8,0,0,1-.552-.947,20.691,20.691,0,0,1-1.451-6.311,4.56,4.56,0,0,1,1.262-3.581,4.382,4.382,0,0,1,3.155-.962,1.577,1.577,0,0,1,1.262.742c.174.316,0,.647.11.994a9.476,9.476,0,0,0,.268,1.5,5.894,5.894,0,0,0,.237.694,1.988,1.988,0,0,1,.221.6,2.573,2.573,0,0,1-.252,1.12,6.3,6.3,0,0,0-.331,1.325A.754.754,0,0,1,53.716,32.676Z" transform="translate(38.027 22.259)" fill="#ffbbab"/>
    <path id="Path_1768" data-name="Path 1768" d="M61.464,26.315a2.474,2.474,0,0,1-1.4,1.862c-1.7.8-4.133.694-3.487,3.155a6.689,6.689,0,0,1-.536,5.916c-.394.584-.883,1.089-1.231,1.7-.568.947-.742,2.1-1.357,3.013-1.231,1.814-3.723,2.193-5.9,2.193a6,6,0,0,0-2.43.458c-1.783.883-2.587,3.5-4.559,3.6s-2.65-2.477-3.755-3.739a5.314,5.314,0,0,1-1.089-5.9c2.035-4.165,8.677-3.913,11.186-7.888,1.546-2.3,1.546-5.459,4.228-6.942a10.049,10.049,0,0,1,9.324.442A2.019,2.019,0,0,1,61.464,26.315Z" transform="translate(30.739 20.908)" fill="#f3f8ff"/>
    <path id="Path_1769" data-name="Path 1769" d="M57.931,50.6a1.945,1.945,0,0,0,.647.347,6.449,6.449,0,0,0,2.524.11,35.1,35.1,0,0,1,3.644,0,1.411,1.411,0,0,1,.836.221c.41.347.284.994.11,1.5a67.211,67.211,0,0,1-2.635,6.752,5.654,5.654,0,0,1-1.735,2.461,5.257,5.257,0,0,1-2.051.741,34.955,34.955,0,0,1-4.433.615,7.9,7.9,0,0,1-4.275-.568A6.7,6.7,0,0,1,47.6,58.934a8.718,8.718,0,0,1-.426-4.875c.394-1.735,1.183-2.24.694-4.1a43.243,43.243,0,0,1-1.357-7.052,17.356,17.356,0,0,1,.6-6.437,8.575,8.575,0,0,1,1.2-2.714,4.281,4.281,0,0,1,2.351-1.672,2.792,2.792,0,0,1,2.682.742c1.846,2,4.37,2.114,6.468,3.834a.683.683,0,0,1,.268.331.61.61,0,0,1,0,.442l-1.373,3.3a5.054,5.054,0,0,1-.521,1.01c-.189.268-.426.489-.6.757a5.009,5.009,0,0,0-.694,2.666C56.874,46.739,56.495,49.484,57.931,50.6Z" transform="translate(37.223 26.153)" fill="#266fa8"/>
    <path id="Path_1771" data-name="Path 1771" d="M65.092,27.812a10.862,10.862,0,0,1,0,5.49.776.776,0,0,1-.3.189.411.411,0,0,1-.268,0c-.71-.142-4.733-2.777-9.466-1.12a1.736,1.736,0,1,1-.568-3.36s6.2-2.067,7.541-5.743c.174-.552.521-.757.915-.694a1.578,1.578,0,0,1,.678.316h0A13.884,13.884,0,0,1,65.092,27.812Z" transform="translate(40.868 20.781)" fill="#0e9de9"/>
    <path id="Path_1773" data-name="Path 1773" d="M68.34,54.74a.916.916,0,0,0-.647,1.025c0,.252.3.5.189.742a.487.487,0,0,1-.363.237,6.314,6.314,0,0,1-4.481-.3.726.726,0,0,0,.189.71,2.47,2.47,0,0,0,.931.962,2.354,2.354,0,0,0,.82.158,10.457,10.457,0,0,0,6.106-2.067,1.786,1.786,0,0,0,.442-.394.535.535,0,0,0,0-.568c-.095-.237-.379-.316-.631-.363a12.853,12.853,0,0,0-1.325-.126A3.05,3.05,0,0,0,68.34,54.74Z" transform="translate(46.846 39.164)" fill="#266fa8"/>
  </g>
</svg>
