<svg xmlns="http://www.w3.org/2000/svg" width="110.561" height="98.197" viewBox="0 0 110.561 98.197">
  <g id="Group_831" data-name="Group 831" transform="translate(0 -19.698)">
    <path id="Path_2152" data-name="Path 2152" d="M383.443,706.349c0,4.579-24.75,8.292-55.28,8.292s-55.28-3.713-55.28-8.292c0-3.242,12.406-6.051,30.486-7.413,7.456-.564,15.88-.879,24.794-.879,3.664,0,7.245.054,10.708.155C364.276,698.961,383.443,702.319,383.443,706.349Z" transform="translate(-272.882 -596.746)" fill="#3f3d56"/>
    <ellipse id="Ellipse_216" data-name="Ellipse 216" cx="21.22" cy="2.586" rx="21.22" ry="2.586" transform="translate(26.927 106.126)" opacity="0.1"/>
    <ellipse id="Ellipse_217" data-name="Ellipse 217" cx="20.061" cy="21.399" rx="20.061" ry="21.399" transform="translate(27.997 67.786)" fill="#3f3d56"/>
    <rect id="Rectangle_2027" data-name="Rectangle 2027" width="12.483" height="11.413" transform="translate(41.906 101.846)" fill="#14c48d"/>
    <path id="Path_2153" data-name="Path 2153" d="M393.213,607.614l-.713,3.923,4.636.713,3.031-1.783-.178-2.853Z" transform="translate(-322.508 -503.004)" fill="#575a89"/>
    <path id="Path_2154" data-name="Path 2154" d="M531.835,303.08s-.357,4.1-1.248,4.28,1.962,7.311,1.962,7.311h4.28l3.388-.892-1.6-3.923s-2.14-2.853-.535-5.171S531.835,303.08,531.835,303.08Z" transform="translate(-484.49 -272.118)" fill="#a0616a"/>
    <path id="Path_2155" data-name="Path 2155" d="M531.835,303.08s-.357,4.1-1.248,4.28,1.962,7.311,1.962,7.311h4.28l3.388-.892-1.6-3.923s-2.14-2.853-.535-5.171S531.835,303.08,531.835,303.08Z" transform="translate(-484.49 -272.118)" fill="#cdbf95" opacity="0.8"/>
    <path id="Path_2156" data-name="Path 2156" d="M477.542,476.27s-4.636,8.916-.892,10.7,4.636,1.6,4.636,2.14-.713.357-.357,1.248-.713,4.458.357,6.6A6.1,6.1,0,0,1,482,500.7a2.881,2.881,0,0,0,.357.892c.357.713.535,1.248.357,1.6s-1.248,2.675-.178,3.21,6.6.892,7.133,0-.535-1.427,0-1.962.892-.713.535-1.07-.713-4.815-.713-4.815.892-5.171.535-5.885-.892-1.427-.535-1.962.713-.357.892-1.07.535-2.318.535-2.318l1.962-.178,4.636.892s5.171,5.706,10.878,7.49c0,0,1.6,1.6,2.14,1.6s.535,0,.357.357-.713.357-.357.713.892-.178.535.357-.713.535-.357.892-.178,2.318-.178,2.5-1.6,16.941-1.07,17.3,8.025,1.427,8.56,0a4.7,4.7,0,0,0-.357-3.21s2.675-21.4,1.961-22.825-3.21-7.846-16.584-11.948c0,0-3.745-.713-3.745-1.248s-.357-3.923-1.07-4.1-4.815-.357-4.815-.357l-5.171,1.6-7.133-1.248Z" transform="translate(-439.113 -413.923)" fill="#2f2e41"/>
    <path id="Path_2157" data-name="Path 2157" d="M518.029,645.092l-.892,3.21s-.713,5.171.178,6.42a5.609,5.609,0,0,0,4.27,2.392,2.866,2.866,0,0,0,2.992-1.983.9.9,0,0,0,.049-.231c0-.357-.535-4.636-.535-4.636l-.892-4.458-.178-1.248Z" transform="translate(-473.359 -552.786)" fill="#2f2e41"/>
    <path id="Path_2158" data-name="Path 2158" d="M662.773,725.953s-.892-.892-1.07,0-.892,4.636.357,4.815,13.2,1.962,14.444,1.248,3.567-1.783,2.14-2.318-5.528-2.14-5.528-2.14a36.289,36.289,0,0,0-2.675-3.21,5.16,5.16,0,0,0-3.21.892C666.339,725.953,662.773,725.953,662.773,725.953Z" transform="translate(-592.067 -618.311)" fill="#2f2e41"/>
    <circle id="Ellipse_218" data-name="Ellipse 218" cx="5.528" cy="5.528" r="5.528" transform="translate(46.097 23.651)" fill="#d4c194" opacity="0.97"/>
    <path id="Path_2159" data-name="Path 2159" d="M495.839,330.778l-2.14-2.318-2.372-4.636s-1.73-.535-2.086.357-6.776,3.745-6.776,3.745,1.6,14.979.892,16.406-1.962,7.133-.892,7.668,6.063,0,7.668.713,6.241.713,7.49-.178,1.6-1.6,2.853-1.07c1.063.455,3.547-15.115,4.262-19.755a2.112,2.112,0,0,0-.875-2.052c-1.6-1.122-4.482-3.056-4.992-2.8C498.157,327.212,495.839,330.778,495.839,330.778Z" transform="translate(-444.749 -289.116)" fill="#575a89"/>
    <path id="Path_2160" data-name="Path 2160" d="M589.63,359.557h0a2.115,2.115,0,0,1,1.589,1.818l1.443,12.983s-3.566,7.668-5.35,2.5S589.63,359.557,589.63,359.557Z" transform="translate(-530.872 -318.608)" fill="#575a89"/>
    <path id="Path_2161" data-name="Path 2161" d="M587.177,444.627l3.923-1.07s.713,4.993,1.427,4.993-2.5,2.853-4.1,2.5-3.923-1.6-4.1-2.5,1.6-4.636,1.6-4.636Z" transform="translate(-528.776 -387.629)" fill="#575a89"/>
    <path id="Path_2162" data-name="Path 2162" d="M522.333,252.255c.376-.829.311-1.8.621-2.651a3.161,3.161,0,0,1,4.806-1.494c.4.285.8.685,1.289.631.525-.059.994-.645,1.477-.43.535.238.391,1.2.933,1.419a.686.686,0,0,0,.788-.324,2,2,0,0,0,.229-.887,4.246,4.246,0,0,0-.187-2.255,5.408,5.408,0,0,1-.362-.729,2.5,2.5,0,0,1-.069-.719,5.154,5.154,0,0,0-.518-2.6,3.768,3.768,0,0,0-2.385-1.645,9.1,9.1,0,0,0-2.96-.119,8.5,8.5,0,0,0-4.625,1.451,1.808,1.808,0,0,0-.445.467,2.408,2.408,0,0,0-.237.685,14.165,14.165,0,0,1-1.242,3.259,7.065,7.065,0,0,0-.641,1.385,1.792,1.792,0,0,0,.159,1.473,5.626,5.626,0,0,0,.9.808c.29.278.425.814.746,1.025.28.184.616.054.9.249C521.875,251.505,521.9,252.054,522.333,252.255Z" transform="translate(-474.881 -220.691)" fill="#2f2e41"/>
    <path id="Path_2163" data-name="Path 2163" d="M564.382,373.627l.535-1.07s7.846,2.318,9.451,4.458c0,0,3.923-2.5,6.063-2.14l2.14.357-6.6,5.885-8.381-.713Z" transform="translate(-512.401 -329.29)" fill="#f2f2f2"/>
    <path id="Path_2164" data-name="Path 2164" d="M528.693,372.557l-7.311,10.164,10.521,5.171a1.808,1.808,0,0,0,1.74,0l7-3.21,6.6-9.451-6.6,3.388a1.562,1.562,0,0,0-2.14-.713Z" transform="translate(-477.068 -329.29)" fill="#14c48d"/>
    <path id="Path_2165" data-name="Path 2165" d="M621.274,426.885l1.427-3.745s3.21-4.1,1.427-6.063-3.745,5.706-3.745,5.706Z" transform="translate(-558.414 -365.608)" fill="#c4ab8c"/>
    <path id="Path_2166" data-name="Path 2166" d="M533.079,434.575l3.113-2.524s4.834-1.937,4.276-4.529-6.1,3.057-6.1,3.057Z" transform="translate(-486.679 -373.895)" fill="#c4ab8c"/>
    <path id="Path_2167" data-name="Path 2167" d="M470.24,363.643h-.178s-2.764-3.3-3.3,1.159-2.318,19.259,2.318,19.794a11.274,11.274,0,0,0,7.935-2.229s3.388-5.171,2.14-5.171a33.541,33.541,0,0,0-3.745-.178c-1.6.1-3.034.549-2.942.089C472.647,376.215,475.233,364.892,470.24,363.643Z" transform="translate(-431.543 -321.001)" opacity="0.1"/>
    <path id="Path_2168" data-name="Path 2168" d="M465.864,347.914l-.713-.357s-2.853.535-3.388,4.993-2.318,19.259,2.318,19.794a42.784,42.784,0,0,0,10.878-.713s1.248-6.776,0-6.776-7.668.892-7.49,0S470.857,349.162,465.864,347.914Z" transform="translate(-427.435 -308.748)" fill="#575a89"/>
    <path id="Path_2169" data-name="Path 2169" d="M338,339.227l1.966-3.014,1.243,4.975L338,342.615Z" transform="translate(-277.726 -280)" fill="#575a89"/>
  </g>
</svg>
