<svg xmlns="http://www.w3.org/2000/svg" width="299" height="293.247">
  <defs>
    <linearGradient id="a" x2="1" y1=".5" y2=".5" gradientUnits="objectBoundingBox">
      <stop offset="0" stop-color="#0093aa"/>
      <stop offset="1" stop-color="#00bfdc"/>
    </linearGradient>
    <linearGradient id="c" x1="-.004" x2="1.02" y1=".199" y2=".813" gradientUnits="objectBoundingBox">
      <stop offset="0" stop-color="#0ff"/>
      <stop offset=".151" stop-color="#18e6f6"/>
      <stop offset=".358" stop-color="#32caed"/>
      <stop offset=".568" stop-color="#45b7e7"/>
      <stop offset=".78" stop-color="#50abe3"/>
      <stop offset="1" stop-color="#54a8e2"/>
    </linearGradient>
    
  </defs>
  <g transform="translate(-42 -396)">
    <ellipse cx="135.359" cy="15.458" fill="url(#a)" data-name="Ellipse 200" opacity=".5" rx="135.359" ry="15.458" style="mix-blend-mode:multiply;isolation:isolate" transform="translate(52 658.33)"/>
    <g data-name="Group 459">
      <g data-name="Group 456">
        <g data-name="Group 451">
          <path fill="#29405d" d="M99.366 662.206H86.972c0-6.643-4.375-13.192-7.646-18.773-.1-.177-.209-.359-.313-.536-2.818-4.87-6.48-9.39-7.565-15.053a7.628 7.628 0 0 1 .395-4.92 6.469 6.469 0 0 1 4.226-3.049c20.641-5.292 24.958 22.272 23.297 42.331Z" data-name="Path 1936"/>
          <path fill="#22354e" d="M94.035 662.206h-.531a57.758 57.758 0 0 0-.793-8.387 62.851 62.851 0 0 0-2.455-9.851 56.106 56.106 0 0 0-9.753-17.709c-.354-.449-.041-.689.332-.29a47.69 47.69 0 0 1 10.492 17.64 53.057 53.057 0 0 1 2.309 10.079 49.915 49.915 0 0 1 .399 8.518Z" data-name="Path 1937"/>
        </g>
        <path fill="#29405d" d="M107.659 662.205h15.479c2.522-23.289 1.833-81.675-31.892-75.941-25.872 4.398 15.751 38.034 16.413 75.941Z" data-name="Path 1939"/>
        <g data-name="Group 452">
          <path fill="#22354e" d="M99.195 599.127a41.711 41.711 0 0 1 5.217 7.54 58.382 58.382 0 0 1 3.8 8.347 83.959 83.959 0 0 1 2.737 8.774 113.788 113.788 0 0 1 1.923 9 169.6 169.6 0 0 1 2.122 18.313c.235 3.7.386 7.4.421 11.1h1.054q.207-5.582 0-11.179a136.286 136.286 0 0 0-1.909-18.548 97.865 97.865 0 0 0-2.04-9.118 74.8 74.8 0 0 0-2.984-8.871c-.565-1.454-1.24-2.868-1.909-4.28-.731-1.385-1.433-2.778-2.275-4.094a40.221 40.221 0 0 0-5.686-7.423c-.664-.699-1.099-.306-.471.439Z" data-name="Path 1940"/>
        </g>
        <g data-name="Group 454">
          <g transform="translate(42.003 395.998)">
            <path fill="#29405d" d="M53.497 266.207H66.35s3.387-27.076-11.155-27.058c-13.245.008-4.401 16.741-1.698 27.058Z" data-name="Path 1941"/>
          </g>
          <g data-name="Group 453">
            <path fill="#22354e" d="M99.323 641.832a82.145 82.145 0 0 1 3.171 18.823l.081 1.549h1.117a48.38 48.38 0 0 0-.081-1.631 64.506 64.506 0 0 0-3.9-18.9c-.199-.462-.55-.322-.388.159Z" data-name="Path 1942"/>
          </g>
        </g>
        <g data-name="Group 455">
          <path fill="url(#c)" d="M912.322 278.317h.806c.3-2.453.669-4.907 1.13-7.333a76.7 76.7 0 0 1 2.722-10c.3-.813.648-1.607.965-2.406.166-.4.311-.806.5-1.2l.578-1.158.572-1.165a10.148 10.148 0 0 1 .621-1.137l1.357-2.213c.283-.454.055-.641-.262-.179l-1.474 2.164a9.29 9.29 0 0 0-.669 1.131l-.634 1.15-.627 1.159c-.2.386-.359.792-.545 1.192-.345.807-.717 1.6-1.041 2.412a64.955 64.955 0 0 0-2.9 10.09 84.803 84.803 0 0 0-1.099 7.493Z" data-name="Path 1943" transform="translate(-786.033 383.889)"/>
        </g>
      </g>
      <path fill="#2a5568" d="M82.131 654.037c7.367-1.4 12.683 4.129 13.034 4.479.324-1.134 3.535-11.577 13.952-15.273a22.131 22.131 0 0 1 14.383 0 10.277 10.277 0 0 1 12.6-13.493 20.321 20.321 0 0 1 36.862 6.287 10.218 10.218 0 0 1 18.458 2.7 18.832 18.832 0 0 1 31.759 7.962 19.178 19.178 0 0 1 17.581-3.394c9.15 2.88 14.823 11.568 12.829 21.4h-29.316l-153.4 1.022a14.428 14.428 0 0 1 11.258-11.69Z" data-name="Path 1946"/>
    </g>
    <g data-name="Group 470">
      <g data-name="Group 465">
        <g data-name="Group 460">
          <path fill="#29405d" d="M258.046 652.276h-10.672c0-5.722-3.767-11.361-6.585-16.168l-.27-.461c-2.427-4.193-5.58-8.085-6.514-12.962a6.563 6.563 0 0 1 .34-4.237 5.57 5.57 0 0 1 3.638-2.626c17.777-4.556 21.494 19.18 20.063 36.454Z" data-name="Path 1947"/>
          <path fill="#22354e" d="M253.459 652.276h-.458a49.65 49.65 0 0 0-.684-7.222 53.859 53.859 0 0 0-2.114-8.484 48.289 48.289 0 0 0-8.4-15.249c-.305-.387-.035-.594.285-.25a41.021 41.021 0 0 1 9.035 15.19 45.7 45.7 0 0 1 1.99 8.679 43.182 43.182 0 0 1 .346 7.336Z" data-name="Path 1948"/>
        </g>
        <path fill="#29405d" d="M277.076 652.276h10.862c0-13.925 15.753-27.6 3.876-29.078-4.226-.528-7.241 1.638-9.39 5-5.348 8.355-5.348 24.078-5.348 24.078Z" data-name="Path 1949"/>
        <path fill="#29405d" d="M265.188 652.276h13.33c2.172-20.056 1.579-70.335-27.463-65.4-22.28 3.79 13.563 32.755 14.133 65.4Z" data-name="Path 1950"/>
        <g data-name="Group 461">
          <path fill="#22354e" d="M257.899 597.955a35.97 35.97 0 0 1 4.493 6.493 50.152 50.152 0 0 1 3.271 7.188 72.314 72.314 0 0 1 2.356 7.556 97.67 97.67 0 0 1 1.656 7.751 146.053 146.053 0 0 1 1.828 15.771c.2 3.187.333 6.374.362 9.562h.908a133.23 133.23 0 0 0 0-9.628 117.367 117.367 0 0 0-1.644-15.972 84.498 84.498 0 0 0-1.757-7.852 64.607 64.607 0 0 0-2.569-7.639c-.487-1.252-1.069-2.469-1.645-3.686-.629-1.193-1.234-2.392-1.958-3.525a34.657 34.657 0 0 0-4.9-6.393c-.567-.605-.941-.267-.401.374Z" data-name="Path 1951"/>
        </g>
        <g data-name="Group 463">
          <g transform="translate(41.998 396.002)">
            <path fill="#29405d" d="M212.713 256.274h11.065s2.917-23.317-9.606-23.3c-11.399.006-3.787 14.415-1.459 23.3Z" data-name="Path 1952"/>
          </g>
          <g data-name="Group 462">
            <path fill="#22354e" d="M258.009 634.732a70.767 70.767 0 0 1 2.731 16.209l.07 1.335h.962a39.388 39.388 0 0 0-.07-1.4 55.534 55.534 0 0 0-3.36-16.271c-.17-.409-.473-.284-.333.127Z" data-name="Path 1953"/>
          </g>
        </g>
        <g data-name="Group 464">
          <path fill="#22354e" d="M281.231 652.276h.7c.255-2.113.575-4.226.973-6.316a66.152 66.152 0 0 1 2.344-8.612c.262-.7.558-1.383.831-2.071.143-.345.267-.7.428-1.033l.5-1 .493-1a8.6 8.6 0 0 1 .534-.98l1.169-1.9c.244-.392.048-.552-.225-.154l-1.27 1.864a7.959 7.959 0 0 0-.576.973l-.546.991-.54 1c-.172.333-.309.683-.469 1.027-.3.7-.617 1.377-.9 2.077a55.784 55.784 0 0 0-2.5 8.69q-.617 3.197-.946 6.444Z" data-name="Path 1954"/>
        </g>
      </g>
      <g data-name="Group 467">
        <g data-name="Group 466">
          <path fill="#526278" d="M268.373 629.561c2.637-2.865 9.63 2.526 9.63 2.526-3.237-4.213-12.8-14.6-9.3-19.238 2.839-3.764 8.558-.461 11.216 2.73-2.582-3.848-11.758-15.421-8.022-18.716 3.264-2.878 8.253 2.39 10.056 5.821-.872-3.912-4.79-16.834 2.8-17.662 7.367-.635 7.63 12.427 7.358 17.322 1.13-3.247 4.37-10.23 8.426-7.134 6.574 5.017-5.781 21.3-5.781 21.3s8.54-6.529 10.551-.592c2.844 8.4-5.367 16.1-12.353 19.069 9.9-4.494 12.233 5.272 6.269 11.524a20.629 20.629 0 0 1-19.691 5.648c-5.292-2.738-15.165-18.245-11.159-22.598Z" data-name="Path 1955"/>
          <path fill="#435164" d="M276.211 639.274a49.496 49.496 0 0 0 2.737 3.293 28.637 28.637 0 0 0 2.33 2.283 116.646 116.646 0 0 0 4.038-15.982 44.206 44.206 0 0 1-3.537-2.774c-1.231-1.086-2.446-2.271-3.584-3.483s-2.222-2.486-3.245-3.792a44.653 44.653 0 0 1-2.864-4.042 44.013 44.013 0 0 0 2.994 3.916c1.062 1.258 2.183 2.477 3.352 3.629s2.411 2.266 3.661 3.277a40 40 0 0 0 3.371 2.421 106.677 106.677 0 0 0 1.47-12.84 47.012 47.012 0 0 1-3.5-3.517c-.6-.624-1.13-1.319-1.7-1.966-.532-.69-1.089-1.36-1.6-2.052-1.018-1.377-2.039-2.8-2.975-4.246s-1.833-2.915-2.632-4.434c.848 1.487 1.791 2.916 2.769 4.319s2.041 2.776 3.094 4.1c.529.663 1.1 1.3 1.65 1.963.585.615 1.133 1.277 1.741 1.865a41.135 41.135 0 0 0 3.2 2.992 142.431 142.431 0 0 0-1.432-25.1 143.148 143.148 0 0 1 2.107 25.163 24.681 24.681 0 0 0 3.338-2.656 32.722 32.722 0 0 0 3.433-3.832 41.442 41.442 0 0 0 2.975-4.487 40.789 40.789 0 0 0 2.455-5.06 41.557 41.557 0 0 1-2.314 5.2 42.329 42.329 0 0 1-2.864 4.66 33.587 33.587 0 0 1-3.367 4.034 25.821 25.821 0 0 1-3.683 3.106c-.226 4.413-.6 8.684-1.147 13.07a15.534 15.534 0 0 0 3.913-.924 22.19 22.19 0 0 0 4.332-2.278 30.512 30.512 0 0 0 4.02-3.246 33.013 33.013 0 0 0 3.628-4.05 33.852 33.852 0 0 1-3.53 4.234 31.307 31.307 0 0 1-3.966 3.454 22.779 22.779 0 0 1-4.351 2.5 15.989 15.989 0 0 1-4.168 1.135 118.066 118.066 0 0 1-3.635 16.215 26.347 26.347 0 0 0 3.689-.516 33.811 33.811 0 0 0 4.614-1.341 40.332 40.332 0 0 0 4.544-2.011 38.02 38.02 0 0 0 4.412-2.674 38.881 38.881 0 0 1-4.362 2.883 41.122 41.122 0 0 1-4.529 2.224 34.521 34.521 0 0 1-4.641 1.55 27.232 27.232 0 0 1-3.974.7 117.451 117.451 0 0 1-7.266 18.1l-1.831-.971a115.663 115.663 0 0 0 7.632-17.64 30.7 30.7 0 0 1-2.451-2.634c-.919-1.122-1.8-2.284-2.627-3.479s-1.623-2.408-2.383-3.634-1.5-2.462-2.185-3.718c.736 1.222 1.521 2.42 2.328 3.6s1.652 2.352 2.516 3.493Z" data-name="Path 1956"/>
        </g>
      </g>
      <path fill="#2a5568" d="M170.21 656.112c5.375-1.024 9.254 3.013 9.51 3.268.236-.827 2.579-8.446 10.179-11.143a16.15 16.15 0 0 1 10.494 0 7.5 7.5 0 0 1 9.195-9.845 14.826 14.826 0 0 1 26.9 4.588 7.455 7.455 0 0 1 13.467 1.968 13.74 13.74 0 0 1 23.172 5.809 13.991 13.991 0 0 1 12.827-2.476 14.2 14.2 0 0 1 9.426 16.356H162a10.527 10.527 0 0 1 8.21-8.525Z" data-name="Path 1959"/>
    </g>
    <g data-name="Group 450">
      <g data-name="Group 449">
        <g fill="#54667e" data-name="Group 445">
          <path d="M112.389 635.695s.52 1.543 1.067 3.472a34.306 34.306 0 0 1 1.252 5.859l-.924.069a33.619 33.619 0 0 0-1.218-5.674c-.272-.955-.536-1.813-.731-2.432s-.323-1-.323-1l.877-.3Z" data-name="Path 1926"/>
          <path d="M120.665 636.459s-.019.156-.046.439a53.659 53.659 0 0 0-.251 4.991c0 1.01.036 2.055.134 3.038l-.922.091c-.1-1.023-.139-2.1-.139-3.129a53.689 53.689 0 0 1 .3-5.538l.92.108Z" data-name="Path 1927"/>
          <path d="M125.255 642.582a3.354 3.354 0 0 0-.4.575 2.38 2.38 0 0 0-.328 1.114h-.926a3.352 3.352 0 0 1 .487-1.639 4.145 4.145 0 0 1 .484-.679l.683.625Z" data-name="Path 1928"/>
        </g>
        <path fill="#526278" d="M113.493 636.637s4.745-6.019-2.547-18.52-22.34-15.511-23.034-13.89 7.638 4.745 9.954 14.352 2.623 14.932 5.518 17.826 6.828 4.051 10.109.232Z" data-name="Path 1929"/>
        <path fill="#526278" d="M123.263 637.853s.52-6.769 12.773-10.538 23.864 3.3 23.343 4.776-7.825-1.492-15.1 3.377-10.67 8.153-14.293 8.3-6.879-1.462-6.723-5.915Z" data-name="Path 1930"/>
        <path fill="#526278" d="M115.892 633.414s-8.174-8.777 1.3-22.821 30.382-15.024 31.068-13.078-8.18 5.62-11.622 16.666-5.32 16.581-8.923 19.739-8.286 4.209-11.823-.506Z" data-name="Path 1931"/>
        <g data-name="Group 446">
          <path fill="#d1d3d4" d="M968.217 405.506a.46.46 0 0 0 .446-.586c-.211-.764-5.294-18.8-14.7-25.694a.463.463 0 1 0-.547.747c9.141 6.7 14.3 25.011 14.352 25.2a.462.462 0 0 0 .449.333Z" data-name="Path 1932" style="mix-blend-mode:multiply;isolation:isolate" transform="translate(-856.654 229.272)"/>
        </g>
        <g data-name="Group 447">
          <path fill="#d1d3d4" d="M970.3 406.148a.508.508 0 0 0 .464-.345 2.067 2.067 0 0 0 .055-.5c.425-6.346 3.126-27.394 20.111-31.838a.463.463 0 0 0-.234-.9c-17.584 4.6-20.367 26.169-20.8 32.673-.012.173-.019.287-.025.334a.433.433 0 0 0 .3.553.4.4 0 0 0 .129.023Z" data-name="Path 1933" style="mix-blend-mode:multiply;isolation:isolate" transform="translate(-849.269 226.346)"/>
        </g>
        <g data-name="Group 448">
          <path fill="#d1d3d4" d="M974.27 405.178c.211 0 .417-.188 1.093-.8 7.617-6.892 14.956-10.156 21.825-9.71a.463.463 0 0 0 .061-.924c-7.13-.474-14.7 2.882-22.506 9.948-.272.246-.549.5-.659.581a.463.463 0 0 0 .016.872.521.521 0 0 0 .17.033Z" data-name="Path 1934" style="mix-blend-mode:multiply;isolation:isolate" transform="translate(-847.521 235.746)"/>
        </g>
      </g>
      <path fill="#354c6b" d="M107.805 672.287h23.876a1.291 1.291 0 0 0 1.257-1l5.885-25.431a1.29 1.29 0 0 0-1.258-1.58H101.92a1.29 1.29 0 0 0-1.258 1.58l5.885 25.431a1.292 1.292 0 0 0 1.258 1Z" data-name="Path 1935"/>
    </g>
    <g data-name="Group 444" transform="translate(-2821.188 1005.593)">
      <path fill="#266fa8" d="m3056.702-384.957-.451-1.274s-9.41-36.836-9.939-38.219a14.352 14.352 0 0 0-10.013-8.958l-10.451-2.355c-2.072-.466-4.663-.9-6.728-1.388.857.209 0 2.3 0 2.636 0 2.31-1.653 3.48-3.328 4.881a22.347 22.347 0 0 1-5.8 3.659 3.686 3.686 0 0 1-1.129 0 29.331 29.331 0 0 1-4.262-2.671 14.681 14.681 0 0 1-2.986-2.934 7.144 7.144 0 0 1-.758-1.258 11.289 11.289 0 0 1-.555-4.727c-.515.167-1.043.335-1.557.528-1.133.4-2.381.234-3.514.685-2.935 1.171-6.1 1.688-9.067 2.788-2.653.985-5.017 3.25-7.342 4.919a12.637 12.637 0 0 0-3.591 4.2c-1.925 3.369-17.761 36.886-18.121 37.812a9.781 9.781 0 0 0-.939 2.832 18.59 18.59 0 0 0 .283 5.56 12.908 12.908 0 0 0 3.381 5.47c4.5 3.571 20.808-3.68 20.808-3.68l-.022 6.89.022 2.229 29.39 11.294s28.16-9.177 28.122-9.357c.673-.182-.235-3.131.941-3.131 9.553-.201 18.968-8.725 17.606-16.431Zm-17.608 4.363v-19.869l3.818 16.373s.319.438-1.024 1.578a18.2 18.2 0 0 1-2.794 1.919Z" data-name="Path 1908"/>
      <path fill="#266fa8" d="M2984.613-324.911c-4.5.335-14.351.656-18.842.991a7.451 7.451 0 0 1-2.96-.18c-1.943-.631-3.037-2.5-3.642-4.144-2.432-6.577-1.725-15.032 2.33-20.129l19.357 6.345Z" data-name="Path 1909"/>
      <path fill="#266fa8" d="M3047.929-352.117c4.948 5.875 6.8 16.087 5.13 23.6-.388 1.749-1.2 3.694-2.913 4.205a5.659 5.659 0 0 1-2.686-.087c-4.157-.811-13.2-2.106-17.359-2.918l.132-18.793c4.408-1.663 16.998-6.834 17.696-6.007Z" data-name="Path 1912"/>
      <rect width="27.9" height="37.56" fill="#f3f8ff" data-name="Rectangle 1740" rx="4" transform="translate(2992.399 -406.153)"/>
      <ellipse cx="3.1" cy="3.13" fill="#d0cde1" data-name="Ellipse 124" rx="3.1" ry="3.13" transform="translate(3002.733 -395.72)"/>
      <path fill="#1e5988" d="M3025.746-384.51c3.704-8.902 13.042-16.958 13.042-16.958l.295 20.891a12.925 12.925 0 0 1-3.907.909 28.01 28.01 0 0 1-4.427-.244l-2.517 10.785s2.462.4 5.177.6a48.705 48.705 0 0 0 5.684 0v4.91l-21.432 5.776s4.381-17.768 8.085-26.669Z" data-name="Path 1924"/>
      <path fill="#1e5988" d="M2988.881-388.832c-3.7-8.9-4.706-21.08-4.706-21.08l-1.1 21.509 6.158 8.435-8.636 3.439s-.183 7.689-.986 9.564 11.563 3.441 11.563 3.441 1.414-16.406-2.293-25.308Z" data-name="Path 1925"/>
      <path fill="#f3f8ff" d="m3060.251-346.823-8.224 2.342a23.219 23.219 0 0 0-4.093-7.632c-.708-.836-13.287 4.341-17.7 6 .412 5.965-.417 13.083-.136 18.787.026 0 .09 1.094.09 1.094l-19.627-6.435-25.946 7.4-3.812-16.561-23.37-7.676c-6.268-2.047-9.807-9.381-7.748-15.648l.064-.219a11.886 11.886 0 0 1 7.117-7.439 7.26 7.26 0 0 1 .566-.206 11.757 11.757 0 0 1 1.763-.437 12.206 12.206 0 0 1 2.316 1.235c1.532.734 3.3.335 4.956-.155l43.566 15.972 43.051-13.411a12.027 12.027 0 0 1 14.733 7.247 12.1 12.1 0 0 1-6.154 15.2 12 12 0 0 1-1.412.542Z" data-name="Path 1916"/>
      <path fill="#ffb8b8" d="M3030.562-379.974c-.271-1.021-2.363-2.476-3.367-2.648-3.152-.539-6.761-4.817-8.171-3.839-.46.32.11 2.317.891 3.417a24.23 24.23 0 0 0 1.931 2.08c-2.235-.181-13.6-5.315-14.358-.378s9.1 11.658 20.949 12.137Z" data-name="Path 1918"/>
      <path fill="#ffb8b8" d="M2989.067-380.121c14.208-1.966 16.587-10.036 15.4-13.692s-10.167 1.3-12.361 1.916a12.855 12.855 0 0 1 .549-2.658c.565-1.249.312-3.155-.21-3.384-1.6-.7-3.776 4.139-6.814 5.29-.968.367-2.542 3.18-2.583 4.292Z" data-name="Path 1919"/>
      <path fill="#ffb8b8" d="m2991.223-464.347 1.705 11.153c-2.175.309-3.687-4.756-3.687-4.756-1.84-4.312-.102-6.243 1.982-6.397Z" data-name="Path 1920"/>
      <path fill="#ffb8b8" d="M3033.803-458.917c-.013.039-.965 5.624-4.916 5.753a23.423 23.423 0 0 1-9.421 12.857v5.225c0 5.29-9.678 9.563-9.678 9.563s-9.486-4.273-9.486-9.563v-5.573c-4.749-3.771-7.593-10.451-8.469-18.314v-.026c.631-6.049 2.446-16.873 6.075-20.541 1.042-1.055 4.106-.63 8.443-2.83 14.852.522 13.692 1.276 18.8 3.77 4.183 2.973 3.746 17.233 4.286 22.909l1.982-8.469.051-.566a2.577 2.577 0 0 1 1.094.129c2.102.735 1.857 2.884 1.239 5.676Z" data-name="Path 1921"/>
      <path fill="#e5a5a5" d="M3000.308-440.686s5 5.656 9.825 5.656 9.361-5.281 9.361-5.281v5.718s-.674 9.471-9.361 9.32-9.945-9.32-9.945-9.32Z" data-name="Path 1923"/>
      <path fill="#f3f8ff" d="m3032.49-477.128-1.068 12.973-1.981 8.469c-.541-5.676-.187-17.324-4.37-20.3-2.625 4.209-20.2.407-23.694-.541-2.651-.908-2.51-1.455-3.552-.4-4.144 4.2-5.072 16.6-5.419 21.67l-2.181-8.825-.772-13.372c0-5.882 5.792-14.466 12.008-14.466h.772c2.252 0 20.386 2.246 29.189-5.293 6.275 11.205 1.068 15.092 1.068 20.085Z" data-name="Path 1922"/>
    </g>
    <g transform="translate(2 334.723)">
      <circle cx="6" cy="6" r="6" fill="#f3f8ff" data-name="Ellipse 176" opacity=".24" transform="translate(156 152.277)"/>
      <circle cx="14" cy="14" r="14" fill="#f3f8ff" data-name="Ellipse 162" opacity=".24" transform="translate(40 189.277)"/>
      <circle cx="6" cy="6" r="6" fill="#f3f8ff" data-name="Ellipse 164" opacity=".24" transform="translate(300 200.277)"/>
      <circle cx="9" cy="9" r="9" fill="#f3f8ff" data-name="Ellipse 166" opacity=".24" transform="translate(40 246.277)"/>
      <circle cx="9" cy="9" r="9" fill="#f3f8ff" data-name="Ellipse 167" opacity=".24" transform="translate(225 82.277)"/>
      <circle cx="4" cy="4" r="4" fill="#f3f8ff" data-name="Ellipse 168" opacity=".24" transform="translate(265 126.277)"/>
      <circle cx="8" cy="8" r="8" fill="#f3f8ff" data-name="Ellipse 179" opacity=".24" transform="translate(246 164.277)"/>
      <circle cx="16" cy="16" r="16" fill="#f3f8ff" data-name="Ellipse 169" opacity=".24" transform="translate(307 232.277)"/>
      <circle cx="5" cy="5" r="5" fill="#f3f8ff" data-name="Ellipse 186" opacity=".24" transform="translate(104 69.277)"/>
      <circle cx="4" cy="4" r="4" fill="#f3f8ff" data-name="Ellipse 175" opacity=".24" transform="translate(265 71.277)"/>
      <circle cx="8.5" cy="8.5" r="8.5" fill="#f3f8ff" data-name="Ellipse 172" opacity=".24" transform="translate(97 144.277)"/>
      <ellipse cx="8.5" cy="9" fill="#f3f8ff" data-name="Ellipse 177" opacity=".24" rx="8.5" ry="9" transform="translate(87 218.277)"/>
      <circle cx="4" cy="4" r="4" fill="#f3f8ff" data-name="Ellipse 187" opacity=".24" transform="translate(192 61.277)"/>
      <circle cx="12" cy="12" r="12" fill="#f3f8ff" data-name="Ellipse 174" opacity=".24" transform="translate(168 91.277)"/>
      <circle cx="20" cy="20" r="20" fill="#354c6b" data-name="Ellipse 116" transform="translate(234 197.277)"/>
      <circle cx="20" cy="20" r="20" fill="#354c6b" data-name="Ellipse 203" transform="translate(40 136.277)"/>
      <circle cx="20" cy="20" r="20" fill="#354c6b" data-name="Ellipse 210" transform="translate(46 67.277)"/>
      <circle cx="20" cy="20" r="20" fill="#354c6b" data-name="Ellipse 204" transform="translate(200 124.277)"/>
      <circle cx="20" cy="20" r="20" fill="#354c6b" data-name="Ellipse 205" transform="translate(104 171.277)"/>
      <circle cx="20" cy="20" r="20" fill="#354c6b" data-name="Ellipse 206" transform="translate(281 75.277)"/>
      <circle cx="20" cy="20" r="20" fill="#354c6b" data-name="Ellipse 207" transform="translate(111 94.277)"/>
      <circle cx="20" cy="20" r="20" fill="#354c6b" data-name="Ellipse 209" transform="translate(281 145.277)"/>
      <g fill="#9fadbf" data-name="Group 595">
        <path d="M220.071 140.491v1.053a.719.719 0 0 0 .718.718h.146v2.089l-.813.813a.381.381 0 0 0-.111.269v.843a.38.38 0 0 0 .761 0v-.685l.813-.813a.38.38 0 0 0 .111-.269v-2.246h.146a.719.719 0 0 0 .718-.718v-1.054a.719.719 0 0 0-.718-.718h-1.057a.719.719 0 0 0-.718.718Zm.76.042h.969v.969h-.969Z" data-name="Path 2029"/>
        <path d="M215.402 139.231a.719.719 0 0 0-.718.718v1.282a.719.719 0 0 0 .718.718h1.282a.719.719 0 0 0 .718-.718v-1.285a.719.719 0 0 0-.718-.718Zm1.239 1.958h-1.2v-1.2h1.2Z" data-name="Path 2030"/>
        <path d="M216.287 136.712v.778a.719.719 0 0 0 .718.718h.778a.719.719 0 0 0 .718-.718v-.778a.719.719 0 0 0-.718-.718h-.778a.719.719 0 0 0-.718.718Zm.761.042h.693v.693h-.693Z" data-name="Path 2031"/>
        <path d="M225.854 139.077h-1.275a.719.719 0 0 0-.718.718v1.271a.719.719 0 0 0 .718.718h1.275a.719.719 0 0 0 .718-.718v-1.275a.719.719 0 0 0-.718-.718Zm-.042 1.951h-1.19v-1.19h1.191Z" data-name="Path 2033"/>
        <path stroke="rgba(0,0,0,0)" d="M219.8 156.299a2.182 2.182 0 0 1-2.155-1.861 1.106 1.106 0 0 1-.739-1.042v-.541a1.309 1.309 0 0 1-1.243-1.305 1.31 1.31 0 0 1 .752-1.183 10.234 10.234 0 0 0-1.714-2.689.381.381 0 0 1 .034-.536.381.381 0 0 1 .537.034 10.981 10.981 0 0 1 1.916 3.067h.805v-4.727h-.146a.719.719 0 0 1-.718-.719v-1.052a.719.719 0 0 1 .718-.719h1.053a.719.719 0 0 1 .718.719v1.053a.719.719 0 0 1-.718.719h-.146v4.727h1.258v-2.352a.38.38 0 0 1 .379-.38.38.38 0 0 1 .38.38v2.352h.841v-2.289a.378.378 0 0 1 .112-.269l1.7-1.7v-.8h-.078a.639.639 0 0 1-.637-.637v-.831a.638.638 0 0 1 .637-.637h.831a.638.638 0 0 1 .637.637v.831a.638.638 0 0 1-.63.637v.958a.38.38 0 0 1-.112.269l-1.7 1.7v2.129h.432a10.691 10.691 0 0 1 2.516-3.7 7.666 7.666 0 0 0 2.413-5.613 7.745 7.745 0 0 0-.059-.954.417.417 0 0 1 0-.078 7.668 7.668 0 0 0-1.394-3.481.38.38 0 0 1 .086-.531.38.38 0 0 1 .531.085 8.423 8.423 0 0 1 1.605 4.961 8.49 8.49 0 0 1-2.076 5.564.4.4 0 0 1-.045.044q-.255.288-.537.556a9.9 9.9 0 0 0-2.266 3.27 1.308 1.308 0 0 1 .754 1.183 1.309 1.309 0 0 1-1.244 1.305v.542a1.106 1.106 0 0 1-.739 1.042 2.182 2.182 0 0 1-2.155 1.861Zm0-.761h.395a1.42 1.42 0 0 0 1.366-1.037h-3.125a1.419 1.419 0 0 0 1.364 1.038Zm-2.133-2.142a.345.345 0 0 0 .344.345h3.972a.345.345 0 0 0 .345-.345v-.54h-.557a.38.38 0 0 1-.38-.38.38.38 0 0 1 .38-.38h1.254a.546.546 0 0 0 .546-.546.546.546 0 0 0-.51-.544H216.932a.545.545 0 0 0-.508.544.547.547 0 0 0 .546.546h3.181a.38.38 0 0 1 .38.38.38.38 0 0 1-.38.38h-2.484Zm.223-8.641h.968v-.969h-.968Zm5.582-.331h.585v-.585h-.585Z" data-name="Path 2043"/>
        <path d="M212.26 140.932a7.666 7.666 0 0 1 1.462-4.516.38.38 0 0 0-.616-.445 8.481 8.481 0 0 0 .471 10.525.38.38 0 1 0 .574-.5 7.73 7.73 0 0 1-1.891-5.064Z" data-name="Path 2035"/>
        <path d="M218.014 133.442a.383.383 0 0 0 .093-.012 7.673 7.673 0 0 1 1.907-.234 7.829 7.829 0 0 1 1.181.092.38.38 0 1 0 .117-.751 8.584 8.584 0 0 0-1.3-.1 8.41 8.41 0 0 0-2.094.257.38.38 0 0 0 .093.749Z" data-name="Path 2036"/>
        <path d="M214.699 135.571h1.482a.719.719 0 0 0 .718-.718v-1.483a.719.719 0 0 0-.718-.718h-1.482a.719.719 0 0 0-.718.718v1.482a.719.719 0 0 0 .718.719Zm.042-2.158h1.4v1.4h-1.4Z" data-name="Path 2037"/>
        <path d="M224.145 135.19h1.117a.9.9 0 0 0 .9-.9v-1.115a.9.9 0 0 0-.9-.9h-1.117a.9.9 0 0 0-.9.9v1.117a.9.9 0 0 0 .9.898Zm.053-1.962h1.012v1.009h-1.013Z" data-name="Path 2040"/>
        <path d="M222.214 138.251h.7a.719.719 0 0 0 .718-.718v-.7a.719.719 0 0 0-.718-.718h-.7a.719.719 0 0 0-.718.718v.7a.719.719 0 0 0 .718.718Zm.042-1.372h.611v.611h-.614Z" data-name="Path 2041"/>
      </g>
      <g data-name="Group 600">
        <g data-name="Group 597">
          <g data-name="Group 596">
            <path fill="#9fadbf" d="M126.989 196.716a1.415 1.415 0 0 0-.419-.913l-1.8-1.8a1.888 1.888 0 0 0 .767-.464l.046-.046a2.144 2.144 0 0 0-.142-3.019 2.344 2.344 0 0 0-1.51-.7 1.934 1.934 0 0 0-1.509.554l-.046.046a1.886 1.886 0 0 0-.464.767l-1.8-1.8a1.315 1.315 0 0 0-1.853-.071l-1.632 1.632a.844.844 0 0 0-.222.776.936.936 0 0 0 .581.681 1.458 1.458 0 0 1 .507.333l.052.052a1.4 1.4 0 0 1 .419.9.965.965 0 0 1-1.059 1.059 1.4 1.4 0 0 1-.9-.419l-.052-.052a1.458 1.458 0 0 1-.333-.507.936.936 0 0 0-.681-.581.844.844 0 0 0-.775.222l-1.628 1.63a1.315 1.315 0 0 0 .071 1.853l1.8 1.8a1.887 1.887 0 0 0-.767.464l-.046.046a2.144 2.144 0 0 0 .142 3.019 2.333 2.333 0 0 0 1.64.7 1.93 1.93 0 0 0 1.379-.556l.046-.046a1.886 1.886 0 0 0 .464-.767l1.8 1.8a1.415 1.415 0 0 0 .913.419h.078a1.217 1.217 0 0 0 .863-.35l1.552-1.552a2.4 2.4 0 0 0 .528.788l.052.052a2.144 2.144 0 0 0 3.019.142 2.144 2.144 0 0 0-.142-3.019l-.052-.052a2.4 2.4 0 0 0-.788-.528l1.554-1.554a1.222 1.222 0 0 0 .347-.939Zm-1.017.27-1.632 1.632a.844.844 0 0 0-.222.776.936.936 0 0 0 .581.681 1.458 1.458 0 0 1 .507.333l.052.052a1.2 1.2 0 0 1 .142 1.679 1.2 1.2 0 0 1-1.679-.142l-.052-.052a1.458 1.458 0 0 1-.333-.507.936.936 0 0 0-.681-.581.844.844 0 0 0-.776.222l-1.63 1.63a.271.271 0 0 1-.213.071.475.475 0 0 1-.3-.143l-.722-.722-.67-.67-.491-.491a.928.928 0 0 0-.654-.277.863.863 0 0 0-.246.036.806.806 0 0 0-.567.614.939.939 0 0 1-.256.478l-.046.046a1.2 1.2 0 0 1-1.679-.142 1.2 1.2 0 0 1-.142-1.679l.046-.046a.94.94 0 0 1 .478-.256.806.806 0 0 0 .614-.567.911.911 0 0 0-.241-.9l-1.883-1.883a.475.475 0 0 1-.143-.3.272.272 0 0 1 .071-.213l1.552-1.552a2.4 2.4 0 0 0 .528.788l.052.052a2.145 2.145 0 0 0 3.019.142 2.144 2.144 0 0 0-.142-3.019l-.05-.051a2.4 2.4 0 0 0-.788-.528l1.554-1.554a.378.378 0 0 1 .513.071l1.882 1.882a.91.91 0 0 0 .9.241.806.806 0 0 0 .567-.614.938.938 0 0 1 .256-.478l.046-.046a1 1 0 0 1 .781-.278 1.4 1.4 0 0 1 .9.419 1.2 1.2 0 0 1 .142 1.679l-.046.046a.94.94 0 0 1-.478.256.806.806 0 0 0-.614.567.911.911 0 0 0 .241.9l1.883 1.883a.475.475 0 0 1 .143.3.272.272 0 0 1-.074.215Z" data-name="Path 2044"/>
          </g>
        </g>
        <g data-name="Group 599">
          <g data-name="Group 598">
            <path fill="#9fadbf" d="M135.415 190.356a2.419 2.419 0 0 0-.9-.572l1.589-1.589a1.222 1.222 0 0 0 .347-.94 1.415 1.415 0 0 0-.419-.913l-1.765-1.765a1.889 1.889 0 0 0 .662-.427l.046-.046a2.144 2.144 0 0 0-.142-3.019 2.144 2.144 0 0 0-3.019-.142l-.046.046a1.89 1.89 0 0 0-.428.662l-1.77-1.767a1.315 1.315 0 0 0-1.853-.071l-1.589 1.589a2.419 2.419 0 0 0-.572-.9l-.052-.052a2.144 2.144 0 0 0-3.019-.146 2.144 2.144 0 0 0 .142 3.019l.052.052a2.419 2.419 0 0 0 .9.572l-1.589 1.589a1.315 1.315 0 0 0 .072 1.853l1.885 1.883a.911.911 0 0 0 .9.241.806.806 0 0 0 .567-.614.938.938 0 0 1 .256-.478l.046-.046a1 1 0 0 1 .781-.278 1.452 1.452 0 0 1 1.317 1.317 1 1 0 0 1-.278.781l-.046.046a.939.939 0 0 1-.478.256.806.806 0 0 0-.614.567.91.91 0 0 0 .241.9l1.881 1.883a1.409 1.409 0 0 0 .992.42 1.206 1.206 0 0 0 .861-.348l1.589-1.589a2.418 2.418 0 0 0 .572.9l.052.052a2.144 2.144 0 0 0 3.019.142 2.144 2.144 0 0 0-.142-3.019Zm-.477 2.4a1.2 1.2 0 0 1-1.679-.142l-.052-.052a1.46 1.46 0 0 1-.358-.577.945.945 0 0 0-.674-.623.843.843 0 0 0-.8.217l-1.669 1.669a.272.272 0 0 1-.213.071.475.475 0 0 1-.3-.143l-1.8-1.8a1.887 1.887 0 0 0 .767-.464l.046-.046a1.935 1.935 0 0 0 .554-1.509 2.4 2.4 0 0 0-2.206-2.206 1.935 1.935 0 0 0-1.509.553l-.046.046a1.887 1.887 0 0 0-.464.767l-1.8-1.8a.475.475 0 0 1-.143-.3.272.272 0 0 1 .071-.213l1.669-1.669a.843.843 0 0 0 .217-.8.945.945 0 0 0-.623-.674 1.462 1.462 0 0 1-.577-.358l-.052-.052a1.2 1.2 0 0 1-.142-1.679 1.2 1.2 0 0 1 1.679.142l.052.052a1.461 1.461 0 0 1 .358.577.945.945 0 0 0 .674.623.843.843 0 0 0 .8-.217l1.669-1.669a.378.378 0 0 1 .512.071l1.841 1.845a.916.916 0 0 0 .874.248.808.808 0 0 0 .579-.57.934.934 0 0 1 .24-.415l.046-.046a1.2 1.2 0 0 1 1.679.142 1.2 1.2 0 0 1 .142 1.679l-.046.046a.933.933 0 0 1-.415.24.808.808 0 0 0-.57.579.917.917 0 0 0 .248.874l1.839 1.839a.475.475 0 0 1 .143.3.272.272 0 0 1-.071.213l-.761.761-.67.67-.238.238a.843.843 0 0 0-.217.8.945.945 0 0 0 .623.674 1.461 1.461 0 0 1 .577.358l.052.052a1.2 1.2 0 0 1 .146 1.679Z" data-name="Path 2045"/>
          </g>
        </g>
      </g>
      <g data-name="Group 651">
        <g data-name="Group 602">
          <g data-name="Group 601">
            <path fill="#9fadbf" d="M75.488 80.76a1.455 1.455 0 1 0 1.455 1.455 1.456 1.456 0 0 0-1.455-1.455Zm0 2.182a.727.727 0 1 1 .727-.727.728.728 0 0 1-.727.727Z" data-name="Path 2046"/>
          </g>
        </g>
        <g data-name="Group 604">
          <g data-name="Group 603">
            <path fill="#9fadbf" d="M56.574 92.763a1.455 1.455 0 1 0 1.455 1.455 1.456 1.456 0 0 0-1.455-1.455Zm0 2.182a.727.727 0 1 1 .727-.727.728.728 0 0 1-.727.727Z" data-name="Path 2047"/>
          </g>
        </g>
        <g data-name="Group 606">
          <g data-name="Group 605">
            <path fill="#9fadbf" d="m74.782 81.219-3.138-1.515a.364.364 0 0 0-.316.655l3.138 1.517a.364.364 0 0 0 .316-.655Z" data-name="Path 2048"/>
          </g>
        </g>
        <g data-name="Group 608">
          <g data-name="Group 607">
            <path fill="#9fadbf" d="M71.487 95.309a1.455 1.455 0 1 0 1.455 1.455 1.456 1.456 0 0 0-1.455-1.455Zm0 2.182a.727.727 0 1 1 .727-.727.728.728 0 0 1-.727.727Z" data-name="Path 2049"/>
          </g>
        </g>
        <g data-name="Group 610">
          <g data-name="Group 609">
            <path fill="#9fadbf" d="m70.781 95.769-3.138-1.515a.364.364 0 1 0-.316.655l3.138 1.515a.364.364 0 1 0 .316-.655Z" data-name="Path 2050"/>
          </g>
        </g>
        <g data-name="Group 612">
          <g data-name="Group 611">
            <path fill="#9fadbf" d="M66.031 86.216a1.455 1.455 0 1 0 1.455 1.455 1.456 1.456 0 0 0-1.455-1.455Zm0 2.182a.727.727 0 1 1 .727-.727.728.728 0 0 1-.727.727Z" data-name="Path 2051"/>
          </g>
        </g>
        <g data-name="Group 614">
          <g data-name="Group 613">
            <path fill="#9fadbf" d="m65.391 86.716-2.41-1.879a.364.364 0 1 0-.447.574l2.41 1.879a.364.364 0 1 0 .447-.574Z" data-name="Path 2052"/>
          </g>
        </g>
        <g data-name="Group 616">
          <g data-name="Group 615">
            <path fill="#9fadbf" d="M72.578 85.852a4 4 0 1 0 4 4 4.006 4.006 0 0 0-4-4Zm0 7.275a3.274 3.274 0 1 1 3.274-3.274 3.277 3.277 0 0 1-3.274 3.274Z" data-name="Path 2053"/>
          </g>
        </g>
        <g data-name="Group 618">
          <g data-name="Group 617">
            <path fill="#9fadbf" d="M72.578 87.307a1.455 1.455 0 1 0 1.455 1.455 1.456 1.456 0 0 0-1.455-1.455Zm0 2.182a.727.727 0 1 1 .728-.727.728.728 0 0 1-.728.727Z" data-name="Path 2054"/>
          </g>
        </g>
        <g data-name="Group 620">
          <g data-name="Group 619">
            <path fill="#9fadbf" d="M73.634 90.944h-2.11a1.114 1.114 0 0 0-1.127 1.1v.959a.364.364 0 0 0 .181.315 3.981 3.981 0 0 0 4 0 .363.363 0 0 0 .181-.315v-.959a1.114 1.114 0 0 0-1.125-1.1Zm.4 1.839a3.3 3.3 0 0 1-2.91 0v-.742a.386.386 0 0 1 .4-.37h2.11a.386.386 0 0 1 .4.37v.742Z" data-name="Path 2055"/>
          </g>
        </g>
        <g data-name="Group 622">
          <g data-name="Group 621">
            <path fill="#9fadbf" d="M63.848 90.217a4 4 0 1 0 4 4 4.006 4.006 0 0 0-4-4Zm0 7.275a3.274 3.274 0 1 1 3.274-3.274 3.277 3.277 0 0 1-3.274 3.274Z" data-name="Path 2056"/>
          </g>
        </g>
        <g data-name="Group 624">
          <g data-name="Group 623">
            <path fill="#9fadbf" d="M63.849 91.672a1.455 1.455 0 1 0 1.455 1.455 1.456 1.456 0 0 0-1.455-1.455Zm0 2.182a.727.727 0 1 1 .727-.727.728.728 0 0 1-.727.727Z" data-name="Path 2057"/>
          </g>
        </g>
        <g data-name="Group 626">
          <g data-name="Group 625">
            <path fill="#9fadbf" d="M64.904 95.309h-2.11a1.114 1.114 0 0 0-1.127 1.1v.959a.364.364 0 0 0 .181.315 3.981 3.981 0 0 0 4 0 .363.363 0 0 0 .182-.315v-.959a1.114 1.114 0 0 0-1.126-1.1Zm.4 1.839a3.3 3.3 0 0 1-2.91 0v-.742a.386.386 0 0 1 .4-.37h2.11a.386.386 0 0 1 .4.37v.742Z" data-name="Path 2058"/>
          </g>
        </g>
        <g data-name="Group 628">
          <g data-name="Group 627">
            <path fill="#9fadbf" d="M59.119 81.123a4 4 0 1 0 4 4 4.006 4.006 0 0 0-4-4Zm0 7.275a3.274 3.274 0 1 1 3.274-3.274 3.277 3.277 0 0 1-3.274 3.274Z" data-name="Path 2059"/>
          </g>
        </g>
        <g data-name="Group 630">
          <g data-name="Group 629">
            <path fill="#9fadbf" d="M59.12 82.578a1.455 1.455 0 1 0 1.455 1.455 1.456 1.456 0 0 0-1.455-1.455Zm0 2.182a.727.727 0 1 1 .727-.728.728.728 0 0 1-.727.728Z" data-name="Path 2060"/>
          </g>
        </g>
        <g data-name="Group 632">
          <g data-name="Group 631">
            <path fill="#9fadbf" d="M60.171 86.216h-2.11a1.114 1.114 0 0 0-1.127 1.1v.959a.364.364 0 0 0 .181.315 3.981 3.981 0 0 0 4 0 .363.363 0 0 0 .181-.315v-.959a1.114 1.114 0 0 0-1.125-1.1Zm.4 1.839a3.3 3.3 0 0 1-2.91 0v-.739a.386.386 0 0 1 .4-.37h2.11a.386.386 0 0 1 .4.37v.742Z" data-name="Path 2061"/>
          </g>
        </g>
        <g data-name="Group 634">
          <g data-name="Group 633">
            <path fill="#9fadbf" d="M67.848 76.395a4 4 0 1 0 4 4 4.006 4.006 0 0 0-4-4Zm0 7.275a3.274 3.274 0 1 1 3.275-3.275 3.277 3.277 0 0 1-3.275 3.275Z" data-name="Path 2062"/>
          </g>
        </g>
        <g data-name="Group 636">
          <g data-name="Group 635">
            <path fill="#9fadbf" d="M67.85 77.85a1.455 1.455 0 1 0 1.455 1.455 1.456 1.456 0 0 0-1.455-1.455Zm0 2.182a.727.727 0 1 1 .727-.727.728.728 0 0 1-.727.727Z" data-name="Path 2063"/>
          </g>
        </g>
        <g data-name="Group 638">
          <g data-name="Group 637">
            <path fill="#9fadbf" d="M68.9 81.487h-2.11a1.114 1.114 0 0 0-1.127 1.1v.959a.364.364 0 0 0 .182.315 3.981 3.981 0 0 0 4 0 .363.363 0 0 0 .181-.315v-.959a1.114 1.114 0 0 0-1.126-1.1Zm.4 1.839a3.3 3.3 0 0 1-2.91 0v-.742a.386.386 0 0 1 .4-.37h2.11a.386.386 0 0 1 .4.37v.742Z" data-name="Path 2064"/>
          </g>
        </g>
        <g data-name="Group 640">
          <g data-name="Group 639">
            <path fill="#9fadbf" d="M64.489 80.159a.364.364 0 0 0-.513-.04l-2.519 2.158a.364.364 0 1 0 .473.552l2.521-2.157a.364.364 0 0 0 .038-.513Z" data-name="Path 2065"/>
          </g>
        </g>
        <g data-name="Group 642">
          <g data-name="Group 641">
            <path fill="#9fadbf" d="m72.505 85.998-2.182-2.91a.364.364 0 0 0-.582.436l2.182 2.91a.364.364 0 0 0 .582-.436Z" data-name="Path 2066"/>
          </g>
        </g>
        <g data-name="Group 644">
          <g data-name="Group 643">
            <path fill="#9fadbf" d="M69.52 91.055a.364.364 0 0 0-.509-.073l-2.032 1.524a.364.364 0 1 0 .436.582l2.032-1.524a.363.363 0 0 0 .073-.509Z" data-name="Path 2067"/>
          </g>
        </g>
        <g data-name="Group 646">
          <g data-name="Group 645">
            <path fill="#9fadbf" d="M60.211 93.854h-2.546a.364.364 0 0 0 0 .727h2.546a.364.364 0 0 0 0-.727Z" data-name="Path 2068"/>
          </g>
        </g>
        <g data-name="Group 648">
          <g data-name="Group 647">
            <path fill="#9fadbf" d="M59.12 76.395a1.455 1.455 0 1 0 1.455 1.455 1.456 1.456 0 0 0-1.455-1.455Zm0 2.182a.727.727 0 1 1 .727-.727.728.728 0 0 1-.727.727Z" data-name="Path 2069"/>
          </g>
        </g>
        <g data-name="Group 650">
          <g data-name="Group 649">
            <path fill="#9fadbf" d="M59.122 78.577a.364.364 0 0 0-.364.364v2.546a.364.364 0 0 0 .727 0v-2.546a.364.364 0 0 0-.363-.364Z" data-name="Path 2070"/>
          </g>
        </g>
      </g>
      <g data-name="Group 673">
        <path fill="#9fadbf" stroke="#9fadbf" stroke-width=".2" d="M60.061 157.049a.569.569 0 0 1-.4-.168.569.569 0 0 1-.168-.4.569.569 0 0 1 .168-.4l4.833-4.531.15-1.3-.077-.913a.6.6 0 0 1 0-.063.572.572 0 0 1 .167-.391l2.43-2.429a.569.569 0 0 1 .4-.168.567.567 0 0 1 .2.035.571.571 0 0 1 .374.49l.149 1.758 1.759.148a.574.574 0 0 1 .49.375.573.573 0 0 1-.133.6l-2.43 2.429a.408.408 0 0 1-.044.04h-.006l-.009.008-.01.007-.024.017-.009.005-.01.005-.033.019h-.02l-.034.014-.022.008-.033.01-.024.006-.03.006h-.097a.379.379 0 0 1-.049 0l-.913-.077-1.3.151-4.833 4.531a.57.57 0 0 1-.412.178Zm7.034-8.926-1.369 1.37.126 1.494 1.494.126 1.37-1.37-1.012-.084a.574.574 0 0 1-.523-.522l-.086-1.012Z" data-name="Path 1528"/>
        <path fill="#9fadbf" d="M61.755 156.03a1.771 1.771 0 1 1-2.288-1.02 1.771 1.771 0 0 1 2.288 1.02Z" data-name="Path 1531"/>
        <g fill="none" stroke-dasharray="28 17" stroke-linecap="round" data-name="Path 1530">
          <path d="M65.824 156.357a5.865 5.865 0 1 1-5.964-5.764 5.865 5.865 0 0 1 5.964 5.764Z"/>
          <path fill="#9fadbf" d="M65.824 156.357a5.865 5.865 0 1 1-5.964-5.764 4.799 4.799 0 0 1 .01 0H59.904l.005-.001h.027a6.007 6.007 0 0 1 .188.002h.014a.675.675 0 0 1 .006 0h.006l.073.004a.6.6 0 0 1-.052 1.199 4.67 4.67 0 0 0-4.875 4.74 4.67 4.67 0 0 0 4.743 4.584 4.67 4.67 0 0 0 4.585-4.744.6.6 0 0 1 1.2-.02Z"/>
        </g>
        <g fill="none" stroke-dasharray="48 18" stroke-linecap="round" data-name="Path 1533">
          <path d="M62.719 166.05a9.958 9.958 0 1 1 7.223-9.578 9.977 9.977 0 0 1-7.223 9.578Z"/>
          <path fill="#9fadbf" d="M69.943 156.472a9.974 9.974 0 0 1-2.99 7.114 9.924 9.924 0 0 1-4.234 2.464 9.977 9.977 0 0 1-2.746.388 10 10 0 0 1-7.207-3.08 9.927 9.927 0 0 1-2.377-4.144 9.953 9.953 0 0 1 1.795-8.972 9.923 9.923 0 0 1 5.04-3.357 9.978 9.978 0 0 1 2.727-.39h.076c.168.002.334.007.5.016h.007l.019.001h.007l.005.001h.002l.016.001h.01l.004.001h.011l.003.001h.011l.003.001H60.64l.004.001h.011l.007.001h.007l.003.001h.007a7.402 7.402 0 0 1 .015.002h.016l.009.001.007.001H60.734l.016.002h.008l.024.003h.009l.024.002c.06.005.118.01.178.017a.6.6 0 1 1-.124 1.194 8.73 8.73 0 0 0-3.315.296 8.686 8.686 0 0 0-4.62 3.195 8.832 8.832 0 0 0-1.734 5.229c0 .815.115 1.63.342 2.421a8.687 8.687 0 0 0 3.205 4.626 8.833 8.833 0 0 0 5.242 1.729 8.788 8.788 0 0 0 2.4-.342 8.688 8.688 0 0 0 4.62-3.196 8.831 8.831 0 0 0 1.734-5.228.6.6 0 0 1 1.2 0Z"/>
        </g>
      </g>
      <g data-name="Group 655">
        <g fill="#9fadbf" data-name="Group 654">
          <path d="M299.768 157.815a.112.112 0 0 1 .032.1l-.172 1a.757.757 0 0 0 1.1.8l.9-.472a.112.112 0 0 1 .1 0l.9.472a.757.757 0 0 0 1.1-.8l-.172-1a.112.112 0 0 1 .032-.1l.727-.708a.757.757 0 0 0-.419-1.291l-1-.146a.112.112 0 0 1-.084-.061l-.449-.91a.757.757 0 0 0-1.357 0l-.449.91a.112.112 0 0 1-.084.061l-1 .146a.757.757 0 0 0-.419 1.291Zm-.3-1.285a.108.108 0 0 1 .09-.076l1-.146a.756.756 0 0 0 .57-.414l.449-.91a.112.112 0 0 1 .2 0l.449.91a.757.757 0 0 0 .57.414l1 .146a.112.112 0 0 1 .062.191l-.726.708a.756.756 0 0 0-.218.67l.172 1a.112.112 0 0 1-.163.118l-.9-.472a.757.757 0 0 0-.7 0l-.9.472a.112.112 0 0 1-.163-.118l.172-1a.756.756 0 0 0-.218-.67l-.726-.708a.108.108 0 0 1-.028-.115Z" data-name="Path 2073"/>
          <path d="M304.469 158.585a.322.322 0 0 0 .154.429l.738.347a.322.322 0 0 0 .274-.583l-.738-.347a.322.322 0 0 0-.428.154Z" data-name="Path 2074"/>
          <path d="M305.282 157.745h.738a.323.323 0 1 0 0-.645h-.738a.323.323 0 1 0 0 .645Z" data-name="Path 2075"/>
          <path d="M297.563 159.211a.322.322 0 0 0 .429.154l.738-.347a.322.322 0 1 0-.274-.583l-.738.347a.322.322 0 0 0-.154.429Z" data-name="Path 2076"/>
          <path d="M297.333 157.745h.738a.323.323 0 0 0 0-.645h-.738a.323.323 0 0 0 0 .645Z" data-name="Path 2077"/>
        </g>
        <g data-name="Group 672">
          <g data-name="Group 659">
            <g data-name="Group 658">
              <path fill="#9fadbf" d="M309.822 168.568a6.422 6.422 0 0 0-2.258-.387.329.329 0 1 0 0 .658 5.683 5.683 0 0 1 1.964.317.33.33 0 0 0 .294-.589Z" data-name="Path 2084"/>
            </g>
          </g>
          <g data-name="Group 661">
            <g data-name="Group 660">
              <path fill="#9fadbf" d="m311.463 173.092-1.363-.388a.138.138 0 0 1-.1-.132v-.456a2.473 2.473 0 0 0 .315-.258 2.421 2.421 0 0 0 .741-1.752v-.626l.131-.263a2.1 2.1 0 0 0 .22-.934v-1.7a.329.329 0 0 0-.329-.329h-3.163a2.091 2.091 0 0 0-2.089 2.089v.02a1.746 1.746 0 0 0 .183.777l.169.337v.539a2.568 2.568 0 0 0 1.056 2.076v.475c0 .073 0 .1-.272.181l-.663.189-1.919-.7a.329.329 0 0 0-.09-.252l-.613-.644v-1.074c.065-.053.129-.108.191-.166a3.863 3.863 0 0 0 1.217-2.808v-.863a3.8 3.8 0 0 0 .352-1.6v-3.514a.329.329 0 0 0-.329-.329h-4.926a3.148 3.148 0 0 0-3.144 3.139v.7a3.8 3.8 0 0 0 .352 1.6v.743a4.021 4.021 0 0 0 1.41 3.073v1.107l-.613.644a.329.329 0 0 0-.09.252l-2.025.736a1.726 1.726 0 0 0-.407.213l-.318-.159a2.514 2.514 0 0 0 1.259-1.019.329.329 0 0 0 0-.294 5.847 5.847 0 0 1-.289-2.043c-.008-.233-.015-.452-.029-.648a2.863 2.863 0 0 0-2.788-2.771 2.863 2.863 0 0 0-2.8 2.769c-.014.2-.021.416-.029.648a5.847 5.847 0 0 1-.284 2.039.329.329 0 0 0 0 .294 2.513 2.513 0 0 0 1.262 1.02l-.883.442a1.378 1.378 0 0 0-.766 1.244v1.966a.329.329 0 1 0 .658 0v-1.966a.723.723 0 0 1 .4-.65l1.1-.55.383.364a1.384 1.384 0 0 0 1.908 0l.383-.364.359.179a1.733 1.733 0 0 0-.265.919v2.068a.329.329 0 0 0 .658 0v-2.066a1.082 1.082 0 0 1 .71-1.014l2.135-.776.889 1.333a.679.679 0 0 0 .5.3h.068a.678.678 0 0 0 .481-.2l.542-.542v2.963a.329.329 0 1 0 .658 0v-2.964l.542.542a.678.678 0 0 0 .481.2h.068a.678.678 0 0 0 .5-.3l.889-1.333 2.135.776a1.082 1.082 0 0 1 .71 1.014v2.068a.329.329 0 1 0 .658 0v-2.067a1.74 1.74 0 0 0-.487-1.2l.081-.023a1.806 1.806 0 0 0 .306-.111l.84.84v2.566a.329.329 0 1 0 .658 0v-2.572l.834-.834a.784.784 0 0 0 .14.056l1.359.388a.73.73 0 0 1 .527.7v2.257a.329.329 0 1 0 .658 0v-2.259a1.391 1.391 0 0 0-1.003-1.332Zm-19.352-.581a2.366 2.366 0 0 1-1.056-.678 3.628 3.628 0 0 0 .188-.788 2.454 2.454 0 0 0 .868 1.071Zm1.889.89a.726.726 0 0 1-1 0l-.306-.291a.681.681 0 0 0 .08-.321v-.351a2.447 2.447 0 0 0 1.453 0v.351a.681.681 0 0 0 .08.322Zm-.5-1.511a1.784 1.784 0 0 1-1.782-1.782.327.327 0 0 0-.383-.324v-.085c.007-.226.014-.44.027-.623a2.443 2.443 0 0 1 .665-1.534 2.045 2.045 0 0 1 2.939 0 2.443 2.443 0 0 1 .665 1.534c.013.183.02.4.028.623v.059a2.957 2.957 0 0 0-1.626-1.188 4.13 4.13 0 0 0-1.252-.2.329.329 0 0 0-.228.1l-.594.616a.33.33 0 1 0 .474.457l.494-.512a2.662 2.662 0 0 1 2.327 1.352 1.778 1.778 0 0 1-1.754 1.508Zm1.385.621v-.395a2.434 2.434 0 0 0 .865-1.07 3.623 3.623 0 0 0 .187.786 2.377 2.377 0 0 1-1.056.684Zm3.167-5.339v-.816a.329.329 0 0 0-.033-.143 3.157 3.157 0 0 1-.319-1.383v-.7a2.489 2.489 0 0 1 2.486-2.486h4.6v3.19a3.157 3.157 0 0 1-.326 1.382.329.329 0 0 0-.033.143v.937a3.16 3.16 0 0 1-1.009 2.328 3.274 3.274 0 0 1-.253.214h-.006a3.164 3.164 0 0 1-2.136.637 3.26 3.26 0 0 1-2.975-3.302Zm1.848 6.623a.021.021 0 0 1-.018.007.021.021 0 0 1-.017-.01l-1.023-1.536.329-.346 1.553 1.061Zm1.337-1.27-1.782-1.218v-.614a3.706 3.706 0 0 0 1.527.441q.13.008.259.008a3.812 3.812 0 0 0 1.779-.436v.6Zm1.372 1.267a.021.021 0 0 1-.017.01.02.02 0 0 1-.018-.007l-.824-.824 1.55-1.061.329.346Zm6.01-.278-.747-.747a.9.9 0 0 0 .02-.2v-.139a2.308 2.308 0 0 0 .652.115h.076a2.445 2.445 0 0 0 .726-.11v.133a.787.787 0 0 0 .024.192Zm1.241-2.126a1.769 1.769 0 0 1-1.3.5 1.842 1.842 0 0 1-1.727-1.87v-.615a.329.329 0 0 0-.035-.147l-.2-.407a1.084 1.084 0 0 1-.114-.482v-.02a1.432 1.432 0 0 1 1.431-1.431h2.838v1.367a1.438 1.438 0 0 1-.151.64l-.166.332a.329.329 0 0 0-.035.147v.7a1.768 1.768 0 0 1-.541 1.285Z" data-name="Path 2085"/>
            </g>
          </g>
          <g data-name="Group 663">
            <g data-name="Group 662">
              <path fill="#9fadbf" d="M310.73 174.187a.329.329 0 0 0-.329.329v2.111a.329.329 0 1 0 .658 0v-2.111a.329.329 0 0 0-.329-.329Z" data-name="Path 2086"/>
            </g>
          </g>
          <g data-name="Group 665">
            <g data-name="Group 664">
              <path fill="#9fadbf" d="M291.737 174.737a.329.329 0 0 0-.329.329v1.676a.329.329 0 1 0 .658 0v-1.676a.329.329 0 0 0-.329-.329Z" data-name="Path 2087"/>
            </g>
          </g>
          <g data-name="Group 667">
            <g data-name="Group 666">
              <path fill="#9fadbf" d="M303.933 165.111c-1.245-1.245-3.849-1.007-4.911-.847a.676.676 0 0 0-.577.673v.758a.329.329 0 0 0 .658 0v-.758a.022.022 0 0 1 .017-.022 10.4 10.4 0 0 1 2.138-.1 3.4 3.4 0 0 1 2.209.766.329.329 0 1 0 .465-.465Z" data-name="Path 2088"/>
            </g>
          </g>
          <g data-name="Group 669">
            <g data-name="Group 668">
              <path fill="#9fadbf" d="M297.367 174.957a.329.329 0 0 0-.329.329v1.408a.329.329 0 1 0 .658 0v-1.408a.329.329 0 0 0-.329-.329Z" data-name="Path 2089"/>
            </g>
          </g>
          <g data-name="Group 671">
            <g data-name="Group 670">
              <path fill="#9fadbf" d="M305.108 174.957a.329.329 0 0 0-.329.329v1.408a.329.329 0 1 0 .658 0v-1.408a.329.329 0 0 0-.329-.329Z" data-name="Path 2090"/>
            </g>
          </g>
        </g>
      </g>
      <g data-name="Group 656">
        <path fill="#9fadbf" d="m313.045 90.937-4.209-5.468a.493.493 0 0 0-.655-.115l-2.718 1.728h-3.544a.488.488 0 0 0-.136.023l-2.748.791-2.851-.78-2.771-1.763a.493.493 0 0 0-.648.106l-4.656 5.768a.493.493 0 0 0 .062.683l2.44 2.1 2.189 2.95a1.741 1.741 0 0 0 1.1 2.925 1.753 1.753 0 0 0-.02.266 1.743 1.743 0 0 0 1.743 1.743h.019v.036a1.742 1.742 0 0 0 1.743 1.743 1.776 1.776 0 0 0 .272-.021 1.743 1.743 0 0 0 2.966 1.061l.267-.266.112.09a1.742 1.742 0 0 0 2.953-1.28 1.74 1.74 0 0 0 1.769-1.768 1.741 1.741 0 0 0 1.769-1.77 1.742 1.742 0 0 0 1.489-2.691l1.6-3.348 2.4-2.068a.493.493 0 0 0 .063-.675Zm-19.79-4.514 1.992 1.267-4.334 5.28-1.737-1.495Zm.281 11.195.6-.6a.703.703 0 0 1 .057-.052.755.755 0 0 1 .411-.167h.078a.752.752 0 0 1 .54.237.775.775 0 0 1-.033 1.073l-.583.583a.757.757 0 0 1-1.07-1.07Zm1.547 3.069a.756.756 0 0 1 0-1.07l1.166-1.164a.764.764 0 0 1 .86-.149.754.754 0 0 1 .417.781.8.8 0 0 1-.225.456l-1.148 1.147a.756.756 0 0 1-1.07 0Zm1.761 1.778a.756.756 0 0 1 0-1.07l1.166-1.166a.765.765 0 0 1 .914-.12.753.753 0 0 1 .361.764.8.8 0 0 1-.224.444l-1.147 1.147a.756.756 0 0 1-1.07 0Zm2.005 1.55a.757.757 0 0 1 0-1.07l.6-.6a.691.691 0 0 1 .057-.051.753.753 0 0 1 .335-.156h.009c.021 0 .043-.007.064-.009h.079a.751.751 0 0 1 .54.237.687.687 0 0 1 .049.057.781.781 0 0 1-.085 1.018l-.58.58a.757.757 0 0 1-1.068-.007Zm9.2-5.5a.757.757 0 0 1-1.07 0 .317.317 0 0 0-.034-.03l-3.171-3.2a.493.493 0 0 0-.7.694l3.205 3.238a.757.757 0 1 1-1.07 1.07l-2.144-2.166a.493.493 0 1 0-.7.694l2.111 2.133a.467.467 0 0 0 .035.039.757.757 0 1 1-1.07 1.07l-1.17-1.182a.493.493 0 1 0-.7.694l1.138 1.149a.427.427 0 0 0 .035.039.757.757 0 1 1-1.07 1.07 1.087 1.087 0 0 0-.112-.089c-.032-.025-.041-.042-.025-.081s.041-.076.057-.116.033-.09.047-.136a1.778 1.778 0 0 0 .064-.759 1.725 1.725 0 0 0-1.47-1.484 1.759 1.759 0 0 0-.422-1.587 1.73 1.73 0 0 0-1.242-.545h-.052a1.726 1.726 0 0 0-1.708-1.778 1.773 1.773 0 0 0-.421.045 1.736 1.736 0 0 0-2.884-1.044l-1.906-2.565 4.56-5.556 1.453.4-1.9 3.349a1.743 1.743 0 0 0 .657 2.375l.077.041h.006a1.763 1.763 0 0 0 .209.088 1.743 1.743 0 0 0 2.083-.789l1.233-2.177 2.2.156 5.865 5.864a.758.758 0 0 1 .005 1.072Zm.2-2.26-5.5-5.5a.235.235 0 0 0-.033-.03.493.493 0 0 0-.281-.113l-2.7-.191a.5.5 0 0 0-.464.249l-1.381 2.441a.756.756 0 1 1-1.316-.746l1.851-3.267.75-.216.015-.005 2.8-.808h3.383l4.223 5.369Zm1.989-3.587-3.906-4.968 1.993-1.268 3.649 4.74Z" data-name="Path 2078"/>
      </g>
      <path fill="#9fadbf" d="M265.462 220.155a1.941 1.941 0 0 0-3.341-1.217l-2.221 2.327-3.692-3.692a3.473 3.473 0 0 0-2.015-.991v-1.046a4.451 4.451 0 0 0 .52.031 4.4 4.4 0 0 0 4.287-5.376.458.458 0 0 0-.346-.346 4.394 4.394 0 0 0-2.739.259 4.429 4.429 0 0 0 .122-1.032 4.384 4.384 0 0 0-2.054-3.724.458.458 0 0 0-.49 0 4.384 4.384 0 0 0-2.059 3.723 4.438 4.438 0 0 0 .122 1.032 4.394 4.394 0 0 0-2.739-.259.458.458 0 0 0-.346.346 4.4 4.4 0 0 0 4.285 5.376 4.458 4.458 0 0 0 .52-.031v1.048a3.472 3.472 0 0 0-2.005.989l-2.571 2.575a6.856 6.856 0 0 0-5.654 1.744l-.894.824a.458.458 0 0 0 .621.674l.894-.824a5.951 5.951 0 0 1 7.138-.7l.782.479a.459.459 0 0 0 .239.068h3.808a1.031 1.031 0 1 1 0 2.062h-4.011a.459.459 0 0 0 0 .917h4.441a2.73 2.73 0 0 0 1.966-.841l4.754-4.978a1.024 1.024 0 0 1 1.508 1.386l-4.392 4.965a5.645 5.645 0 0 1-4.225 1.9h-13.217a.459.459 0 0 0 0 .917h13.214a6.562 6.562 0 0 0 4.911-2.212l4.394-4.966a1.928 1.928 0 0 0 .485-1.407Zm-10.25-8.482a3.469 3.469 0 0 1 2.943-.988 3.486 3.486 0 0 1-3.314 3.962l1.6-1.6a.458.458 0 1 0-.648-.648l-1.6 1.6a3.462 3.462 0 0 1 .8-2.084l.038-.044q.085-.102.181-.198Zm-1.479-5.381a3.486 3.486 0 0 1 .458 5.144v-2.1a.459.459 0 0 0-.917 0v2.1a3.486 3.486 0 0 1 .458-5.144Zm-4.422 4.394a3.469 3.469 0 0 1 2.943.988q.1.1.182.2l.038.044a3.461 3.461 0 0 1 .8 2.085l-1.6-1.6a.458.458 0 0 0-.648.648l1.6 1.6a3.486 3.486 0 0 1-3.315-3.965Zm8.248 13.029a1.947 1.947 0 0 0-1.928-2.22h-3.679l-.672-.416a6.871 6.871 0 0 0-1.529-.694l2.166-2.166a2.577 2.577 0 0 1 3.64 0l3.707 3.707Z" data-name="Path 2083"/>
      <g data-name="Group 657">
        <path fill="#9fadbf" d="M140.685 120.814a3.5 3.5 0 0 0-2.291-3.292l-2.54-.866a22.52 22.52 0 0 0-2.444-1.324v-1.172a4.866 4.866 0 0 0 1.855-3.43 1.087 1.087 0 0 0 .854-1.09l.01-3.787c0-.948.917-3.016.154-3.577l-.939.124h-6.605a3.273 3.273 0 0 0-3.15 3.111 137.87 137.87 0 0 0-.022 1.732.394.394 0 1 0 .785 0c0-.1.016-1.642.029-1.759a2.445 2.445 0 0 1 2.358-2.239h4.146a10.389 10.389 0 0 0 2.653 0c.607-.226-.193 1.59-.193 1.59v1.017l-.01 1.889h-.439a.463.463 0 0 1-.444-.479v-.494a1.294 1.294 0 0 0-1.677-1.306 5.774 5.774 0 0 1-3.862 0 1.294 1.294 0 0 0-1.674 1.308v.494a.463.463 0 0 1-.444.479h-.439v-.5a.394.394 0 1 0-.785 0v2.4a1.087 1.087 0 0 0 .854 1.09 4.865 4.865 0 0 0 1.855 3.43v1.173a22.759 22.759 0 0 0-2.444 1.324l-2.539.866a3.5 3.5 0 0 0-2.291 3.292 9.059 9.059 0 0 1 0 .954c.7 2.106 5.481 4.993 9.84 4.924 4.4-.07 8.987-2.26 9.862-4.73.001-.14-.031-.794-.023-1.152Zm-14.346-.887.305-.328a1.169 1.169 0 0 0 .188-1.293l-.484-1.011 1.586-.84a7.587 7.587 0 0 0-.082 2.38 23.013 23.013 0 0 0 1.687 5.968c-1.218-1.321-2.846-3.264-3.256-4.61a.274.274 0 0 1 .06-.266Zm.01-11.338h.439a1.281 1.281 0 0 0 1.23-1.325v-.494a.5.5 0 0 1 .647-.5 6.509 6.509 0 0 0 4.353 0 .5.5 0 0 1 .645.5v.494a1.281 1.281 0 0 0 1.23 1.325h.439v1.056a.251.251 0 0 1-.241.259.623.623 0 0 0-.6.608 3.651 3.651 0 1 1-7.3 0 .624.624 0 0 0-.6-.608.251.251 0 0 1-.241-.259v-1.056Zm4.49 17.214c-.255-.551-.6-1.335-.943-2.245l.645-2.732h.6l.644 2.731a32.477 32.477 0 0 1-.946 2.246Zm-.512-7.558-1.034.931a.188.188 0 0 1-.255 0l-.415-.553a6.058 6.058 0 0 1 .153-2.263Zm-1.163 1.828a.917.917 0 0 0 .3-.05l.35.477-.4 1.675a20.969 20.969 0 0 1-.581-2.164.919.919 0 0 0 .332.065Zm2.086-.1h-.821l-.319-.428.776-.7.7.647Zm1.158-.844-.969-.884 1.473-1.866a6.062 6.062 0 0 1 .15 2.23l-.4.53a.188.188 0 0 1-.255 0Zm-1.569-4.084a4.148 4.148 0 0 0 1.782-.4v.8l-1.738 2.2-1.822-2.213v-.8a4.147 4.147 0 0 0 1.782.4Zm1.428 7.132-.4-1.681.357-.514a.9.9 0 0 0 .628 0 20.817 20.817 0 0 1-.581 2.194Zm-10.485-.408v-.874a2.668 2.668 0 0 1 1.744-2.565l2.093-.714c.021.053 0 0 .514 1.078a.277.277 0 0 1-.044.307l-.305.328a1.162 1.162 0 0 0-.252 1.128c.5 1.646 2.473 3.925 3.826 5.351a12.205 12.205 0 0 1-7.575-4.038Zm10.538 4.039a33.914 33.914 0 0 0 2.254-2.619c-.037.05 1.067-1.666 1.162-1.795a.445.445 0 0 0-.063-.594.374.374 0 0 0-.552.068s-1.013 1.595-1.15 1.778a28.137 28.137 0 0 1-1.83 2.161 22.971 22.971 0 0 0 1.686-5.984 7.57 7.57 0 0 0-.083-2.366l1.586.84-.484 1.011a1.169 1.169 0 0 0 .193 1.291l.305.328a.274.274 0 0 1 .06.266 4.389 4.389 0 0 1-.278.674.44.44 0 0 0 .159.573.379.379 0 0 0 .532-.171 5.257 5.257 0 0 0 .333-.813 1.162 1.162 0 0 0-.252-1.128l-.305-.328a.277.277 0 0 1-.044-.307c.511-1.068.493-1.026.514-1.078l2.094.714a2.668 2.668 0 0 1 1.744 2.565v.874a12.205 12.205 0 0 1-7.576 4.039Z" data-name="Path 2072"/>
      </g>
    </g>
  </g>
</svg>
