<svg xmlns="http://www.w3.org/2000/svg" xmlns:xlink="http://www.w3.org/1999/xlink" width="322.92" height="290.615" viewBox="0 0 322.92 290.615">
  <defs>
    <linearGradient id="linear-gradient" y1="0.5" x2="1" y2="0.5" gradientUnits="objectBoundingBox">
      <stop offset="0" stop-color="#0093aa"/>
      <stop offset="1" stop-color="#00bfdc"/>
    </linearGradient>
    <linearGradient id="linear-gradient-3" x1="0.523" y1="0.919" x2="0.549" y2="1.545" gradientUnits="objectBoundingBox">
      <stop offset="0" stop-color="#031a2f"/>
      <stop offset="1" stop-color="#00446f"/>
    </linearGradient>
    <linearGradient id="linear-gradient-4" x1="-0.362" y1="1.242" x2="0.83" y2="0.216" xlink:href="#linear-gradient-3"/>
    <linearGradient id="linear-gradient-5" x1="0.44" y1="0.051" x2="-2.795" y2="-4.481" xlink:href="#linear-gradient-3"/>
  </defs>
  <g id="ic_onboard1" transform="translate(-14.943 -410)">
    <ellipse id="Ellipse_201" data-name="Ellipse 201" cx="47.91" cy="5.844" rx="47.91" ry="5.844" transform="translate(242.043 688.927)" opacity="0.5" fill="url(#linear-gradient)" style="mix-blend-mode: multiply;isolation: isolate"/>
    <g id="Globe" transform="translate(44.657 456.207)">
      <rect id="Rectangle_1829" data-name="Rectangle 1829" width="5.254" height="201.981" transform="matrix(0.602, -0.798, 0.798, 0.602, 17.086, 33.656)" fill="#354c6b"/>
      <g id="Group_443" data-name="Group 443" transform="translate(23.358)">
        <path id="Path_1896" data-name="Path 1896" d="M1526.4,494.9a83.546,83.546,0,0,1-155.8,59.416,85.068,85.068,0,0,1-3.833-10.087,83.632,83.632,0,0,1-3.66-21q-.183-3.992.026-7.945A83.549,83.549,0,0,1,1526.4,494.9Z" transform="translate(-1363.021 -436)" fill="#899bb2"/>
        <g id="Group_442" data-name="Group 442" transform="translate(0.085 4.283)">
          <path id="Path_1897" data-name="Path 1897" d="M1479.619,492.119a83.38,83.38,0,0,1,3.742,24.205,11.163,11.163,0,0,1-8.77-4.223c-1.72-2.286-2.516-5.207-4.481-7.288s-6-2.676-7.314-.139c-1.982-2.52-1.891-6.048-3-9.054s-5-5.625-7.356-3.446c-1.74,1.618-1.075,4.59.378,6.467s3.535,3.256,4.715,5.318a7.7,7.7,0,0,1-1.51,9.27,18.169,18.169,0,0,0-2.8,2.434c-1.038,1.4-1.078,3.259-1.26,4.988a24.809,24.809,0,0,1-9.765,17.068c-1.894,1.4-4.013,2.551-5.625,4.274-6.256,6.686-2.1,17.9-5.511,26.4a12.953,12.953,0,0,0-6.785,9.211c-3.913-.293-5.71-5.25-5.093-9.114s2.662-7.508,2.6-11.423c-.1-6.068-5.227-11.71-3.674-17.577.705-2.662,2.639-5.778.765-7.789-2.01-2.153-5.465-.023-7.706,1.883-2.935,2.488-6.4,4.695-10.243,4.8s-7.956-2.619-8.184-6.455a21.268,21.268,0,0,1,.472-3.953c1.146-8.736-6.524-17.145-4.465-25.718a2.845,2.845,0,0,1,.768-1.518,4.806,4.806,0,0,1,1.942-.719c5.528-1.578,4.84-10.914,10.075-13.306a15.805,15.805,0,0,0,13.889,2.92c.1-2.3-.335-5.318-2.593-5.744-1.362-.256-2.69.668-4.075.611-3.188-.139-4.2-4.92-7.263-5.818-3.134-.913-5.6,2.645-6.919,5.622-2.292-.327-2.448-3.558-1.985-5.818.836-4.058,1.75-8.281,4.337-11.514s7.4-5.09,10.991-3.034c-.739,3.125,2.025,5.878,4.513,7.9,1.814,1.467,3.725,2.989,6.017,3.415s5.048-.657,5.659-2.906a7.634,7.634,0,0,1,1.072-10.269,12.64,12.64,0,0,1-2.2-12.916c1,2.2,4.735.569,5.1-1.823s-1.052-4.65-1.626-7a9.951,9.951,0,0,1-.276-2.827A83.45,83.45,0,0,1,1479.619,492.119Z" transform="translate(-1316.328 -437.506)" fill="#9fadbf"/>
          <path id="Path_1898" data-name="Path 1898" d="M1479.619,492.119a83.38,83.38,0,0,1,3.742,24.205,11.163,11.163,0,0,1-8.77-4.223c-1.72-2.286-2.516-5.207-4.481-7.288s-6-2.676-7.314-.139c-1.982-2.52-1.891-6.048-3-9.054s-5-5.625-7.356-3.446c-1.74,1.618-1.075,4.59.378,6.467s3.535,3.256,4.715,5.318a7.7,7.7,0,0,1-1.51,9.27,18.169,18.169,0,0,0-2.8,2.434c-1.038,1.4-1.078,3.259-1.26,4.988a24.809,24.809,0,0,1-9.765,17.068c-1.894,1.4-4.013,2.551-5.625,4.274-6.256,6.686-2.1,17.9-5.511,26.4a12.953,12.953,0,0,0-6.785,9.211c-3.913-.293-5.71-5.25-5.093-9.114s2.662-7.508,2.6-11.423c-.1-6.068-5.227-11.71-3.674-17.577.705-2.662,2.639-5.778.765-7.789-2.01-2.153-5.465-.023-7.706,1.883-2.935,2.488-6.4,4.695-10.243,4.8s-7.956-2.619-8.184-6.455a21.268,21.268,0,0,1,.472-3.953c1.146-8.736-6.524-17.145-4.465-25.718a2.845,2.845,0,0,1,.768-1.518,4.806,4.806,0,0,1,1.942-.719c5.528-1.578,4.84-10.914,10.075-13.306a15.805,15.805,0,0,0,13.889,2.92c.1-2.3-.335-5.318-2.593-5.744-1.362-.256-2.69.668-4.075.611-3.188-.139-4.2-4.92-7.263-5.818-3.134-.913-5.6,2.645-6.919,5.622-2.292-.327-2.448-3.558-1.985-5.818.836-4.058,1.75-8.281,4.337-11.514s7.4-5.09,10.991-3.034c-.739,3.125,2.025,5.878,4.513,7.9,1.814,1.467,3.725,2.989,6.017,3.415s5.048-.657,5.659-2.906a7.634,7.634,0,0,1,1.072-10.269,12.64,12.64,0,0,1-2.2-12.916c1,2.2,4.735.569,5.1-1.823s-1.052-4.65-1.626-7a9.951,9.951,0,0,1-.276-2.827A83.45,83.45,0,0,1,1479.619,492.119Z" transform="translate(-1316.328 -437.506)" fill="#9fadbf"/>
          <path id="Path_1899" data-name="Path 1899" d="M1423.448,456.727c3.063,3.842-2.363,8.867-2.841,13.758-.2,2.076.543,4.166.279,6.236-.654,5.045-6.506,7.351-11.426,8.645a40.824,40.824,0,0,0-2.966-11.594,4.364,4.364,0,1,1-8.142-1.769c-3.35-1.251-6.572,2.1-8.281,5.247-1.06,1.942-2,4.1-1.732,6.293s2.2,4.317,4.391,4.03a12.77,12.77,0,0,1-7.915,13.94c-1.589.583-3.316.845-4.737,1.755a6.293,6.293,0,0,0-.663,9.643c1.132.956,2.662,1.561,3.3,2.892.688,1.425.088,3.1-.043,4.681-.381,4.658,3.64,8.693,8.056,10.215s9.222,1.211,13.892,1.416a4.853,4.853,0,0,1,2.337.509c1.137.685,1.55,2.11,1.869,3.4q1.228,4.982,2.453,9.964c6.293-1.9,14.54-3.168,18.189,2.3,3.048,4.561.964,11.7,5.076,15.328,1.49,1.314,3.492,1.834,5.224,2.8s3.324,2.778,2.918,4.718c-.657,3.128-6,5.315-4.1,7.888a3.979,3.979,0,0,0,1.809,1.146c5.3,2.1,11.179,4.925,12.777,10.391q-7.8-1.762-15.612-3.529c-4.965-1.126-10.1-2.326-14.133-5.446s-6.595-8.736-4.615-13.422a14.832,14.832,0,0,1-17.227-6c-1.589-2.6-2.551-5.909-5.281-7.254-1.956-.964-4.293-.614-6.423-1.115a8.382,8.382,0,0,1-6.086-9.316q-6.36.009-12.714.023c-.182,0-.361.006-.543,0a85.093,85.093,0,0,1-3.833-10.087,83.627,83.627,0,0,1-3.66-21c.728-2.7,1.032-5.36.025-7.945a83.633,83.633,0,0,1,10.937-37.2c.011,2.5-.682,5.247-.2,5.7a2.943,2.943,0,0,0,4.254-.415q1.471,1.907,2.94,3.816c.7-1.18,1.4-2.369,2.1-3.549.674,1.845,3.569-.256,3.344-2.21s-1.484-4.052-.441-5.719c1.777-2.829,6.805.213,9.382-1.922,2.71-2.247-.455-6.768.64-10.112.594-1.792,2.317-2.923,3.93-3.913l8.9-5.463c3.381-2.079,7.51-4.22,11.122-2.562,1.928,3.6-2.167,8.562.21,11.881C1421.042,454.993,1422.536,455.581,1423.448,456.727Z" transform="translate(-1363.051 -430.463)" fill="#9fadbf"/>
          <path id="Path_1900" data-name="Path 1900" d="M1372.73,468.6a1.293,1.293,0,0,0-.782.532,1.21,1.21,0,0,0-.02.739c.233,1.271.56,2.69,1.658,3.373.441.279,1.018.452,1.209.936a2.2,2.2,0,0,1-.094,1.22c-.492,2.44,1.931,4.391,4.052,5.7a2.9,2.9,0,0,0,2.608.6,33.571,33.571,0,0,0-3.824-6.273c.975.139,1.726-.833,2.144-1.726s.847-1.942,1.789-2.238c.369-.117.808-.108,1.081-.384a1.324,1.324,0,0,0,.285-.788c.307-2.514.936-7.86-2.761-7.459C1377.371,463.119,1375.5,467.541,1372.73,468.6Z" transform="translate(-1346.773 -390.863)" fill="#9fadbf"/>
          <path id="Path_1901" data-name="Path 1901" d="M1386.5,474.445a34.136,34.136,0,0,1,.568,3.964,15.422,15.422,0,0,0,4.365,8.631c.41.4,1.021.81,1.51.509.449-.276.424-.924.347-1.442q-.581-3.864-1.158-7.724c1.354-.179,2.016-1.9,1.644-3.213a8.679,8.679,0,0,0-2.346-3.3,5.441,5.441,0,0,1-1.828-3.549c2.434-1.061,2.881-4.26,2.974-6.913.2-5.437-5.522-2.528-6.757.572C1384.1,466.3,1385.372,470.3,1386.5,474.445Z" transform="translate(-1322.62 -399.053)" fill="#9fadbf"/>
          <path id="Path_1902" data-name="Path 1902" d="M1398.043,448.566c.853.8.552,2.181.25,3.307s-.4,2.6.612,3.182a.831.831,0,0,0,.594.117,1.2,1.2,0,0,0,.575-.424,13.16,13.16,0,0,0,3.29-5.073c.532-1.965-.108-4.408-1.951-5.267a5.877,5.877,0,0,0-2.6-.39,1.965,1.965,0,0,0-1.055.23c-1.274.847.5,2.909-.071,4.328" transform="translate(-1299.936 -425.504)" fill="#9fadbf"/>
          <path id="Path_1903" data-name="Path 1903" d="M1401.016,450.1a9.6,9.6,0,0,1-4.573-4.925,2.946,2.946,0,0,1-.262-1.78c.279-1.143,1.581-1.681,2.739-1.9s2.448-.367,3.219-1.254c.76-.87,1.166-2.471,2.309-2.309a1.533,1.533,0,0,1,1.112,1.177,3.314,3.314,0,0,1-3.079,4.061,2.321,2.321,0,0,0-1.462.179c-.5.373-.435,1.126-.307,1.735a38.341,38.341,0,0,0,1.285,4.655l-2,.643a1.7,1.7,0,0,1,.02-1.1" transform="translate(-1302.066 -436.745)" fill="#9fadbf"/>
        </g>
      </g>
      <path id="Path_1904" data-name="Path 1904" d="M1478.465,526.835h-104.8a136.126,136.126,0,0,1,10.971-8.446c1.741-1.2,3.646-2.443,5.633-3.643,7.658-4.763,16.891-9.234,26.085-10.849a13.176,13.176,0,0,1,15.526.455l.372.29c9.151,2.07,18.84,6.376,26.953,10.641,1.41.705,2.733,1.45,4.018,2.153C1471.964,522.322,1478.093,526.587,1478.465,526.835Z" transform="translate(-1320.032 -315.076)" fill="#ffc32e"/>
      <path id="Path_1905" data-name="Path 1905" d="M1478.465,518.3h-104.8a136.124,136.124,0,0,1,10.971-8.446c1.741-1.2,3.646-2.443,5.633-3.643a52.946,52.946,0,0,0,32.128,8.736c14.079-.788,27.41-4.721,36.809-8.2,1.41.705,2.733,1.45,4.018,2.153C1471.964,513.791,1478.093,518.056,1478.465,518.3Z" transform="translate(-1320.032 -306.545)" fill="#efa200"/>
      <path id="Path_1906" data-name="Path 1906" d="M1354.829,508.1a106.846,106.846,0,0,0,188.273,67.1,7.1,7.1,0,0,0,1.712-4.746,7,7,0,0,0-12.282-4.43,92.687,92.687,0,0,1-72.722,32.839c-47.242-.936-86.747-37.966-90.663-85.061a92.456,92.456,0,0,1,15.473-59.6,6.84,6.84,0,0,0,1.18-3.967,6.948,6.948,0,0,0-2.5-5.2c-.108-.1-.2-.171-.3-.256a7.028,7.028,0,0,0-10.072,1.74A106.234,106.234,0,0,0,1354.829,508.1Z" transform="translate(-1354.807 -422.411)" fill="#354c6b"/>
    </g>
    <g id="Books" transform="translate(86.848 522.221)">
      <g id="Group_310" data-name="Group 310" transform="translate(0 113.174)">
        <path id="Path_1799" data-name="Path 1799" d="M1549.035,588.239l5.583,9.5H1353.112a8.722,8.722,0,0,1-8.879-8.558V572.726a8.722,8.722,0,0,1,8.879-8.558h201.506l-5.583,9.5Z" transform="translate(-1344.233 -564.168)" fill="#2a5568"/>
        <path id="Path_1800" data-name="Path 1800" d="M1481.48,588.239l5.582,9.505h-81.85a47.628,47.628,0,0,1-3.19-16.1c0-8.394,3.19-17.48,3.19-17.48h81.85l-5.582,9.505Z" transform="translate(-1276.678 -564.168)" fill="#21485a"/>
        <rect id="Rectangle_1819" data-name="Rectangle 1819" width="66.647" height="14.56" transform="translate(138.149 9.505)" fill="#f3f7f6"/>
      </g>
      <g id="Group_311" data-name="Group 311" transform="translate(0 41.298)">
        <path id="Path_1801" data-name="Path 1801" d="M1349.15,551.261l-4.917,8.371h177.46a7.681,7.681,0,0,0,7.819-7.536V537.6a7.681,7.681,0,0,0-7.819-7.536h-177.46l4.917,8.371Z" transform="translate(-1344.233 -530.062)" fill="#29405d"/>
        <path id="Path_1802" data-name="Path 1802" d="M1349.149,551.261l-4.916,8.371h72.083a89.9,89.9,0,0,0,1.731-15.676,60.7,60.7,0,0,0-1.731-13.894h-72.083l4.916,8.372Z" transform="translate(-1344.233 -530.062)" fill="#20334b"/>
        <rect id="Rectangle_1820" data-name="Rectangle 1820" width="58.694" height="12.822" transform="translate(63.615 21.194) rotate(180)" fill="#d1e2ea"/>
      </g>
      <g id="Group_312" data-name="Group 312" transform="translate(10.112 70.867)">
        <path id="Path_1803" data-name="Path 1803" d="M1354.281,577.462l-5.25,8.938h189.483a8.2,8.2,0,0,0,8.349-8.048v-26.21a8.2,8.2,0,0,0-8.349-8.048H1349.031l5.25,8.94Z" transform="translate(-1349.031 -544.093)" fill="#485d7a"/>
        <path id="Path_1804" data-name="Path 1804" d="M1354.28,577.461l-5.249,8.938h132.64s3.2-11.437,3.2-22.013a73.44,73.44,0,0,0-3.2-20.293h-132.64l5.249,8.939Z" transform="translate(-1349.03 -544.093)" fill="#3f5470"/>
        <rect id="Rectangle_1821" data-name="Rectangle 1821" width="118.344" height="24.424" transform="translate(123.599 33.363) rotate(180)" fill="#f3f7f6"/>
      </g>
      <g id="Group_315" data-name="Group 315" transform="translate(16.39)">
        <g id="Group_314" data-name="Group 314">
          <g id="Group_313" data-name="Group 313">
            <path id="Path_1806" data-name="Path 1806" d="M1532.372,518.839l4.915-8.373H1359.829A7.682,7.682,0,0,0,1352.01,518v26.223a7.681,7.681,0,0,0,7.819,7.536h177.458l-4.915-8.371Z" transform="translate(-1352.01 -510.466)" fill="#354c6b"/>
            <path id="Rectangle_1822" data-name="Rectangle 1822" d="M1.618,0H172.246a0,0,0,0,1,0,0V24.549a0,0,0,0,1,0,0H1.618A1.618,1.618,0,0,1,0,22.931V1.618A1.618,1.618,0,0,1,1.618,0Z" transform="translate(8.11 8.377)" fill="#f3f7f6"/>
          </g>
          <rect id="Rectangle_1823" data-name="Rectangle 1823" width="112.611" height="24.549" transform="translate(67.745 8.377)" fill="#e1e8e6"/>
        </g>
      </g>
    </g>
    <g id="person_man_1" data-name="person man 1" transform="translate(14.943 553.09)">
      <ellipse id="Ellipse_200" data-name="Ellipse 200" cx="86.634" cy="9.83" rx="86.634" ry="9.83" transform="translate(0 111.88)" opacity="0.5" fill="url(#linear-gradient)" style="mix-blend-mode: multiply;isolation: isolate"/>
      <g id="Group_347" data-name="Group 347" transform="translate(18.701)">
        <g id="Group_339" data-name="Group 339" transform="translate(0 106.769)">
          <path id="Path_1819" data-name="Path 1819" d="M1485.422,372.059,1467.876,379l-10.767-21.5,13.778,11.3,10.6-4.51Z" transform="translate(-1456.985 -357.144)" fill="#ffb8b8"/>
          <path id="Path_1820" data-name="Path 1820" d="M1472.841,377.1l-1.953-8.313s-12.675-14.012-13.779-11.3,5.449,17.863,7.472,20.7S1472.841,377.1,1472.841,377.1Z" transform="translate(-1456.984 -357.143)" fill="#266fa8"/>
        </g>
        <g id="Group_344" data-name="Group 344" transform="translate(14.663 125.053)">
          <path id="Path_1833" data-name="Path 1833" d="M1500.964,378.132l-12.548,12.15-19.184-14.77,17.053,5.162,8.068-8.224Z" transform="translate(-1469.233 -372.45)" fill="#ffb8b8"/>
          <path id="Path_1834" data-name="Path 1834" d="M1491.272,387.1l-4.986-6.933s-17.072-8.095-17.053-5.162,9.165,12.874,14.675,15.9S1491.272,387.1,1491.272,387.1Z" transform="translate(-1469.233 -371.939)" fill="#266fa8"/>
        </g>
        <path id="Path_1818" data-name="Path 1818" d="M1542.568,287.2l2.679,13.086a10.818,10.818,0,0,0,10.375-2.122l-2.678-13.088Z" transform="translate(-1439.965 -264.798)" fill="#e5a5a5"/>
        <path id="Path_1823" data-name="Path 1823" d="M1563.076,349.417s-44.1-8.636-49.766-6.366c-4.5,1.8-38.567,23.772-38.567,23.772l5.392,10.152s35.976-12.57,41.042-16.263c0,0,45.635,4.8,53.78-5.906Z" transform="translate(-1453.473 -253.328)" fill="#f3f8ff"/>
        <path id="Path_1824" data-name="Path 1824" d="M1538.36,298.5s-7.158,3.852-7.726,4.987-4.829,19.787-4.829,19.787h15.433l-1.705-21.491Z" transform="translate(-1443.304 -262.124)" fill="#266fa8"/>
        <path id="Path_1825" data-name="Path 1825" d="M1532.94,344l4.7-44.113,5.232-1.976.959-4.113c2.272,0,15.527-2.274,15.527-2.274l2.177,5.714c4.629.612,11.834,1.776,13.351,3.25l-2.988,42c.867,2.921,2.569,8.721,2.988,10.675.567,2.651-4.205,6.438-4.205,6.438s-28.681.108-38.054-1.789a5.766,5.766,0,0,1-3.091-3.7C1528.913,352.049,1531.482,346.758,1532.94,344Z" transform="translate(-1442.58 -263.513)" fill="#266fa8"/>
        <path id="Path_1894" data-name="Path 1894" d="M4.291,14.264A38.051,38.051,0,0,1,16.674-1.129s-1.651,5.853-1.651,16.458,4.31,18.408,6.16,25.23-.315,6.411-3.989,8.093S6.437,47.577,6.437,47.577-.54,24.82,4.291,14.264Z" transform="translate(110.824 47.481)" fill="#275b83"/>
        <path id="Path_1895" data-name="Path 1895" d="M14.169,18.229A88.828,88.828,0,0,1,7.787-1.129s-.527,6.594-.527,17.2,4.771,5.752,2.921,12.573.315,6.411,3.989,8.093,10.757-1.075,10.757-1.075A80.671,80.671,0,0,1,14.169,18.229Z" transform="translate(79.919 42.499)" fill="#275b83"/>
        <path id="Path_1828" data-name="Path 1828" d="M1571.688,299s4.544,3.346,5.87,6.943.757,18.178,0,25.562c0,0,2.536,8.521.8,13.445s-29.1,8.953-29.1,8.953l-3.773-17.474,22.006-2.083Z" transform="translate(-1439.386 -262.025)" fill="#266fa8"/>
        <g id="Group_343" data-name="Group 343" transform="translate(58.949 55.747)">
          <path id="Path_1829" data-name="Path 1829" d="M1509.574,343.953h42.074l-3.411-29.3h-42.074Z" transform="translate(-1506.164 -314.654)" fill="#f3f8ff"/>
          <path id="Path_1830" data-name="Path 1830" d="M1526.16,324.5a3.526,3.526,0,1,0,2.575,3.506A3.694,3.694,0,0,0,1526.16,324.5Z" transform="translate(-1503.073 -312.722)" fill="#d0cde1"/>
          <path id="Path_1831" data-name="Path 1831" d="M1544.259,325.59c.719-.41,1.643,1.618,2.692,2.647s1.5,1.468,1.5,1.468l3.12,1.538v6.663a15.5,15.5,0,0,1-6.009,1.284c-3.409.028-6.822-.2-9.135-3.207s-2.749-7.191-1.567-8.09,4.284-.169,4.284-.169l5.551,1.639S1543.54,326,1544.259,325.59Z" transform="translate(-1500.659 -312.476)" fill="#ffb8b8"/>
        </g>
        <path id="Path_1837" data-name="Path 1837" d="M1571.191,372.677c13-5.212,6.336-23.3,6.336-23.3-11.316-1.744-51.164-7.431-58.579-2.449-4.885,3.283-30.926,32.248-30.926,32.248l8.327,9.234c11.982-12.041,30.106-26.441,30.106-26.441s13.247,4.153,24.385,7.974C1558.3,372.506,1564.6,374.217,1571.191,372.677Z" transform="translate(-1450.828 -252.878)" fill="#f3f8ff"/>
        <path id="Path_1838" data-name="Path 1838" d="M1532.8,276.854s-1.859,3.49-.824,5.058,5.894,5.86,5.894,5.86l.27-9.05Z" transform="translate(-1442.137 -266.436)" fill="#f3f8ff"/>
        <path id="Path_1839" data-name="Path 1839" d="M1534.162,279.517s2.479,16.569,11.851,19.822c0,0,15.352-2.569,5.369-24.268Z" transform="translate(-1441.639 -266.791)" fill="#ffb8b8"/>
        <path id="Path_1840" data-name="Path 1840" d="M1549.7,280.646s.313-3.751,2.232-3.317,2.977,7.507-.455,9.235Z" transform="translate(-1438.545 -266.348)" fill="#ffb8b8"/>
        <path id="Path_1841" data-name="Path 1841" d="M1556.973,280.469a12.764,12.764,0,0,0-2.474-7.771,7.675,7.675,0,0,0-7.318-2.939,23.75,23.75,0,0,0-3.83,1.524,5.229,5.229,0,0,1-4.009.266c-1.259-.556-2.047-2.265-1.245-3.384a9.537,9.537,0,0,0-3.224,5.034q-.631-1.709-1.265-3.419a7.614,7.614,0,1,0,10.573,10.954,7.933,7.933,0,0,1,2.873-1.763,3.841,3.841,0,0,1,3.153.165c1.4.8,1.91,2.537,2.3,4.1A4.8,4.8,0,0,1,1556.973,280.469Z" transform="translate(-1442.212 -268.166)" fill="#f3f8ff"/>
      </g>
    </g>
    <g id="person_girl_1" data-name="person girl 1" transform="translate(260.313 480.42)">
      <path id="Path_1843" data-name="Path 1843" d="M3773.859,1351.538l3.406,1.808s18.417-19.529,22.845-38.269a29.163,29.163,0,0,0,.771-9.776s.267-.849.736-2.35l.063-.2c.2-.659.451-1.433.723-2.31.889-2.831,2.111-6.707,3.5-11.118,3.206-10.153,10.538-33.049,13.671-42.575l-22.518-8.146s-2.558,5.832-6.232,21.684c-.566,2.069-1.134,4.357-1.664,6.85-.6,2.824-1.161,5.911-1.627,9.247a142.093,142.093,0,0,0-1.35,18.98c-.012,2.836.057,5.778.226,8.813a38.886,38.886,0,0,1-.829,8.564C3782.746,1328.163,3773.859,1351.538,3773.859,1351.538Z" transform="translate(-3761.53 -1146.903)" fill="#f3f8ff"/>
      <path id="Path_1844" data-name="Path 1844" d="M3896.166,1593.908h18.2s.681-2.9-.514-4.88c-1.058-1.748-.652-2.744.131-4.19a7.072,7.072,0,0,1-3.066.577,6.413,6.413,0,0,1-2.708-.952,65.451,65.451,0,0,1-5.186,5.449C3901.836,1590.767,3896.532,1590.462,3896.166,1593.908Z" transform="translate(-3896.166 -1380.645)" fill="#266fa8"/>
      <path id="Path_1846" data-name="Path 1846" d="M3780.762,1595s1.26,3.091.074,5.7h-9.9s-.205-2.351,3.388-5.077C3777.043,1593.553,3780.762,1595,3780.762,1595Z" transform="translate(-3722.348 -1387.432)" fill="#266fa8"/>
      <path id="Path_1847" data-name="Path 1847" d="M3778.607,962.013c-.006-.493-.259-5.808-8.335-6.28,0,0,3.963.57,4.608,2.333,0,0-2.654-2.224-4.875-1.583s-3.608,4.471-3.651,5.741,1.082,5.393,2.473,5.774a4.26,4.26,0,0,0,1.693.043,19.192,19.192,0,0,0-1.132,1.912c-3.385,6.542-.465,14.249,2.282,13.6,1.761-.416,2.833,2.638,2.833,2.638l16.946-14.573S3785.513,958.539,3778.607,962.013Z" transform="translate(-3730.97 -955.733)" fill="#f3f8ff"/>
      <path id="Path_1848" data-name="Path 1848" d="M3797.233,1064.919a20.589,20.589,0,0,1-7.193,3.061c-11.086,2.561-15.334-6.809-16.93-13.24a9.527,9.527,0,0,1,3.756-1.154c.8-.095,1.644-.157,2.342-.192,1.245-.954,3.1-4.856,3.51-10.915l.521.14,8.738,2.391s-.4,2.777-.6,5.4c-.151,2.054-.175,4.017.214,4.5.682.148,1.091.245,1.091.245s0,0,0,.007A56.34,56.34,0,0,1,3797.233,1064.919Z" transform="translate(-3738.943 -1014.358)" fill="#ffb8b8"/>
      <path id="Path_1849" data-name="Path 1849" d="M3798.06,1045.308s-.4,2.775-.6,5.4c-4.95-.5-7.248-5.209-8.142-7.794Z" transform="translate(-3745.025 -1014.654)" fill="#e5a5a5"/>
      <path id="Path_1850" data-name="Path 1850" d="M3775.186,1019.539s-11.4-2.928-9.464-10,1.764-12.208,9.122-10.638,8.029,4.653,7.957,7.17S3778.2,1020.119,3775.186,1019.539Z" transform="translate(-3722.051 -984.717)" fill="#ffb8b8"/>
      <path id="Path_1851" data-name="Path 1851" d="M3782.617,999.429c-1.17-2.608-2.623-2.505-3.541-2.07a8.223,8.223,0,0,0-10.645-1.169,14,14,0,0,1-6.607,6.763s1.717,1.845,6.822,1.928a8.4,8.4,0,0,0,4.592-1.6,27.437,27.437,0,0,1-6.083,4.313c6.417-1.068,10.879-8.36,11.337-9.135a9.226,9.226,0,0,1,1.568,3.977c.071,1.955-.691,5.729.423,5.9C3780.485,1008.331,3784.372,1003.339,3782.617,999.429Z" transform="translate(-3721.125 -982.094)" fill="#f3f8ff"/>
      <path id="Path_1852" data-name="Path 1852" d="M3762.774,1076.563s-19.141-4.647-27.463,2.217l4.159,58.006,37.434-9.043s-1.053-3.671-8.231-13.431S3764.617,1090.235,3762.774,1076.563Z" transform="translate(-3706.361 -1036.354)" fill="#ffb8b8"/>
      <path id="Path_1853" data-name="Path 1853" d="M3728.979,1235.718s.021.2.06.571c.017.161.039.355.063.583.161,1.5.466,4.388.859,8.139,1.027,9.838,2.64,25.638,3.738,38.11.859,9.752,1.405,17.469,1.11,18.707-.887,3.729,0,48.307,0,48.307,3.181,1.526,8.005,0,8.005,0s8.475-40.171,7.288-45.754a19.229,19.229,0,0,1,.793-10.349c6.58-30.644,5.86-47.628,4.552-55.759a34.246,34.246,0,0,0-1.125-4.965,10.381,10.381,0,0,0-.451-1.22A30.965,30.965,0,0,0,3728.979,1235.718Z" transform="translate(-3683.723 -1141.742)" fill="#f3f8ff"/>
      <path id="Path_1854" data-name="Path 1854" d="M3724.379,1096.247c.924,6.978,4.62,15.517,5.941,20.114,0,0-2.207,15.958-.1,20.34a1.938,1.938,0,0,0,.9,1.006c7.805,3.4,38.2.1,39.487-9.707.466-3.563-11.579-16.1-12.281-17.616-.292-.629-.6-2.668.81-6.894,2,6.172,11.989,1.707,11.989,1.707-1.3-2.218-3.467-14.879-7.074-21.808-2.712-5.209-9.953-5.963-9.953-5.963s-3.014,4.78-10.3,4.1-8.621-5.139-8.621-5.139-6.465.859-8.457,2.466C3726.373,1079.135,3723.167,1087.1,3724.379,1096.247Z" transform="translate(-3698.01 -1037.276)" fill="#266fa8"/>
      <path id="Path_1855" data-name="Path 1855" d="M3824.77,1157.758s-2.208,15.958-.1,20.34c5.687-2.854,13.1-9.016,10.843-18.643-3.277-13.987-16.684-21.811-16.684-21.811C3819.753,1144.622,3823.449,1153.161,3824.77,1157.758Z" transform="translate(-3792.459 -1078.673)" fill="#1b507a"/>
      <g id="Group_373" data-name="Group 373" transform="translate(46.675 59.555)">
        <path id="Path_1856" data-name="Path 1856" d="M3724.712,1141.476l-11.2,20.911h19.063l10.675-20.458Z" transform="translate(-3713.35 -1140.818)" fill="#f3f8ff"/>
        <path id="Path_1857" data-name="Path 1857" d="M3779.6,1161.014l-.193-.731,11.15-20.837.213.658Z" transform="translate(-3779.406 -1139.446)" fill="#2b394b"/>
        <path id="Path_1858" data-name="Path 1858" d="M3713.509,1139.446l17.958.6.789.516-18.533-.453Z" transform="translate(-3702.359 -1139.446)" fill="#2b394b"/>
      </g>
      <path id="Path_1860" data-name="Path 1860" d="M3803.627,1174.873c1.255.574,4.478,4.369,5.628,4.755,5.171,1.73,27.179-2.874,27.179-2.874l-.293-3.916s-21.99.635-24.364,0c-.448-.12-2.782-3.772-3.679-4.3Z" transform="translate(-3788.038 -1099.554)" fill="#ffb8b8"/>
      <path id="Path_1861" data-name="Path 1861" d="M3767.811,1178.413s2.6-2.12,4.365-1.64,4.35,2.705,5.312,3.233,3.574,2.412,2.25,3.552-5.446.161-7.08-.713a8.971,8.971,0,0,0-4.3-.578Z" transform="translate(-3720.097 -1105.069)" fill="#ffb8b8"/>
      <path id="Path_1862" data-name="Path 1862" d="M3779.585,1175.954s3.165-.377,4.031-.36.629.207.152.878-2.126.927-2.2,1.162S3779.585,1175.954,3779.585,1175.954Z" transform="translate(-3728.005 -1104.321)" fill="#ffb8b8"/>
      <path id="Path_1863" data-name="Path 1863" d="M3852.444,1076.39s-9.388,1.114-11.973,5.139c-3.269,5.09-10.982,25.363-10.732,30.471,0,0,5.639,9.6,24.977,8.062,0,0,2.012-7.106-2.056-9.453,0,0-9.932-1.766-11.076-2.774l3.319-13.791Z" transform="translate(-3815.279 -1037.276)" fill="#266fa8"/>
      <path id="Path_1864" data-name="Path 1864" d="M3705.076,1165.277c.351-1.426,3.463-.536,4.511.286a4.239,4.239,0,0,1,.8.938c.033-.239.061-.468.076-.646.06-.671.841-1.871,1.034-.973s.513,4.677.513,4.677c.038,3.043-1.918,4.3-3.174,3.308S3704.725,1166.7,3705.076,1165.277Z" transform="translate(-3638.93 -1095.8)" fill="#ffb8b8"/>
      <path id="Path_1907" data-name="Path 1907" d="M2.534.009C3.8.242,3.78,1.318,3.653,2.184a2.065,2.065,0,0,1-2.2,1.52,1.7,1.7,0,0,1-1.2-2.09A1.84,1.84,0,0,1,2.534.009Z" transform="translate(62.258 64.687)" fill="#d0cde1"/>
    </g>
    <g id="person_man_2" data-name="person man 2" transform="translate(159.671 410)">
      <path id="Path_1865" data-name="Path 1865" d="M569.416,362.931s-1.879,6.769-3.621,8.223-7.2,8.59-12.515,9.71-7.416-4.5-.838-9.9a59.331,59.331,0,0,0,9.784-11.128A11.774,11.774,0,0,0,569.416,362.931Z" transform="translate(-539.747 -197.776)" fill="#266fa8"/>
      <path id="Path_1866" data-name="Path 1866" d="M603.968,298.75s-12.873,15.367-18.279,17.891a16.938,16.938,0,0,1-6.447,1.562c-.582.021-2.094-.1-2.176-.1a.046.046,0,0,0-.013,0c-6.422-.8-13.972-2.731-23.417-6.577l1.407-4.375a103.4,103.4,0,0,0,12.63,1.7c2.565.18,8.481.452,10.669.806q.812-.365,1.594-.792c9.6-5.18,15.933-15.728,15.933-15.728C598.906,294.278,602.393,296.407,603.968,298.75Z" transform="translate(-534.904 -258.715)" fill="#266fa8"/>
      <g id="Group_390" data-name="Group 390" transform="translate(2.197 35.762)">
        <g id="Group_389" data-name="Group 389" transform="translate(0 0)">
          <g id="Group_381" data-name="Group 381" transform="translate(6.565 4.584)">
            <path id="Path_1867" data-name="Path 1867" d="M560.041,303.974s-1.315-3.322-3.1-4.271-6.882-4.285-7.968-3.286-.863,5.795,3.7,9.8a9.117,9.117,0,0,0,5.837,2.446Z" transform="translate(-548.425 -296.233)" fill="#ffb8b8"/>
          </g>
          <g id="Group_386" data-name="Group 386">
            <path id="Path_1868" data-name="Path 1868" d="M547.187,297.863l11.831,10.755a1.471,1.471,0,0,0,1.534.231l6.185-2.991a.7.7,0,0,0,.373-.38l.013-.049.3-1.033-1.64-.622-17.621-7.358-.861-.324-.324,1.092-.023.077a.029.029,0,0,0,0,.026A.618.618,0,0,0,547.187,297.863Z" transform="translate(-546.946 -292.706)" fill="url(#linear-gradient-3)"/>
            <path id="Path_1869" data-name="Path 1869" d="M560.683,309.894l6.188-2.991a.6.6,0,0,0,.159-1.048l-11.906-10.706a1.473,1.473,0,0,0-1.529-.231l-6.19,2.994a.6.6,0,0,0-.159,1.048l11.906,10.7A1.471,1.471,0,0,0,560.683,309.894Z" transform="translate(-546.769 -294.798)" fill="url(#linear-gradient-4)"/>
            <path id="Path_1870" data-name="Path 1870" d="M559,307.565l4.8-2.321a.6.6,0,0,0,.159-1.048l-9.559-8.74a1.472,1.472,0,0,0-1.529-.234l-4.8,2.32a.6.6,0,0,0-.159,1.049l9.559,8.743A1.478,1.478,0,0,0,559,307.565Z" transform="translate(-545.843 -294.157)" fill="#e5d5ff" opacity="0.84"/>
            <path id="Path_1871" data-name="Path 1871" d="M548.447,297.712l.005,0a.029.029,0,0,1,0-.026Z" transform="translate(-546.703 -291.808)" fill="#1f2232"/>
          </g>
          <g id="Group_387" data-name="Group 387" transform="translate(14.017 6.35)">
            <path id="Path_1872" data-name="Path 1872" d="M553.507,297.179s-1.07.168-1.179,1.089.886.553,1.527.35a1.573,1.573,0,0,1,1.305.105C555.44,299.053,555.392,296.908,553.507,297.179Z" transform="translate(-552.32 -297.156)" fill="#ffb8b8"/>
          </g>
        </g>
      </g>
      <path id="Path_1874" data-name="Path 1874" d="M605.245,338.691s-17.4-32.524-28.567-28.873c-7.444,2.436-25.39,38.384-25.39,38.384,1.64,2.356,5.2,2.3,8.024.413,0,0,13.321-11.139,18.044-23.758,0,0,14.155,32.844,32.959,32.844C611.536,357.7,608.311,341.965,605.245,338.691Z" transform="translate(-537.048 -243.736)" fill="#f3f8ff"/>
      <path id="Path_1875" data-name="Path 1875" d="M566.111,330.152a3.607,3.607,0,0,1,.469,1.992c0,1.342-.122,5.973-.122,5.973l-22.61.038a6.716,6.716,0,0,1,2.773-5.4c2.861-1.885,7.264-.052,11.467-3.012C558.087,329.739,559.214,330.765,566.111,330.152Z" transform="translate(-543.847 -225.273)" fill="#266fa8"/>
      <g id="Group_405" data-name="Group 405" transform="translate(58.895 24.119)">
        <path id="Path_1876" data-name="Path 1876" d="M589.6,287.753s8.112.04,11.809,3.383.168,10.137-3.843,11.007-16.538-.614-17.839-2.761S579.249,287.918,589.6,287.753Z" transform="translate(-570.393 -287.753)" fill="#266fa8"/>
        <path id="Path_1877" data-name="Path 1877" d="M606.621,356.9l3.944-25.427L609.71,296.4l-9.434-3.192-.507-.17-2.117-.716-1.68-.568-9.963,1.372-1.621.222-.57.078-7.126.982c-.067,22.545,2.1,27.413-2.069,45.752C575.672,349.11,580.219,371.568,606.621,356.9Z" transform="translate(-574.623 -284.101)" fill="#266fa8"/>
        <g id="Group_401" data-name="Group 401" transform="translate(8.601 7.78)" opacity="0.5" style="mix-blend-mode: normal;isolation: isolate">
          <path id="Path_1878" data-name="Path 1878" d="M584.483,298.527a8.956,8.956,0,0,0,8.811-6.38.263.263,0,0,0-.511-.128,8.294,8.294,0,0,1-8.3,5.982h-.111a.268.268,0,0,0-.264.26.262.262,0,0,0,.26.266Z" transform="translate(-574.556 -291.819)" fill="#9e1c4b" opacity="0.6" style="mix-blend-mode: multiply;isolation: isolate"/>
          <path id="Path_1879" data-name="Path 1879" d="M582.339,296.543a.263.263,0,0,0,0-.526c-.094,0-2.168-.086-2.7-2.892a.264.264,0,0,0-.308-.209.261.261,0,0,0-.209.308c.62,3.242,3.186,3.318,3.213,3.318Z" transform="translate(-579.117 -290.82)" fill="#9e1c4b" opacity="0.6" style="mix-blend-mode: multiply;isolation: isolate"/>
        </g>
        <path id="Path_1880" data-name="Path 1880" d="M597.074,314.151s1.16,8.849-1.2,13.179c0,0-11.738.821-20.271-2.534a43.941,43.941,0,0,0,2.164-12.207Z" transform="translate(-573.728 -265.061)" fill="#215e8d"/>
        <g id="Group_404" data-name="Group 404" transform="translate(8.045 14.429)">
          <path id="Path_1881" data-name="Path 1881" d="M583.718,319.911h.023a.264.264,0,0,0,.237-.287c-.589-6.56,1.868-23.123,1.893-23.289a.261.261,0,0,0-.22-.3.266.266,0,0,0-.3.222c-.025.166-2.492,16.79-1.9,23.414A.263.263,0,0,0,583.718,319.911Z" transform="translate(-574.684 -294.617)" fill="#f3f8ff"/>
          <path id="Path_1882" data-name="Path 1882" d="M579.181,319.3l.023,0a.261.261,0,0,0,.237-.285c-.589-6.56,1.952-23.251,1.977-23.419a.263.263,0,0,0-.521-.08c-.025.168-2.576,16.924-1.981,23.548A.266.266,0,0,0,579.181,319.3Z" transform="translate(-578.827 -295.293)" fill="#f3f8ff"/>
        </g>
      </g>
      <g id="Group_423" data-name="Group 423" transform="translate(50.788 0)">
        <g id="Group_420" data-name="Group 420" transform="translate(5.846 2.845)">
          <path id="Path_1884" data-name="Path 1884" d="M581.171,291.428l1.915,5.328.877,2.44c3.806,1.38,7.934-3.307,7.934-3.307l-2.082-8.617c-1.734-.542-4.977,1.8-7.027,3.087C581.822,290.964,581.171,291.428,581.171,291.428Z" transform="translate(-566.379 -266.992)" fill="#ffb8b8"/>
          <path id="Path_1885" data-name="Path 1885" d="M581.171,290.647l2.39,6.648c4.3-2.019,4.493-9.249,4.493-9.249l-5.266,1.531C581.822,290.184,581.171,290.647,581.171,290.647Z" transform="translate(-566.379 -266.211)" fill="#e5a5a5"/>
          <path id="Path_1886" data-name="Path 1886" d="M574.183,290.206c.054.188.105.375.165.566.5,1.678,1.164,3.5,1.885,5.312.153.379.308.758.465,1.133.134.323.268.649.406.968.285.666.57,1.322.851,1.956q.3.663.582,1.29a7.186,7.186,0,0,0,.455.836,6.715,6.715,0,0,0,8.612,2.392c1.8-.886,3.77-1.912,5.582-2.976.09-.05.178-.1.266-.155a33.323,33.323,0,0,0,3.843-2.585c.1-.262.188-.528.268-.8a19.577,19.577,0,0,0,.7-7.2c-.069-.972-.188-1.946-.346-2.913-.011-.077-.015-.153-.019-.228-1.259-4.736-2.761-9.308-2.761-9.308-6.889-5.067-20.673,1.271-21.624,6.564A12.932,12.932,0,0,0,574.183,290.206Z" transform="translate(-573.441 -276.636)" fill="#ffb8b8"/>
          <path id="Path_1887" data-name="Path 1887" d="M586.936,291.317a19.613,19.613,0,0,0,.7-7.2,7.241,7.241,0,0,0-2.56,1.491A23.147,23.147,0,0,0,586.936,291.317Z" transform="translate(-562.813 -269.805)" fill="url(#linear-gradient-5)"/>
          <path id="Path_1889" data-name="Path 1889" d="M583.882,283.856s1.571-3.418,3.94-2.306c2.608,1.225,2.58,7.729-1.795,8.742Z" transform="translate(-563.902 -272.349)" fill="#ffb8b8"/>
        </g>
        <g id="Group_422" data-name="Group 422" transform="translate(0)">
          <path id="Path_1888" data-name="Path 1888" d="M598,287.2s-2.706-.892-3.94,2.306l-1.512.4a14.973,14.973,0,0,0-1.917-4.62c-1.181-1.491-4.063-.679-5.022-2.553,0,0-6.392,5.781-11.5,3.99-5.716-2,7.739-13.07,15.975-11.4C596.548,276.632,597.7,281.617,598,287.2Z" transform="translate(-568.237 -275.149)" fill="#f3f8ff"/>
          <path id="Path_1890" data-name="Path 1890" d="M582.737,276.182s-8.195,2.59-12.564.782c-.64,2.749.942,8.4,4.837,8.526S582.737,276.182,582.737,276.182Z" transform="translate(-570.035 -274.206)" fill="#f3f8ff"/>
        </g>
      </g>
      <g id="Group_426" data-name="Group 426" transform="translate(22.48 96.49)">
        <g id="Group_425" data-name="Group 425">
          <g id="Group_424" data-name="Group 424">
            <path id="Path_1891" data-name="Path 1891" d="M600.054,330.236s-20.675,6.849-29.155,14.976-15.305,45.928-15.305,45.928c1.156,2.629,3.755,3.4,7.19,3.1,0,0,11.692-21.125,16.563-38.084,0,0,56.11-10.422,44.661-30.153C623.027,324.312,608,328.007,600.054,330.236Z" transform="translate(-555.594 -325.571)" fill="#f3f8ff"/>
          </g>
        </g>
      </g>
      <g id="Group_427" data-name="Group 427" transform="translate(92.527 36.414)">
        <path id="Path_1892" data-name="Path 1892" d="M597.96,330.776s-2.924,3.963-2.681,6.015,2.888,5.913,5,6.1-2.43-4.966-1.359-4.8c1.3.2,10.064,7.392,11.914,7.392s-2.176-3.343-3.745-4.187c0,0,4.147,1.854,5.111,2.821s1.667-1.106-3.158-4.042c0,0,4.424,2.513,4.727,2.553.984.132-1.824-3.161-4.242-4.354,0,0,3.548,1.728,3.908,1.736.5.011-.57-1.15-3.2-2.61-2.369-1.313-6.25-7.341-6.25-7.341Z" transform="translate(-589.396 -261.394)" fill="#ffb8b8"/>
        <path id="Path_1893" data-name="Path 1893" d="M593.653,294.178s9.836,18.894,12.077,38.656l1.056,30.01s-1.012,2.138-6.024.716l-3.5-27.857-3.82-15.547S590.509,302.931,593.653,294.178Z" transform="translate(-592.198 -294.178)" fill="#266fa8"/>
      </g>
    </g>
  </g>
</svg>
