<svg xmlns="http://www.w3.org/2000/svg" width="335" height="283.663" viewBox="0 0 335 283.663">
  <g id="ic_welcome_screen" transform="translate(-22 -354)">
    <g id="Group_156" data-name="Group 156" transform="translate(22 564.187)">
      <g id="Group_151" data-name="Group 151" transform="translate(267.961 10.74)" opacity="0.43">
        <path id="Path_1634" data-name="Path 1634" d="M609.781,750.912a8.9,8.9,0,0,1,3.654-4.572c1.571-.894,3.5-1.124,4.8-2.409a9.531,9.531,0,0,0,1.909-3.943,5.654,5.654,0,0,1,2.487-3.517c1.543-.739,3.277,0,4.641.874s2.758,1.95,4.423,1.892c1.333-.046,2.6-.825,3.936-.917,1.844-.126,3.415,1.057,4.814,2.183a6.248,6.248,0,0,1,2.414,2.968,4.512,4.512,0,0,1-1.644,4.415,7.361,7.361,0,0,1-4.574,1.543c-1.466.034-3.17-.134-4.195,1-1.006,1.112-.736,2.848-1.419,4.18a4.268,4.268,0,0,1-3.81,2.067,11.454,11.454,0,0,1-4.2-1.108,10.239,10.239,0,0,0-4.229-1.01,14.532,14.532,0,0,0-4.774,1.53c-1.343.563-3.863,1.59-4.916.2C608.148,755.039,609.255,752.261,609.781,750.912Z" transform="translate(-575.936 -703.057)" fill="#354c6b"/>
        <path id="Path_1635" data-name="Path 1635" d="M609.835,760.755a58.141,58.141,0,0,1,27.048-13.179" transform="translate(-576.388 -707.699)" fill="none" stroke="#9fadbf" stroke-linecap="round" stroke-linejoin="round" stroke-width="0.899"/>
        <path id="Path_1636" data-name="Path 1636" d="M613.325,722.976c.181-2.237-.24-4.565.5-6.685,1.309-3.771,5.857-5.741,7-9.565,1.362-4.574-2.8-9.242-2.079-13.96.3-1.989,1.45-3.735,2.16-5.618s.9-4.238-.486-5.7c-1.448-1.533-4.077-1.353-5.8-.131a11.349,11.349,0,0,0-3.516,5.155,20.6,20.6,0,0,1-2.864,5.61c-2.476,2.947-6.923,4.238-8.275,7.842-1.376,3.668,1.227,7.544,1.69,11.433.351,2.945-.549,5.875-1.345,8.731s-1.5,5.882-.77,8.756c.972,3.824,4.421,6.263,7.725,3.811C610.522,730.237,612.984,727.181,613.325,722.976Z" transform="translate(-572.075 -680.349)" fill="#3e5675"/>
        <path id="Path_1637" data-name="Path 1637" d="M609.024,742.49a67.925,67.925,0,0,1,8.7-40.259" transform="translate(-575.936 -689.251)" fill="none" stroke="#9fadbf" stroke-linecap="round" stroke-linejoin="round" stroke-width="0.899"/>
        <path id="Path_1638" data-name="Path 1638" d="M577.807,742.694c-1.443-2.036-2.268-4.577-4.222-6.129-2.241-1.779-5.347-1.795-8.2-2.029s-6.07-1.037-7.393-3.575c-.727-1.392-.722-3.047-1.229-4.534a33.906,33.906,0,0,0-2.5-4.51c-.8-1.526-1.217-3.466-.292-4.918a4.214,4.214,0,0,1,4.666-1.429,10.694,10.694,0,0,1,4.313,2.863,17.85,17.85,0,0,0,4.036,3.295c2.571,1.312,5.618,1.066,8.5.944s6.03,0,8.254,1.841c1.833,1.515,2.667,3.894,3.419,6.15,1.077,3.232,2.183,6.455,3.232,9.7.646,1.995,1.883,5.047-.194,6.617C586.544,749.742,579.914,745.668,577.807,742.694Z" transform="translate(-553.449 -694.604)" fill="#3e597e"/>
        <path id="Path_1639" data-name="Path 1639" d="M595.715,752.618a44.354,44.354,0,0,0-25.874-23.676" transform="translate(-560.118 -700.118)" fill="none" stroke="#9fadbf" stroke-linecap="round" stroke-linejoin="round" stroke-width="0.899"/>
      </g>
      <g id="Group_155" data-name="Group 155" opacity="0.43">
        <path id="Path_1640" data-name="Path 1640" d="M140.522,752.425c1.677-2.5,2.651-5.713,4.91-7.538,2.592-2.094,6.159-1.82,9.438-1.854s6.982-.771,8.527-3.932c.848-1.734.86-3.878,1.457-5.755.655-2.057,1.98-3.7,2.912-5.6s1.431-4.373.384-6.34a4.835,4.835,0,0,0-5.345-2.292,11.1,11.1,0,0,0-4.982,3.3,19.027,19.027,0,0,1-4.668,3.886c-2.966,1.457-6.464.85-9.775.421s-6.926-.566-9.5,1.6c-2.121,1.789-3.1,4.79-3.989,7.641-1.269,4.083-2.571,8.153-3.808,12.25-.762,2.522-2.213,6.358.157,8.586C130.416,760.727,138.071,756.077,140.522,752.425Z" transform="translate(-76.877 -695.172)" fill="#3e597e"/>
        <path id="Path_1641" data-name="Path 1641" d="M128.4,760.19c5.366-13.336,16.589-24.136,29.954-28.218" transform="translate(-77.706 -698.287)" fill="none" stroke="#9fadbf" stroke-linecap="round" stroke-linejoin="round" stroke-width="0.899"/>
        <path id="Path_1642" data-name="Path 1642" d="M116.091,737.911c-.186-2.637.246-5.381-.51-7.88-1.343-4.444-6.013-6.767-7.182-11.276-1.4-5.392,2.874-10.895,2.134-16.456-.313-2.345-1.488-4.4-2.218-6.623s-.92-5,.5-6.72c1.487-1.806,4.185-1.595,5.949-.154s2.786,3.778,3.61,6.076a25.785,25.785,0,0,0,2.94,6.612c2.541,3.474,7.107,5,8.495,9.245,1.412,4.323-1.26,8.892-1.736,13.477-.36,3.471.563,6.925,1.381,10.292s1.54,6.935.791,10.322c-1,4.508-4.538,7.383-7.931,4.492C118.968,746.47,116.441,742.869,116.091,737.911Z" transform="translate(-72.756 -687.662)" fill="#3e5675"/>
        <path id="Path_1643" data-name="Path 1643" d="M126.925,755.247c1.348-16.1-1.738-33.556-8.931-47.458" transform="translate(-75.211 -692.488)" fill="none" stroke="#9fadbf" stroke-linecap="round" stroke-linejoin="round" stroke-width="0.899"/>
        <path id="Path_1644" data-name="Path 1644" d="M113.2,749.588a17,17,0,0,0-5.784-8.273c-2.455-1.7-5.448-2.292-7.488-4.643-1.655-1.909-2.306-4.554-3.068-7.014s-1.894-5.109-3.949-6.333c-2.407-1.431-5.062-.332-7.144,1.054s-4.2,3.1-6.776,2.836c-2.062-.212-4.046-1.685-6.11-1.975-2.853-.4-5.243,1.492-7.37,3.3-1.529,1.3-3.134,2.729-3.638,4.9-.613,2.637.658,5.82,2.673,7.8a11.5,11.5,0,0,0,7.115,3.123c2.265.2,4.894.08,6.511,2.142,1.588,2.025,1.224,5,2.321,7.374a7.128,7.128,0,0,0,5.949,3.953,15.265,15.265,0,0,0,6.463-1.5,13.693,13.693,0,0,1,6.5-1.33c2.551.289,4.994,1.834,7.422,3.12,2.093,1.107,6.017,3.133,7.6.83C115.849,756.89,114.055,751.975,113.2,749.588Z" transform="translate(-61.716 -696.053)" fill="#354c6b"/>
        <path id="Path_1645" data-name="Path 1645" d="M117.15,761.938c-12.4-12.517-26.772-21.2-42.189-25.479" transform="translate(-64.892 -699.363)" fill="none" stroke="#9fadbf" stroke-linecap="round" stroke-linejoin="round" stroke-width="0.899"/>
      </g>
      <path id="Path_1623" data-name="Path 1623" d="M1146.63,13.187,991.021,9.094,1146.63,5a4.093,4.093,0,0,1,0,8.186ZM982.856,9.094,855.05,13.187a4.093,4.093,0,0,1,0-8.186Z" transform="translate(-827.461 52.362)" fill="#354c6b"/>
    </g>
    <path id="Path_1646" data-name="Path 1646" d="M31.726,0A31.726,31.726,0,1,1,0,31.726,31.726,31.726,0,0,1,31.726,0Z" transform="translate(52.702 410.171)" fill="#354c6b"/>
    <ellipse id="Ellipse_117" data-name="Ellipse 117" cx="29" cy="28.5" rx="29" ry="28.5" transform="translate(157.698 359)" fill="#354c6b"/>
    <circle id="Ellipse_116" data-name="Ellipse 116" cx="20" cy="20" r="20" transform="translate(130 418)" fill="#354c6b"/>
    <ellipse id="Ellipse_118" data-name="Ellipse 118" cx="14" cy="15" rx="14" ry="15" transform="translate(106.428 374)" fill="#354c6b"/>
    <circle id="Ellipse_119" data-name="Ellipse 119" cx="8" cy="8" r="8" transform="translate(134.144 354)" fill="#354c6b"/>
    <circle id="Ellipse_120" data-name="Ellipse 120" cx="5" cy="5" r="5" transform="translate(181.694 428)" fill="#354c6b"/>
    <circle id="Ellipse_121" data-name="Ellipse 121" cx="4" cy="4" r="4" transform="translate(84.666 385)" fill="#354c6b"/>
    <circle id="Ellipse_202" data-name="Ellipse 202" cx="4" cy="4" r="4" transform="translate(122.666 466)" fill="#354c6b"/>
    <g id="ic_goals" transform="translate(138 427)">
      <rect id="Rectangle_72" data-name="Rectangle 72" width="23" height="23" fill="none"/>
      <g id="Group_61" data-name="Group 61" transform="translate(2.458 2.14)">
        <path id="Path_1528" data-name="Path 1528" d="M-729.515-754.4a.569.569,0,0,1-.4-.168.569.569,0,0,1-.168-.4.569.569,0,0,1,.168-.4l4.833-4.531.15-1.3-.077-.913a.6.6,0,0,1,0-.063.572.572,0,0,1,.167-.391l2.43-2.429a.569.569,0,0,1,.4-.168.567.567,0,0,1,.2.035.571.571,0,0,1,.374.49l.149,1.758,1.759.148a.574.574,0,0,1,.49.375.573.573,0,0,1-.133.6l-2.43,2.429a.408.408,0,0,1-.044.04l-.006,0-.009.008-.01.007-.024.017-.009.005-.01.005-.033.019-.01,0-.01,0-.034.014-.022.008-.033.01-.024.006-.03.006-.029,0-.037,0h-.031a.379.379,0,0,1-.049,0l-.913-.077-1.3.151-4.833,4.531A.57.57,0,0,1-729.515-754.4Zm7.034-8.926h0l-1.369,1.37.126,1.494,1.494.126,1.37-1.37-1.012-.084a.574.574,0,0,1-.523-.522l-.086-1.012Z" transform="translate(739.576 765.172)" fill="#9fadbf" stroke="#9fadbf" stroke-width="0.2"/>
        <path id="Path_1531" data-name="Path 1531" d="M1.771,0A1.771,1.771,0,1,1,0,1.771,1.771,1.771,0,0,1,1.771,0Z" transform="translate(11.12 8.099) rotate(69)" fill="#9fadbf"/>
        <g id="Path_1530" data-name="Path 1530" transform="matrix(0.017, 1, -1, 0.017, 15.724, 4.216)" fill="none" stroke-linecap="round" stroke-dasharray="28 17">
          <path d="M5.864,0A5.864,5.864,0,1,1,0,5.864,5.864,5.864,0,0,1,5.864,0Z" stroke="none"/>
          <path d="M 5.86399507522583 -4.76837158203125e-06 C 9.102595329284668 -4.76837158203125e-06 11.72798538208008 2.625394821166992 11.72798538208008 5.86399507522583 C 11.72798538208008 9.102595329284668 9.102595329284668 11.72798538208008 5.86399507522583 11.72798538208008 C 2.625394821166992 11.72798538208008 -4.76837158203125e-06 9.102595329284668 -4.76837158203125e-06 5.86399507522583 C -4.76837158203125e-06 5.86399507522583 -4.76837158203125e-06 5.86399507522583 -4.76837158203125e-06 5.86399507522583 C -4.76837158203125e-06 5.862245559692383 -3.814697265625e-06 5.860504150390625 -1.9073486328125e-06 5.858755111694336 C -1.9073486328125e-06 5.858161926269531 -9.5367431640625e-07 5.857450485229492 0 5.856857776641846 C 9.5367431640625e-07 5.855748653411865 2.86102294921875e-06 5.854622364044189 4.76837158203125e-06 5.853513240814209 C 5.7220458984375e-06 5.852920532226562 7.62939453125e-06 5.851881980895996 8.58306884765625e-06 5.85128927230835 C 1.1444091796875e-05 5.850217819213867 1.430511474609375e-05 5.849156379699707 1.621246337890625e-05 5.848084926605225 C 1.811981201171875e-05 5.847492218017578 2.09808349609375e-05 5.846611022949219 2.193450927734375e-05 5.846018314361572 C 2.574920654296875e-05 5.844910144805908 2.956390380859375e-05 5.843801021575928 3.337860107421875e-05 5.842692375183105 C 3.528594970703125e-05 5.842100143432617 3.814697265625e-05 5.841218948364258 4.100799560546875e-05 5.84062671661377 C 4.76837158203125e-05 5.838930606842041 5.435943603515625e-05 5.83722972869873 6.29425048828125e-05 5.83553409576416 C 6.4849853515625e-05 5.835139274597168 6.67572021484375e-05 5.834747791290283 6.866455078125e-05 5.834352970123291 C 7.534027099609375e-05 5.833021640777588 8.20159912109375e-05 5.83169412612915 8.96453857421875e-05 5.830363273620605 C 0.0001001358032226562 5.828636646270752 0.000110626220703125 5.826866626739502 0.0001211166381835938 5.825139999389648 C 0.000133514404296875 5.823503971099854 0.00014495849609375 5.821646213531494 0.0001573562622070312 5.820009708404541 C 0.0001697540283203125 5.818265914916992 0.0001850128173828125 5.816648483276367 0.0001964569091796875 5.814902782440186 C 0.000209808349609375 5.813425064086914 0.0002231597900390625 5.811951160430908 0.0002346038818359375 5.810474395751953 C 0.000255584716796875 5.808107376098633 0.000274658203125 5.806126117706299 0.0002985000610351562 5.803759574890137 C 0.0003042221069335938 5.803224563598633 0.000308990478515625 5.802693843841553 0.0003147125244140625 5.802159309387207 C 0.0003271102905273438 5.800976276397705 0.0003366470336914062 5.800050735473633 0.0003499984741210938 5.798868179321289 C 0.0003566741943359375 5.798259258270264 0.0003633499145507812 5.79764461517334 0.000370025634765625 5.797035694122314 C 0.0003833770751953125 5.795852661132812 0.0003957748413085938 5.794750690460205 0.0004091262817382812 5.793568134307861 C 0.0004148483276367188 5.793092727661133 0.0004215240478515625 5.792600631713867 0.00042724609375 5.792125701904297 C 0.0004434585571289062 5.790745735168457 0.0004549026489257812 5.789823055267334 0.0004720687866210938 5.788443565368652 C 0.0004758834838867188 5.788124084472656 0.00048065185546875 5.787787437438965 0.000484466552734375 5.787468433380127 C 0.0005626678466796875 5.781359195709229 0.0006465911865234375 5.775472164154053 0.0007429122924804688 5.769367694854736 C 0.000743865966796875 5.769330501556396 0.0007448196411132812 5.76928186416626 0.0007448196411132812 5.76924467086792 C 0.001615524291992187 5.714302539825439 0.003252029418945312 5.659316539764404 0.00562286376953125 5.604751110076904 C 0.0056304931640625 5.604588985443115 0.00563812255859375 5.604416847229004 0.005644798278808594 5.604254722595215 C 0.005703926086425781 5.602885723114014 0.005754470825195312 5.601737022399902 0.005815505981445312 5.600368499755859 C 0.00583648681640625 5.599889755249023 0.005858421325683594 5.599410533905029 0.005879402160644531 5.598931789398193 C 0.005931854248046875 5.597758769989014 0.005984306335449219 5.596566677093506 0.006037712097167969 5.595393657684326 C 0.006059646606445312 5.594900131225586 0.006081581115722656 5.594413757324219 0.006104469299316406 5.593920707702637 C 0.006157875061035156 5.592747688293457 0.006211280822753906 5.591567039489746 0.006264686584472656 5.590394020080566 C 0.006338119506835937 5.58881139755249 0.006411552429199219 5.587224960327148 0.0064849853515625 5.58564281463623 C 0.006503105163574219 5.585251808166504 0.006532669067382812 5.584630012512207 0.006551742553710937 5.584239482879639 C 0.006615638732910156 5.582870483398438 0.006679534912109375 5.581510543823242 0.006745338439941406 5.580141544342041 C 0.006763458251953125 5.579751014709473 0.006784439086914062 5.579322814941406 0.006802558898925781 5.57893180847168 C 0.00687408447265625 5.577453136444092 0.006944656372070312 5.575973033905029 0.007017135620117187 5.574494361877441 C 0.00702667236328125 5.574298858642578 0.007045745849609375 5.573910236358643 0.007055282592773437 5.573714733123779 C 0.008243560791015625 5.549357891082764 0.009579658508300781 5.525043964385986 0.01106548309326172 5.500764846801758 C 0.03127479553222656 5.170015335083008 0.3157892227172852 4.918276786804199 0.64654541015625 4.938485145568848 C 0.977294921875 4.958694934844971 1.229035377502441 5.243215084075928 1.20882511138916 5.573965072631836 C 1.202964782714844 5.669855117797852 1.199995040893555 5.767435073852539 1.199995040893555 5.86399507522583 C 1.199995040893555 8.435725212097168 3.292255401611328 10.52798461914062 5.86399507522583 10.52798461914062 C 8.435725212097168 10.52798461914062 10.52798461914062 8.435725212097168 10.52798461914062 5.86399507522583 C 10.52798461914062 3.292255401611328 8.435725212097168 1.199995040893555 5.86399507522583 1.199995040893555 C 5.532625198364258 1.199995040893555 5.263995170593262 0.9313650131225586 5.263995170593262 0.5999946594238281 C 5.263995170593262 0.2686252593994141 5.532625198364258 -4.76837158203125e-06 5.86399507522583 -4.76837158203125e-06 C 5.86399507522583 -4.76837158203125e-06 5.86399507522583 -4.76837158203125e-06 5.86399507522583 -4.76837158203125e-06 Z" stroke="none" fill="#9fadbf"/>
        </g>
        <g id="Path_1533" data-name="Path 1533" transform="translate(0 20.161) rotate(-90)" fill="none" stroke-linecap="round" stroke-dasharray="48 18">
          <path d="M.388,12.719a9.958,9.958,0,1,1,9.578,7.223A9.977,9.977,0,0,1,.388,12.719Z" stroke="none"/>
          <path d="M 9.965948104858398 19.94278335571289 C 7.978021621704102 19.94288444519043 6.06277322769165 19.34355735778809 4.450798988342285 18.27275466918945 C 3.875859498977661 17.89083099365234 3.339815616607666 17.44920921325684 2.852449178695679 16.95310020446777 C 1.731828927993774 15.81246757507324 0.8704076409339905 14.38550853729248 0.3949800431728363 12.74230003356934 C 0.3927422761917114 12.7345666885376 0.3905985355377197 12.727126121521 0.3883779048919678 12.71938323974609 C 0.1276978850364685 11.80979347229004 0.002227890305221081 10.89339351654053 2.789031896099914e-05 9.991853713989258 C 1.228973360412056e-05 9.985489845275879 2.929666834461386e-06 9.979126930236816 -3.909301824478462e-07 9.97276496887207 C -0.0009139584144577384 8.2147216796875 0.4668600559234619 6.513330936431885 1.315014600753784 5.027952671051025 C 1.789609909057617 4.196794986724854 2.383294343948364 3.433284282684326 3.080620765686035 2.76531457901001 C 4.211265563964844 1.682273149490356 5.614355564117432 0.8504247665405273 7.223917961120605 0.3887933790683746 C 10.32898616790771 -0.5017086863517761 13.51327705383301 0.1841155588626862 15.92036819458008 1.971473336219788 C 16.0133056640625 2.040483474731445 16.10523223876953 2.111252307891846 16.19580841064453 2.183520078659058 C 17.10700798034668 2.910546779632568 17.89595222473145 3.800846815109253 18.51298332214355 4.827029228210449 C 18.95366096496582 5.559919834136963 19.30659675598145 6.362094879150391 19.5534782409668 7.223293304443359 C 19.81429862976074 8.132883071899414 19.93996810913086 9.049273490905762 19.94230842590332 9.951033592224121 C 19.94231414794922 9.95346736907959 19.94231986999512 9.95588493347168 19.94232368469238 9.958318710327148 C 19.94232559204102 9.959379196166992 19.94232559204102 9.960080146789551 19.94232749938965 9.961140632629395 C 19.94233131408691 9.962614059448242 19.94233322143555 9.964105606079102 19.94233322143555 9.965578079223633 C 19.94233512878418 9.966903686523438 19.94233703613281 9.967700004577637 19.94233703613281 9.969025611877441 C 19.94233894348145 9.970285415649414 19.94233894348145 9.971558570861816 19.94233894348145 9.972817420959473 C 19.94233894348145 9.974143028259277 19.94234085083008 9.975085258483887 19.94234085083008 9.976410865783691 C 19.94234085083008 9.978245735168457 19.94233894348145 9.98007869720459 19.94233894348145 9.981913566589355 C 19.94233703613281 9.983504295349121 19.94233512878418 9.985601425170898 19.94233322143555 9.987192153930664 C 19.94233322143555 9.988131523132324 19.94233131408691 9.989075660705566 19.94233131408691 9.990015029907227 C 19.94232940673828 9.991604804992676 19.94232559204102 9.99303150177002 19.94232368469238 9.994621276855469 C 19.94232177734375 9.995347023010254 19.94231986999512 9.996124267578125 19.94231796264648 9.996849060058594 C 19.94231605529785 9.998439788818359 19.94231224060059 10.00020790100098 19.94230842590332 10.00179767608643 C 19.94230651855469 10.00209617614746 19.94230651855469 10.00241279602051 19.94230461120605 10.00271129608154 C 19.94228935241699 10.00854110717773 19.9422664642334 10.01470947265625 19.94224166870117 10.02053737640381 C 19.94223976135254 10.02081489562988 19.94223976135254 10.02110290527344 19.94223785400391 10.02138042449951 C 19.94222831726074 10.02349948883057 19.94222068786621 10.02521800994873 19.94220924377441 10.02733707427979 C 19.94220924377441 10.02735900878906 19.94220924377441 10.02740859985352 19.94220924377441 10.02742958068848 C 19.94134521484375 10.19485282897949 19.93625259399414 10.36134052276611 19.92696952819824 10.52756595611572 C 19.92696189880371 10.52773475646973 19.92695045471191 10.52790927886963 19.92694091796875 10.52807903289795 C 19.92682456970215 10.53018283843994 19.92673683166504 10.53174114227295 19.9266185760498 10.53384494781494 C 19.92660140991211 10.53414154052734 19.92658233642578 10.53448104858398 19.92656517028809 10.53477764129639 C 19.92622375488281 10.54082679748535 19.92586898803711 10.54697799682617 19.92551612854004 10.5530252456665 C 19.92551422119141 10.55306720733643 19.92551040649414 10.55313587188721 19.92550849914551 10.55317783355713 C 19.92539978027344 10.55501842498779 19.92530822753906 10.55657291412354 19.92519950866699 10.5584135055542 C 19.92516136169434 10.55909061431885 19.92511749267578 10.559814453125 19.92507743835449 10.56049156188965 C 19.92496871948242 10.562331199646 19.92489242553711 10.56361675262451 19.92478179931641 10.56545734405518 C 19.92475700378418 10.56590175628662 19.92473220825195 10.56629085540771 19.92470550537109 10.56673526763916 C 19.92437553405762 10.57225513458252 19.92404365539551 10.57774639129639 19.92370414733887 10.58326530456543 C 19.92365837097168 10.58400535583496 19.92361259460449 10.58474254608154 19.9235668182373 10.58548259735107 C 19.92346954345703 10.58705902099609 19.92337799072266 10.58854579925537 19.92328071594238 10.59012222290039 C 19.92323112487793 10.59092617034912 19.92317962646484 10.59173679351807 19.92313003540039 10.5925407409668 C 19.92303085327148 10.59411716461182 19.92293739318848 10.59562969207764 19.92283821105957 10.59720611572266 C 19.92281150817871 10.59762859344482 19.92278289794922 10.59805774688721 19.92275619506836 10.59848117828369 C 19.92255783081055 10.60163402557373 19.92238426208496 10.60437297821045 19.92218208312988 10.60752487182617 C 19.92211723327637 10.60856151580811 19.92205047607422 10.60958003997803 19.9219856262207 10.61061668395996 C 19.92189979553223 10.61192989349365 19.92181205749512 10.61329555511475 19.92172813415527 10.61460876464844 C 19.92165946960449 10.61566638946533 19.92158889770508 10.61673450469971 19.9215202331543 10.6177921295166 C 19.92143630981445 10.61910533905029 19.92134475708008 10.6205005645752 19.9212589263916 10.62181282043457 C 19.92118644714355 10.62293434143066 19.92111587524414 10.62399578094482 19.92104148864746 10.6251163482666 C 19.9209041595459 10.62721729278564 19.92078399658203 10.62903594970703 19.92064476013184 10.63113594055176 C 19.92054557800293 10.63261604309082 19.92045021057129 10.63407230377197 19.92035102844238 10.63555240631104 C 19.92028045654297 10.6366024017334 19.92019844055176 10.6378173828125 19.92012786865234 10.63886737823486 C 19.9200382232666 10.64022064208984 19.91994667053223 10.64158153533936 19.91985511779785 10.64293479919434 C 19.91978454589844 10.6439847946167 19.91970252990723 10.645188331604 19.91963195800781 10.64623832702637 C 19.91953468322754 10.64765453338623 19.9194393157959 10.64907264709473 19.91934204101562 10.65048789978027 C 19.91928863525391 10.65127563476562 19.91918563842773 10.6527681350708 19.91913223266602 10.65355587005615 C 19.91897201538086 10.65588092803955 19.91881370544434 10.65818214416504 19.91865348815918 10.66050624847412 C 19.91859817504883 10.66129398345947 19.91855621337891 10.66189670562744 19.91850090026855 10.66268348693848 C 19.91838645935059 10.66433238983154 19.91827011108398 10.66599464416504 19.91815567016602 10.66764259338379 C 19.91808128356934 10.66869258880615 19.91800498962402 10.66976928710938 19.91793251037598 10.67081832885742 C 19.91782379150391 10.67236137390137 19.91771507263184 10.67390823364258 19.91760444641113 10.67545032501221 C 19.91754913330078 10.67623805999756 19.91748237609863 10.67719459533691 19.91742515563965 10.67798233032227 C 19.91727066040039 10.68015766143799 19.91711807250977 10.68229007720947 19.91696166992188 10.6844654083252 C 19.91694450378418 10.68472766876221 19.91692161560059 10.6850471496582 19.91690254211426 10.68530941009521 C 19.91672515869141 10.68778133392334 19.91654777526855 10.69023418426514 19.91636848449707 10.69270515441895 C 19.91631126403809 10.69349193572998 19.91628265380859 10.69386100769043 19.91622543334961 10.69464778900146 C 19.91609001159668 10.6965274810791 19.91595077514648 10.6984167098999 19.91581344604492 10.70029640197754 C 19.91577529907227 10.70082092285156 19.91569900512695 10.70186328887939 19.91565895080566 10.70238780975342 C 19.91549873352051 10.70456314086914 19.91534042358398 10.70671653747559 19.9151782989502 10.70889091491699 C 19.91515922546387 10.709153175354 19.91513824462891 10.70944976806641 19.91511726379395 10.70971202850342 C 19.91492462158203 10.71230888366699 19.91473007202148 10.71492862701416 19.9145336151123 10.71752548217773 C 19.9145336151123 10.71752548217773 19.91449928283691 10.71799659729004 19.91449928283691 10.71799659729004 C 19.91431999206543 10.72038173675537 19.91413879394531 10.72277736663818 19.9139575958252 10.72516250610352 C 19.91391754150391 10.72568702697754 19.91389465332031 10.72598266601562 19.91385459899902 10.72650718688965 C 19.91368865966797 10.72870254516602 19.91352272033691 10.73085784912109 19.91335487365723 10.73305225372314 C 19.91331481933594 10.73357677459717 19.91330337524414 10.73373508453369 19.91326332092285 10.7342586517334 C 19.91286277770996 10.73947143554688 19.91245460510254 10.74472808837891 19.91204452514648 10.74993896484375 C 19.91204452514648 10.74993896484375 19.91202163696289 10.75024795532227 19.91202163696289 10.75024795532227 C 19.91182136535645 10.75280094146729 19.91161918640137 10.75535869598389 19.91141700744629 10.75791168212891 C 19.91139602661133 10.75817394256592 19.91140365600586 10.75807094573975 19.9113826751709 10.75833320617676 C 19.91075134277344 10.76630687713623 19.91010856628418 10.7742862701416 19.90945625305176 10.78225708007812 C 19.9094352722168 10.78251934051514 19.90944480895996 10.7824068069458 19.909423828125 10.78266906738281 C 19.90921020507812 10.7852840423584 19.90899467468262 10.78788948059082 19.90877914428711 10.79050350189209 C 19.90877914428711 10.79050350189209 19.90877532958984 10.79054832458496 19.90877532958984 10.79054832458496 C 19.90810775756836 10.79864501953125 19.90743064880371 10.80671215057373 19.90674209594727 10.81480407714844 C 19.9067211151123 10.81506633758545 19.90676307678223 10.81456279754639 19.90674018859863 10.81482410430908 C 19.90169334411621 10.87416839599609 19.89611434936523 10.9334077835083 19.89000701904297 10.9925537109375 C 19.85597801208496 11.32217311859131 19.56117630004883 11.56177997589111 19.23155784606934 11.52775382995605 C 18.90193748474121 11.49372291564941 18.66231727600098 11.19892311096191 18.69635772705078 10.86930370330811 C 18.72762870788574 10.56640338897705 18.74308776855469 10.25848293304443 18.74230766296387 9.954143524169922 C 18.7402172088623 9.146472930908203 18.62503814697266 8.338973045349121 18.39993858337402 7.553973197937012 C 17.86465835571289 5.686713218688965 16.75985717773438 4.089463233947754 15.2049674987793 2.934903383255005 C 13.69828796386719 1.816133379936218 11.84143829345703 1.200003385543823 9.97647762298584 1.200003385543823 C 9.161487579345703 1.200003385543823 8.346697807312012 1.315163373947144 7.554748058319092 1.542293429374695 C 5.683547973632812 2.078953266143799 4.083908081054688 3.187063455581665 2.928777933120728 4.746813297271729 C 1.80939793586731 6.258303165435791 1.195437908172607 8.119983673095703 1.200027942657471 9.988923072814941 C 1.201997876167297 10.79658317565918 1.317027926445007 11.60401344299316 1.541877865791321 12.38855361938477 C 2.077497959136963 14.25612354278564 3.182537794113159 15.85353374481201 4.737517833709717 17.00809288024902 C 6.244227886199951 18.1268138885498 8.101027488708496 18.74287414550781 9.965888023376465 18.74278259277344 C 10.29725742340088 18.74276351928711 10.56589794158936 19.01138305664062 10.56591796875 19.34275245666504 C 10.56593799591064 19.67412376403809 10.29731750488281 19.94276428222656 9.965948104858398 19.94278335571289 C 9.965948104858398 19.94278335571289 9.965948104858398 19.94278335571289 9.965948104858398 19.94278335571289 Z" stroke="none" fill="#9fadbf"/>
        </g>
      </g>
    </g>
    <g id="ic_agenda" transform="translate(113.395 382)">
      <rect id="Rectangle_72-2" data-name="Rectangle 72" width="14" height="14" transform="translate(-0.395)" fill="none"/>
      <g id="Group_89" data-name="Group 89" transform="translate(0.605 1)">
        <g id="Group_66" data-name="Group 66">
          <g id="Group_65" data-name="Group 65">
            <path id="Path_1534" data-name="Path 1534" d="M11.872,8.494a.483.483,0,0,0,.483-.483V2.9a1.933,1.933,0,0,0-1.93-1.93H9.8V.483a.483.483,0,1,0-.965,0V.965h-2.2V.483a.483.483,0,1,0-.965,0V.965H3.5V.483a.483.483,0,1,0-.965,0V.965h-.6A1.933,1.933,0,0,0,0,2.9v7.529a1.933,1.933,0,0,0,1.93,1.93h8.494a1.933,1.933,0,0,0,1.93-1.93.483.483,0,1,0-.965,0,.966.966,0,0,1-.965.965H1.93a.966.966,0,0,1-.965-.965V2.9A.966.966,0,0,1,1.93,1.93h.6v.483a.483.483,0,1,0,.965,0V1.93H5.671v.483a.483.483,0,1,0,.965,0V1.93h2.2v.483a.483.483,0,1,0,.965,0V1.93h.627a.966.966,0,0,1,.965.965V8.011A.483.483,0,0,0,11.872,8.494Z" fill="#9fadbf"/>
          </g>
        </g>
        <g id="Group_68" data-name="Group 68" transform="translate(2.478 4.248)">
          <g id="Group_67" data-name="Group 67">
            <circle id="Ellipse_54" data-name="Ellipse 54" cx="0.708" cy="0.708" r="0.708" fill="#9fadbf"/>
          </g>
        </g>
        <g id="Group_94" data-name="Group 94" transform="translate(5.522 4.248)">
          <g id="Group_67-2" data-name="Group 67">
            <circle id="Ellipse_54-2" data-name="Ellipse 54" cx="0.708" cy="0.708" r="0.708" fill="#9fadbf"/>
          </g>
        </g>
        <g id="Group_97" data-name="Group 97" transform="translate(8.425 4.248)">
          <g id="Group_67-3" data-name="Group 67">
            <circle id="Ellipse_54-3" data-name="Ellipse 54" cx="0.708" cy="0.708" r="0.708" fill="#9fadbf"/>
          </g>
        </g>
        <g id="Group_90" data-name="Group 90" transform="translate(2.478 6.372)">
          <g id="Group_67-4" data-name="Group 67">
            <circle id="Ellipse_54-4" data-name="Ellipse 54" cx="0.708" cy="0.708" r="0.708" fill="#9fadbf"/>
          </g>
        </g>
        <g id="Group_93" data-name="Group 93" transform="translate(5.522 6.372)">
          <g id="Group_67-5" data-name="Group 67">
            <circle id="Ellipse_54-5" data-name="Ellipse 54" cx="0.708" cy="0.708" r="0.708" fill="#9fadbf"/>
          </g>
        </g>
        <g id="Group_96" data-name="Group 96" transform="translate(8.425 6.372)">
          <g id="Group_67-6" data-name="Group 67">
            <circle id="Ellipse_54-6" data-name="Ellipse 54" cx="0.708" cy="0.708" r="0.708" fill="#9fadbf"/>
          </g>
        </g>
        <g id="Group_91" data-name="Group 91" transform="translate(2.478 8.496)">
          <g id="Group_67-7" data-name="Group 67">
            <circle id="Ellipse_54-7" data-name="Ellipse 54" cx="0.708" cy="0.708" r="0.708" fill="#9fadbf"/>
          </g>
        </g>
        <g id="Group_92" data-name="Group 92" transform="translate(5.522 8.496)">
          <g id="Group_67-8" data-name="Group 67">
            <circle id="Ellipse_54-8" data-name="Ellipse 54" cx="0.708" cy="0.708" r="0.708" fill="#9fadbf"/>
          </g>
        </g>
        <g id="Group_95" data-name="Group 95" transform="translate(8.425 8.496)">
          <g id="Group_67-9" data-name="Group 67">
            <circle id="Ellipse_54-9" data-name="Ellipse 54" cx="0.708" cy="0.708" r="0.708" fill="#9fadbf"/>
          </g>
        </g>
      </g>
    </g>
    <g id="Group_157" data-name="Group 157" transform="translate(170.851 370.258)">
      <path id="Path_1647" data-name="Path 1647" d="M28.668,59.277h-.02c0-1.242-.7-1.44-1.757-1.74l-.021-.006c-.337-.1-.675-.177-1.026-.246,0-.086.007-.174.007-.264a4.086,4.086,0,0,0-1.177-2.987,4.484,4.484,0,0,0-3.2-1.215,4.474,4.474,0,0,0-3.2,1.215,4.086,4.086,0,0,0-1.178,2.987c0,.149.007.291.02.428a7.587,7.587,0,0,0-1.641.541,15.243,15.243,0,0,0-5.4-1.012.457.457,0,1,0-.05.912,14.132,14.132,0,0,1,4.989.894V75.7a17.177,17.177,0,0,0-5.141-.866,18.3,18.3,0,0,0-6.665.9V59.286c0-.411.088-.481.14-.522a3.4,3.4,0,0,1,.951-.347l.023-.007a15.292,15.292,0,0,1,3.506-.516.457.457,0,0,0-.05-.912,16.128,16.128,0,0,0-3.705.549l-.023.007c-1.054.3-1.751.5-1.755,1.739H2.274A2.277,2.277,0,0,0,0,61.552v15.9a2.888,2.888,0,0,0,3.041,2.924l12.43.016h0l5-.005a.457.457,0,0,0,0-.913h0l-4.546,0V78.083H27.249a1.412,1.412,0,0,0,1.4-1.422V60.191h.019a1.363,1.363,0,0,1,1.362,1.361v15.9A1.983,1.983,0,0,1,27.9,79.46l-5.311.007a.457.457,0,0,0,0,.913h0l5.311-.007a2.888,2.888,0,0,0,3.041-2.924v-15.9A2.278,2.278,0,0,0,28.668,59.277ZM18.91,54.686a3.56,3.56,0,0,1,2.554-.953h.014a3.561,3.561,0,0,1,2.556.953,3.194,3.194,0,0,1,.9,2.337,3.608,3.608,0,0,1-1.121,2.539,4.506,4.506,0,0,0-1.241,2.446h-.649V58.843h.717a.457.457,0,0,0,0-.913H20.251a.457.457,0,1,0,0,.913h.763v3.165h-.647a4.507,4.507,0,0,0-1.241-2.446A3.607,3.607,0,0,1,18,57.023,3.194,3.194,0,0,1,18.91,54.686Zm1.136,8.236H22.9a.664.664,0,1,1,0,1.327H20.046a.664.664,0,1,1,0-1.327Zm-1.623-2.776a3.623,3.623,0,0,1,1.037,1.976,1.577,1.577,0,0,0,.586,3.041H22.9a1.577,1.577,0,0,0,.586-3.041,3.624,3.624,0,0,1,1.037-1.976,5.348,5.348,0,0,0,1.173-1.958c.316.063.622.136.926.223l.022.006a3.409,3.409,0,0,1,.953.347c.052.041.14.11.14.522V75.727a18.316,18.316,0,0,0-6.666-.9,17.188,17.188,0,0,0-5.141.866V58.785a6.832,6.832,0,0,1,1.372-.442A5.6,5.6,0,0,0,18.423,60.145ZM15.014,76.688v.482H3.692a.494.494,0,0,1-.481-.461C6.991,75.128,12.985,75.729,15.014,76.688Zm-14.1.762v-15.9a1.363,1.363,0,0,1,1.361-1.361H2.3v16.47a1.411,1.411,0,0,0,1.4,1.422H15.014v1.392L3.042,79.46A1.983,1.983,0,0,1,.913,77.45Zm26.336-.28H15.927v-.482c2.03-.958,8.025-1.559,11.8.021A.5.5,0,0,1,27.249,77.169Z" transform="translate(0 -49.808)" fill="#9fadbf"/>
      <path id="Path_1648" data-name="Path 1648" d="M85.327,294.9a8.988,8.988,0,0,0-3.712-.763,10.938,10.938,0,0,0-4.635.743.457.457,0,1,0,.382.83,10.989,10.989,0,0,1,7.507-.02.457.457,0,1,0,.459-.79Z" transform="translate(-72.078 -276.533)" fill="#9fadbf"/>
      <path id="Path_1649" data-name="Path 1649" d="M85.327,350.363a8.988,8.988,0,0,0-3.712-.763,10.936,10.936,0,0,0-4.635.743.457.457,0,1,0,.382.83,10.99,10.99,0,0,1,7.507-.02.457.457,0,0,0,.459-.79Z" transform="translate(-72.078 -328.645)" fill="#9fadbf"/>
      <path id="Path_1650" data-name="Path 1650" d="M85.328,239.425a8.983,8.983,0,0,0-3.712-.764,10.916,10.916,0,0,0-4.635.744.457.457,0,0,0,.382.83,10.978,10.978,0,0,1,7.506-.02.457.457,0,1,0,.459-.79Z" transform="translate(-72.079 -224.41)" fill="#9fadbf"/>
      <path id="Path_1651" data-name="Path 1651" d="M289.7,295.69a10.973,10.973,0,0,1,7.5.02.457.457,0,1,0,.382-.83,10.926,10.926,0,0,0-4.634-.743,8.97,8.97,0,0,0-3.711.763.457.457,0,1,0,.459.79Z" transform="translate(-271.544 -276.534)" fill="#9fadbf"/>
      <path id="Path_1652" data-name="Path 1652" d="M297.582,350.343a10.93,10.93,0,0,0-4.634-.743,8.973,8.973,0,0,0-3.711.763.457.457,0,1,0,.459.79,10.973,10.973,0,0,1,7.5.02.457.457,0,0,0,.382-.83Z" transform="translate(-271.543 -328.645)" fill="#9fadbf"/>
      <path id="Path_1653" data-name="Path 1653" d="M348.219,5.112a.457.457,0,0,0,.457-.457v-1.2a.457.457,0,1,0-.913,0v1.2A.457.457,0,0,0,348.219,5.112Z" transform="translate(-326.745 -3)" fill="#9fadbf"/>
      <path id="Path_1654" data-name="Path 1654" d="M270.382,28.086a.457.457,0,1,0,.646-.646l-.849-.849a.457.457,0,0,0-.646.646Z" transform="translate(-253.117 -25.039)" fill="#9fadbf"/>
      <path id="Path_1655" data-name="Path 1655" d="M412.52,28.219a.455.455,0,0,0,.323-.134l.848-.849a.457.457,0,1,0-.646-.645l-.848.849a.457.457,0,0,0,.323.78Z" transform="translate(-387.16 -25.039)" fill="#9fadbf"/>
      <path id="Path_1656" data-name="Path 1656" d="M76.756,184.538a.457.457,0,0,0,.606.224,11,11,0,0,1,7.507-.02.457.457,0,1,0,.458-.79,9,9,0,0,0-3.711-.762,10.94,10.94,0,0,0-4.635.742A.457.457,0,0,0,76.756,184.538Z" transform="translate(-72.078 -172.291)" fill="#9fadbf"/>
    </g>
    <g id="Group_166" data-name="Group 166" transform="translate(70.1 426.545)">
      <g id="Group_165" data-name="Group 165" transform="translate(0)">
        <g id="Group_164" data-name="Group 164" transform="translate(0)">
          <path id="Path_1660" data-name="Path 1660" d="M43.132,1.146H38.874l.036-.5a.6.6,0,0,0-.6-.646H22.632a.6.6,0,0,0-.6.646l.036.5H17.809A1.8,1.8,0,0,0,16,2.939V4.623a11.559,11.559,0,0,0,8.09,11.026l1.088.342a7.716,7.716,0,0,0,1.7,1.211,1.8,1.8,0,0,0,1.183,1.989v1.49H26.25a1.811,1.811,0,0,0-1.809,1.809v1.99h-.6a1.811,1.811,0,0,0-1.809,1.809v3.979a.6.6,0,0,0,.6.6H38.309a.6.6,0,0,0,.6-.6V26.288A1.811,1.811,0,0,0,37.1,24.479h-.6V22.49a1.811,1.811,0,0,0-1.809-1.809H32.882V19.191A1.8,1.8,0,0,0,34.065,17.2a7.688,7.688,0,0,0,1.7-1.215l.028-.008,1.054-.331A11.561,11.561,0,0,0,44.941,4.62V2.939A1.8,1.8,0,0,0,43.132,1.146Zm-4.955,9.767.439-6.149h2.706a7.944,7.944,0,0,1-3.15,6.2C38.174,10.944,38.176,10.928,38.177,10.913Zm-15.413,0c0,.016,0,.033,0,.049a7.91,7.91,0,0,1-3.149-6.2h2.706Zm-5.558-6.29V2.939a.589.589,0,0,1,.6-.588h4.344l.086,1.206H19.015a.6.6,0,0,0-.6.6v.463A9.109,9.109,0,0,0,23.074,12.6a7.69,7.69,0,0,0,.732,1.675A10.307,10.307,0,0,1,17.206,4.623ZM37.1,25.685a.6.6,0,0,1,.6.6v3.376H23.235V26.288a.6.6,0,0,1,.6-.6Zm-2.412-3.8a.6.6,0,0,1,.6.6v1.99H25.647V22.49a.6.6,0,0,1,.6-.6Zm-5.426-1.206V19.294h2.412v1.387Zm3.015-2.593H28.662a.6.6,0,0,1,0-1.206h3.618a.6.6,0,0,1,0,1.206Zm2.847-3.162a6.5,6.5,0,0,1-1.638,1.215,1.811,1.811,0,0,0-1.209-.464H28.662a1.8,1.8,0,0,0-1.209.464,6.516,6.516,0,0,1-3.485-5.314L23.28,1.206H37.661l-.687,9.621A6.5,6.5,0,0,1,35.126,14.926ZM43.735,4.62a10.309,10.309,0,0,1-6.6,9.65,7.691,7.691,0,0,0,.732-1.674h0A9.141,9.141,0,0,0,42.529,4.62V4.16a.6.6,0,0,0-.6-.6H38.7l.086-1.206h4.344a.589.589,0,0,1,.6.588Z" transform="translate(-16)" fill="#9fadbf"/>
        </g>
      </g>
    </g>
    <g id="Group_167" data-name="Group 167" transform="translate(96.348 484.47)">
      <path id="Path_1661" data-name="Path 1661" d="M455.849,265.075a22.128,22.128,0,0,0-17.481-11.836s-11.315-1.65-18.573,15.574c-6.766,16.053-16.1,31.554-1.5,35.312l2.637-9.359,1.633,10.056a50.183,50.183,0,0,0,6.247.122c15.635-.576,30.525.168,30.046-6.229C458.216,290.208,461.5,275.956,455.849,265.075Z" transform="translate(-387.764 -253.196)" fill="#f3f8ff"/>
      <path id="Path_1662" data-name="Path 1662" d="M428.88,583.564a29.55,29.55,0,0,1-.749,3.675c-.367,1.178-.934,2.267-1.27,3.457-1.07,3.793.414,8.021,2.784,10.949a15.418,15.418,0,0,0,7.639,5.173,27.491,27.491,0,0,0,6.565.786c6.1.236,12.36.447,18.141-1.789a29.8,29.8,0,0,0,5.27-2.73,4.076,4.076,0,0,0,1.368-1.228,4.786,4.786,0,0,0,.493-2.519c-.013-2.95-.537-5.884-.413-8.83a39.907,39.907,0,0,0,.205-4.889,8.709,8.709,0,0,0-6.045-7.769,14.427,14.427,0,0,0-5.011,0,112.107,112.107,0,0,1-13.041.665c-4.449-.032-8.87-.807-13.3-.887-1.309-.024-1.283.436-1.7,1.881A39.241,39.241,0,0,0,428.88,583.564Z" transform="translate(-399.187 -472.65)" fill="#f3f8ff"/>
      <path id="Path_1663" data-name="Path 1663" d="M465.943,358.191a9.7,9.7,0,0,1-1.118,3.649c-.774,1.207-2.036,1.9-2.868,3.052-1.253,1.738-1.325,4.185-1.33,6.436,0,2.073.032,4.285,1.046,6.005a9.713,9.713,0,0,0,2.638,2.652c3.8,2.922,7.911,5.9,12.5,5.993a6.2,6.2,0,0,0,5.186-2.151,9.3,9.3,0,0,0,1.256-2.555,37.94,37.94,0,0,0,2.105-10.326,13.759,13.759,0,0,0-.4-4.961c-.557-1.771-1.683-3.227-2.427-4.906a12.282,12.282,0,0,1-.922-6.463.786.786,0,0,0-.032-.469.563.563,0,0,0-.493-.228l-9.09-.746a17.5,17.5,0,0,1-2.524-.329c-.49-.114-1.784-.907-2.252-.7C466.347,352.538,466.12,357.132,465.943,358.191Z" transform="translate(-423.624 -320.106)" fill="#ffb8b8"/>
      <path id="Path_1664" data-name="Path 1664" d="M465.943,358.191a9.7,9.7,0,0,1-1.118,3.649c-.774,1.207-2.036,1.9-2.868,3.052-1.253,1.738-1.325,4.185-1.33,6.436,0,2.073.032,4.285,1.046,6.005a9.713,9.713,0,0,0,2.638,2.652c3.8,2.922,7.911,5.9,12.5,5.993a6.2,6.2,0,0,0,5.186-2.151,9.3,9.3,0,0,0,1.256-2.555,37.94,37.94,0,0,0,2.105-10.326,13.759,13.759,0,0,0-.4-4.961c-.557-1.771-1.683-3.227-2.427-4.906a12.282,12.282,0,0,1-.922-6.463.786.786,0,0,0-.032-.469.563.563,0,0,0-.493-.228l-9.09-.746a17.5,17.5,0,0,1-2.524-.329c-.49-.114-1.784-.907-2.252-.7C466.347,352.538,466.12,357.132,465.943,358.191Z" transform="translate(-423.624 -320.106)" opacity="0.1" style="mix-blend-mode: normal;isolation: isolate"/>
      <ellipse id="Ellipse_123" data-name="Ellipse 123" cx="13.865" cy="16" rx="13.865" ry="16" transform="translate(36.864 8.53)" fill="#ffb8b8"/>
      <path id="Path_1665" data-name="Path 1665" d="M473.792,412.241a8.468,8.468,0,0,0,2.342,2.134,6.575,6.575,0,0,0,2.926.635c2.4.077,5.01-.425,6.682-2.4,2.156-2.54,2.085-6.638,3.775-9.6a2.063,2.063,0,0,1,.544-.679,1.59,1.59,0,0,1,.926-.243c2.134-.023,3.993,1.555,5.671,3.06a8.1,8.1,0,0,1,2,2.319,8.662,8.662,0,0,1,.673,2.35,117.226,117.226,0,0,1,1.37,14.094c.148,2.608.3,5.218.285,7.831-.036,8.608-1.791,17.073-3.536,25.449-.225,1.079-.532,2.286-1.393,2.8a3.1,3.1,0,0,1-1.216.338,130.939,130.939,0,0,1-15.037,1.428q-2.945.051-5.888-.163a2.824,2.824,0,0,1-.992-.2,2.932,2.932,0,0,1-1.081-1.047c-2.721-3.911-2.882-9.317-2.865-14.31q.064-18.31,1.147-36.59a4.482,4.482,0,0,0-.563-3.019A37.153,37.153,0,0,0,473.792,412.241Z" transform="translate(-429.603 -353.913)" fill="#d0cde1"/>
      <path id="Path_1666" data-name="Path 1666" d="M424.041,376.355c-.45.93-3.771,3.239-4.412,4.009-3.582,4.305-10.12,4.144-13.4,8.755a15.443,15.443,0,0,0-2.192,5.688c-.623,2.866-.955,5.992.088,8.7,1,2.6,3.118,4.4,4.553,6.722,1.576,2.551,2.284,5.648,2.963,8.67a22.57,22.57,0,0,1,.811,6.811c-.222,2.607-1.328,4.994-1.981,7.505s-.766,5.5.744,7.475a7.11,7.11,0,0,0,4.514,2.348,45.639,45.639,0,0,0,6.433.639c1.9.1,4,.115,5.46-1.276a6.706,6.706,0,0,0,1.72-4.588,33.617,33.617,0,0,0-.443-5.105c-.2-1.76-.281-3.536-.346-5.31q-.439-11.939-.12-23.893a23.143,23.143,0,0,0-.212-4.958,29.307,29.307,0,0,0-2.261-6,25.391,25.391,0,0,1-2.206-11.986C424.013,376.3,425.644,373.046,424.041,376.355Z" transform="translate(-382.677 -335.586)" fill="#266fa8"/>
      <path id="Path_1667" data-name="Path 1667" d="M530.365,373.577c.686.8,3.017,1.069,3.89,1.587a12.539,12.539,0,0,0,2.557,1.009,31.465,31.465,0,0,1,8.984,4.7,5.73,5.73,0,0,1,1.5,1.48,7.425,7.425,0,0,1,.831,2.676,34.44,34.44,0,0,1,.761,7.317,34.076,34.076,0,0,1-1.476,7.635l-2.557,9.322c-1.909,6.958-3.829,13.984-4.366,21.249a56.91,56.91,0,0,0,.393,12.069,1.606,1.606,0,0,1-.129,1.169.96.96,0,0,1-.626.328c-1.234.22-2.429-.5-3.547-1.132a35.99,35.99,0,0,0-10.826-4.039,30.584,30.584,0,0,0,3.363-7.9,53.771,53.771,0,0,0,1.016-5.437l1.19-7.845a87.292,87.292,0,0,0,1.02-8.675,12.356,12.356,0,0,0-.165-3.268,17.156,17.156,0,0,0-1.086-2.947,28.317,28.317,0,0,1-2.109-15.04c.338-2.225.994-4.453.72-6.689-.263-2.15.01-3.821-.474-5.949C527.244,366.458,529.074,372.064,530.365,373.577Z" transform="translate(-470.274 -332.484)" fill="#266fa8"/>
      <path id="Path_1668" data-name="Path 1668" d="M405.158,428.393c-.893,2.115-2.388,3.916-2.9,6.191a15.388,15.388,0,0,0-.253,3.236,17.444,17.444,0,0,0,.421,4.865c.284,1,.746,1.928,1.078,2.912a11.909,11.909,0,0,1,.607,4.313c-.09,2.037-.7,4.015-.744,6.053-.074,3.206,1.226,6.221,2.495,9.083,1.211-3.419,4.623-5.072,7.622-3.691a5.645,5.645,0,0,1,.889.514,2.186,2.186,0,0,0,.384-1.451q.14-5.58.271-11.16c.137-5.753.269-11.583-.892-17.185a17.325,17.325,0,0,0-2.834-7.009c-.787-1.033-3.459-3.753-4.751-2.6-.581.52-.445,1.937-.537,2.654A12.444,12.444,0,0,1,405.158,428.393Z" transform="translate(-381.636 -367.507)" fill="#266fa8"/>
      <path id="Path_1669" data-name="Path 1669" d="M569.009,411.219a17.647,17.647,0,0,1,.457,4.681q.026,4.823-.112,9.646a20.37,20.37,0,0,1-.55,4.884c-.289,1.035-.734,2.005-1.032,3.037-.893,3.091-.405,6.444-.329,9.7a12.5,12.5,0,0,1-.234,3.137c-.471,2.017-1.738,3.647-2.622,5.474a57.078,57.078,0,0,1-2.349,5.3c-1,1.619-2.739,2.9-4.422,2.405a5.2,5.2,0,0,1-2.808-2.985,16.448,16.448,0,0,1-1.327-9.5c.629-3.949,2.663-7.451,3.4-11.377,1.007-5.39-.524-10.952-.478-16.463a9,9,0,0,1,.3-2.552,10.85,10.85,0,0,1,1.974-3.273,41.252,41.252,0,0,0,2.654-3.972c.546-.929,1.289-3.32,2.258-3.519C565.953,405.4,568.473,409.313,569.009,411.219Z" transform="translate(-490.132 -356.428)" fill="#266fa8"/>
      <path id="Path_1670" data-name="Path 1670" d="M342.521,587.63a11.628,11.628,0,0,0-3.662-.444c-5.04.318-8.9,5.234-8.621,10.981a11.79,11.79,0,0,0,.136,1.3,19.125,19.125,0,0,0,1.451,4.521,15.078,15.078,0,0,0,3.934,5.93,14.584,14.584,0,0,0,3.471,1.884l9.469,4.067c1.393.6,2.786,1.2,4.193,1.751a73.238,73.238,0,0,0,21.9,4.964,20.858,20.858,0,0,0,6.8-.393,2.153,2.153,0,0,0,1.392-.858,3.01,3.01,0,0,0,.311-1.172l.582-4.651a4.428,4.428,0,0,0-.049-1.961,3.523,3.523,0,0,0-1.574-1.691c-6.225-4.077-13.493-6.326-18.732-11.922-1.234-1.317-2.266-3.405-3.765-4.3-1.7-1.015-3.7-1.594-5.457-2.529C350.458,591.07,346.683,588.722,342.521,587.63Z" transform="translate(-330.224 -479.113)" fill="#f3f8ff"/>
      <path id="Path_1671" data-name="Path 1671" d="M396.172,605.722c3.347,1.2,17.477,9.48,19.9,12.373-.325.133-11.339-6.905-11.67-7.018a61.312,61.312,0,0,1-8.878-3.568c-.574-.3-3.729-1.726-3.586-2.551C392.1,604.026,395.578,605.509,396.172,605.722Z" transform="translate(-374.423 -490.934)" opacity="0.1" style="mix-blend-mode: normal;isolation: isolate"/>
      <path id="Path_1672" data-name="Path 1672" d="M519.377,683.439a.719.719,0,0,0,.531-.178,1.03,1.03,0,0,0,.166-.7l-.016-6.336a15.371,15.371,0,0,0-5.14-1.414l-8.186-1.248c.188.029-1.28,4.021-1.055,4.554.4.939,3.429,1.771,4.284,2.215C512.936,681.877,516.027,683.572,519.377,683.439Z" transform="translate(-455.876 -537.549)" fill="#ffb8b8"/>
      <path id="Path_1673" data-name="Path 1673" d="M450.771,672.211c-1.546.281-3.271.529-4.272,1.9-1.269,1.74-.729,4.333-.123,6.488a2.955,2.955,0,0,0,.527,1.181,2.267,2.267,0,0,0,1.626.575,6.611,6.611,0,0,0,4.141-.607,18.547,18.547,0,0,0,1.609-1.364,9.767,9.767,0,0,1,2.957-1.542,26.739,26.739,0,0,1,5.937-1.4,8.211,8.211,0,0,0,2.339-.47,2.784,2.784,0,0,0,1.647-1.824,4.778,4.778,0,0,0-.865-3.335,13.133,13.133,0,0,0-2.489-3.509c-1.525-1.351-2.28-.314-3.816.551A29.616,29.616,0,0,1,450.771,672.211Z" transform="translate(-412.952 -533.554)" fill="#ffb8b8"/>
      <path id="Path_1674" data-name="Path 1674" d="M402.084,678.03l-9.814-3.308a11.6,11.6,0,0,0-3.652-.807,4.126,4.126,0,0,0-3.354,1.547,8.136,8.136,0,0,0-1.169,3.731l-.406,2.824a16.126,16.126,0,0,0-.227,4.338,4.913,4.913,0,0,0,1.949,3.573c1.358.845,3.022.432,4.538.079a43.574,43.574,0,0,1,9.3-1.137,6.647,6.647,0,0,0,3.445-.627,5.029,5.029,0,0,0,2.1-3.908C404.987,681.922,404.282,678.77,402.084,678.03Z" transform="translate(-368.305 -537.785)" fill="#266fa8"/>
      <path id="Path_1675" data-name="Path 1675" d="M557.112,673.032a22.063,22.063,0,0,0,3.614-1.565,14.2,14.2,0,0,1,5.393-.677,3.106,3.106,0,0,1,1.934.442,4.247,4.247,0,0,1,1.142,2.911l.821,6.552a11.7,11.7,0,0,1,.067,3.712,3.394,3.394,0,0,1-2.023,2.7c-1.283.38-2.541-.554-3.753-1.169-3.028-1.535-6.549-1.142-9.706-2.289a2.214,2.214,0,0,1-1.453-1.185,3.05,3.05,0,0,1-.113-1.132c.054-2.106-.336-4.982.22-6.995C553.756,672.523,555.693,673.032,557.112,673.032Z" transform="translate(-489.753 -535.669)" fill="#266fa8"/>
      <path id="Path_1676" data-name="Path 1676" d="M537.55,579.207a15.01,15.01,0,0,1,6-.468,7.042,7.042,0,0,1,4.43,1.977c1.427,1.542,1.885,3.926,1.923,6.167a21.062,21.062,0,0,1-3.672,12.3,10.505,10.505,0,0,1-2.1,2.3,13.167,13.167,0,0,1-2.731,1.5l-21.2,9.537A125.941,125.941,0,0,1,503.2,619.21a1.257,1.257,0,0,1-1.769-.7l-.014-.033a52.6,52.6,0,0,1-4.647-9.694.717.717,0,0,1,.081-.919.559.559,0,0,1,.172-.111l15-9.826a15.272,15.272,0,0,0,3.053-2.4,8.7,8.7,0,0,0,1.567-2.488c.311-.74.34-2.488.737-3.035s1.719-.578,2.333-.79a19.589,19.589,0,0,0,2.54-1.095c3.355-1.711,6.342-4.2,9.558-6.2A22.96,22.96,0,0,1,537.55,579.207Z" transform="translate(-449.423 -473.326)" fill="#f3f8ff"/>
      <path id="Path_1677" data-name="Path 1677" d="M550.073,599.191c-2.577,2.207-5.913,4.236-8.467,6.5-.872.773-15.4,10.088-15.606,11.325,2.382.458,17.559-11.649,19.731-12.858a35.166,35.166,0,0,0,6-4.6c.486-.431,2.546-1.727,1.151-2.208C552.1,597.077,550.653,598.75,550.073,599.191Z" transform="translate(-470.449 -485.972)" opacity="0.1" style="mix-blend-mode: normal;isolation: isolate"/>
      <path id="Path_1678" data-name="Path 1678" d="M483.8,272.213l-11.472-6.852-15.842,2.8-3.278,16.508,8.159-.358,2.279-6.065v5.965l3.765-.165,2.185-9.655,1.366,10.278,13.384-.312Z" transform="translate(-418.314 -261.425)" fill="#f3f8ff"/>
      <rect id="Rectangle_1740" data-name="Rectangle 1740" width="26.741" height="36" rx="4" transform="translate(36.864 44.53)" fill="#f3f8ff"/>
      <path id="Path_1679" data-name="Path 1679" d="M417.953,485.813a6.433,6.433,0,0,0,2.141,2.429,3.729,3.729,0,0,0,3.681-.112,7.006,7.006,0,0,0,2.656-3.037,16.965,16.965,0,0,0,1.35-8.394c-.155-2.88-.695-5.715-.934-8.588-.173-2.088-.188-4.188-.2-6.286a2.336,2.336,0,0,1,.232-1.271,2.1,2.1,0,0,1,1.23-.7c2.516-.853,4.187-3.542,5.384-6.206a11.935,11.935,0,0,0,1.341-5.714c-.154-1.991-1.409-4-3.153-4.2-1.437-.168-2.765.874-3.8,2.021a19.657,19.657,0,0,0-4.774,10.878,47.784,47.784,0,0,1-.645,6.069c-1.031,4.2-4.257,6.769-5.864,10.545C414.823,477.408,415.8,482.131,417.953,485.813Z" transform="translate(-391.429 -382.07)" fill="#ffb8b8"/>
      <path id="Path_1680" data-name="Path 1680" d="M553.1,443.618a7.457,7.457,0,0,1-3.9,4.273,4.766,4.766,0,0,1-3.39.237,3.977,3.977,0,0,1-2.484-2.533,7.71,7.71,0,0,1-.28-1.9,22.207,22.207,0,0,1,.8-8.389c.348-1.02.817-1.986,1.091-3.034a17.251,17.251,0,0,0,.411-3.7l.3-7.721a5.709,5.709,0,0,0-.1-1.674,5.087,5.087,0,0,0-2.051-2.509,14.748,14.748,0,0,1-5.017-6.072,4.789,4.789,0,0,1-.347-2.515,3.845,3.845,0,0,1,2.975-2.86c3.591-.9,7.138,1.7,7.923,5.793q.031.161.055.323c.133.871.131,1.761.209,2.642.165,1.866.684,3.666,1.009,5.5.8,4.53.386,9.212,1.178,13.741C552.146,437,554.642,439.474,553.1,443.618Z" transform="translate(-479.11 -355.907)" fill="#ffb8b8"/>
      <ellipse id="Ellipse_124" data-name="Ellipse 124" cx="2.971" cy="3" rx="2.971" ry="3" transform="translate(46.767 54.53)" fill="#d0cde1"/>
    </g>
    <g id="Group_243" data-name="Group 243" transform="translate(191.481 387.033)">
      <g id="Group_175" data-name="Group 175" transform="translate(17.204 226.865)">
        <g id="Group_168" data-name="Group 168">
          <path id="Path_1681" data-name="Path 1681" d="M738.294,490.8,732.9,511.837l-11.4-2.682,5.359-21.083Z" transform="translate(-721.497 -488.071)" fill="#266fa8"/>
        </g>
        <g id="Group_171" data-name="Group 171" transform="translate(0 19.595)">
          <path id="Path_1683" data-name="Path 1683" d="M733.274,501.909l-11.4-2.72-.378,1.488,11.4,2.682Z" transform="translate(-721.497 -499.188)" fill="#d0cde1"/>
        </g>
        <g id="Group_174" data-name="Group 174" transform="translate(3.244 6.001)" opacity="0.3">
          <path id="Path_1685" data-name="Path 1685" d="M723.927,491.476l-.589,2.318,11.444,2.637.448-1.745Z" transform="translate(-723.338 -491.476)"/>
        </g>
      </g>
      <g id="Group_195" data-name="Group 195" transform="translate(54.405 229.254)">
        <g id="Group_193" data-name="Group 193" transform="translate(0.003)">
          <g id="Group_188" data-name="Group 188">
            <g id="Group_176" data-name="Group 176">
              <path id="Path_1686" data-name="Path 1686" d="M755.814,489.559l-.587,13.57s13.6,5.156,13.733,7.673l-26.354-.194.049-21.181Z" transform="translate(-742.605 -489.427)" fill="#266fa8"/>
            </g>
            <g id="Group_179" data-name="Group 179" transform="translate(0 19.059)">
              <path id="Path_1688" data-name="Path 1688" d="M742.605,502.36l.005-2.12,25.5.962s1.177.523,1.036,1.354Z" transform="translate(-742.605 -500.24)" fill="#d0cde1"/>
            </g>
          </g>
          <g id="Group_190" data-name="Group 190" transform="translate(9.119 5.576)">
            <g id="Group_189" data-name="Group 189">
              <path id="Path_1693" data-name="Path 1693" d="M751.8,494.754a2.494,2.494,0,0,1-1.329-.016,6.133,6.133,0,0,1-2.147-.85,1.623,1.623,0,0,1-.4-.315.564.564,0,0,1-.055-.689.716.716,0,0,1,.571-.293,1.7,1.7,0,0,1,.5.072,4.722,4.722,0,0,1,2.045,1.1c.612.575.818,1.061.774,1.086-.06.042-.356-.365-.978-.841a5.378,5.378,0,0,0-1.181-.677,4.86,4.86,0,0,0-.762-.241c-.28-.076-.52-.079-.592.046-.026.048-.032.065.026.148a1.349,1.349,0,0,0,.294.231,7.017,7.017,0,0,0,.7.407,7.226,7.226,0,0,0,1.281.5A9.133,9.133,0,0,1,751.8,494.754Z" transform="translate(-747.779 -492.591)" fill="#263238"/>
            </g>
          </g>
          <g id="Group_192" data-name="Group 192" transform="translate(12.628 3.714)">
            <g id="Group_191" data-name="Group 191">
              <path id="Path_1694" data-name="Path 1694" d="M750.116,495.745a2.131,2.131,0,0,1-.342-1.287,4.324,4.324,0,0,1,.192-1.454,4.4,4.4,0,0,1,.346-.8,1.1,1.1,0,0,1,.853-.666.621.621,0,0,1,.552.375,1.8,1.8,0,0,1,.132.488,2.923,2.923,0,0,1-.005.9,3.065,3.065,0,0,1-.578,1.369c-.523.684-1.065.834-1.075.79-.044-.065.411-.312.813-.969a3.068,3.068,0,0,0,.428-1.246,2.759,2.759,0,0,0-.018-.768c-.041-.282-.145-.511-.25-.483-.13,0-.358.208-.467.432a4.342,4.342,0,0,0-.335.719,4.785,4.785,0,0,0-.268,1.324C750.051,495.239,750.186,495.725,750.116,495.745Z" transform="translate(-749.77 -491.534)" fill="#263238"/>
            </g>
          </g>
        </g>
        <g id="Group_194" data-name="Group 194" transform="translate(0 8.136)" opacity="0.3">
          <path id="Path_1695" data-name="Path 1695" d="M742.6,494.043l.026,3.011h12.709V495.4Z" transform="translate(-742.603 -494.043)"/>
        </g>
      </g>
      <g id="Group_197" data-name="Group 197" transform="translate(0 21.5)">
        <g id="Group_196" data-name="Group 196">
          <path id="Path_1696" data-name="Path 1696" d="M713.135,386.746l1.451,5.958,8.587-1.132-.185-7.156c.136-.448.294-.943.494-1.495a6.19,6.19,0,0,1,1.006-1.78,9.412,9.412,0,0,1,1.786-1.81c.661-.412.5-1.408-.2-1.459s-2.547,1.043-3.953,3.136-1.717-1.815-1.856-3.236-.776-5.794-1.244-6.085c-.687-.428-1.289.245-1.118,1.66.174,1.433.39,5.7-.361,5.76l-.019-.016a3.051,3.051,0,0,0-3.546-.079c-1.038.707-2.357,1.789-2.235,2.667A39.988,39.988,0,0,0,713.135,386.746Z" transform="translate(-711.737 -371.559)" fill="#ffb8b8"/>
        </g>
      </g>
      <g id="Group_217" data-name="Group 217" transform="translate(38.118)">
        <g id="Group_200" data-name="Group 200" transform="translate(2.757 2.868)">
          <g id="Group_199" data-name="Group 199">
            <g id="Group_198" data-name="Group 198">
              <path id="Path_1697" data-name="Path 1697" d="M756.1,365l.1,32.585-13.979.668-.4-7.926s-4.965.985-6.247-3.626c-.82-2.945-.615-25.711-.615-25.711Z" transform="translate(-734.927 -360.988)" fill="#ffb8b8"/>
            </g>
          </g>
        </g>
        <g id="Group_203" data-name="Group 203">
          <g id="Group_202" data-name="Group 202">
            <g id="Group_201" data-name="Group 201">
              <path id="Path_1698" data-name="Path 1698" d="M737.324,372.434l.756,7.324a14.306,14.306,0,0,1,2.034-.018c-.365-3.437,4.061-2.766,4.512-.423.432,2.253-2.133,3.758-2.133,3.758a33.527,33.527,0,0,0,5,6.7c2.72,2.757,4.183,2.979,6.992,2.9l3.093-.143a38.8,38.8,0,0,0,1.909-8.887c.39-3,2.734-6.939,2.066-11.823-1.9-13.877-15.192-12.41-15.192-12.41-4.015.112-9.42.509-14.884-2.616C727.884,367.992,737.324,372.434,737.324,372.434Z" transform="translate(-733.363 -359.361)" fill="#f3f8ff"/>
            </g>
          </g>
        </g>
      </g>
      <g id="Group_222" data-name="Group 222" transform="translate(19.102 112.318)">
        <g id="Group_218" data-name="Group 218" transform="translate(26.741)">
          <path id="Path_1705" data-name="Path 1705" d="M768.206,423.084c0,.039,1.553,36.586,0,70.375a550.061,550.061,0,0,1-5.832,56.585l-17.637-1.71s.781-49.353.71-66.048c-.074-17.328,0-32.61,0-32.61s-6.8-6.871-7.424-15.3,0-9.976,0-9.976Z" transform="translate(-737.745 -423.084)" fill="#f3f8ff"/>
        </g>
        <g id="Group_219" data-name="Group 219" transform="translate(0 0.587)">
          <path id="Path_1706" data-name="Path 1706" d="M740.322,423.417c0,1.311-2.977,12.239-1.548,20.5s-16.2,98.91-16.2,98.91l16.829,4.78s8.871-30.338,14.34-57.327c4.754-23.448,6.224-44.054,6-43.98-.476.159-1.572-22.531-1.572-22.531Z" transform="translate(-722.574 -423.417)" fill="#f3f8ff"/>
        </g>
        <g id="Group_221" data-name="Group 221" transform="translate(26.14 1.313)">
          <g id="Group_220" data-name="Group 220">
            <path id="Path_1707" data-name="Path 1707" d="M738.283,423.829a3.36,3.36,0,0,1-.083.49c-.062.321-.143.8-.233,1.417a41.074,41.074,0,0,0-.345,5.36c0,1.147.039,2.413.158,3.774a12.305,12.305,0,0,0,1.1,4.209,27.424,27.424,0,0,0,2.311,4.352,18.8,18.8,0,0,0,1.572,2.115,7.577,7.577,0,0,0,2.032,1.763l.09.049,0,.1c.069,3.291.143,6.855.22,10.547.183,10.061.347,19.165.467,25.787.044,3.279.077,5.942.1,7.814l.009,2.124-.005.553a.841.841,0,0,1-.014.189.7.7,0,0,1-.023-.189l-.028-.553c-.019-.511-.044-1.222-.076-2.124-.051-1.872-.125-4.533-.215-7.812-.146-6.622-.349-15.724-.571-25.781-.072-3.693-.141-7.257-.206-10.546l.092.146a7.85,7.85,0,0,1-2.124-1.849,18.861,18.861,0,0,1-1.592-2.157,27.514,27.514,0,0,1-2.311-4.414,12.491,12.491,0,0,1-1.084-4.3c-.109-1.373-.134-2.646-.118-3.8a37.339,37.339,0,0,1,.446-5.374c.108-.62.208-1.095.287-1.414A3.018,3.018,0,0,1,738.283,423.829Z" transform="translate(-737.404 -423.829)" fill="#334e72"/>
          </g>
        </g>
      </g>
      <g id="Group_223" data-name="Group 223" transform="translate(45.661 38.325)">
        <path id="Path_1708" data-name="Path 1708" d="M755.33,381.843a22.411,22.411,0,0,1-8.758,2.358,26.7,26.7,0,0,1-8.929-1.618l2.1-1.132a22.644,22.644,0,0,0,14.051-.335C754.184,380.993,755.33,381.843,755.33,381.843Z" transform="translate(-737.642 -381.104)" fill="#e8505b"/>
      </g>
      <g id="Group_242" data-name="Group 242" transform="translate(1.238 36.721)">
        <g id="Group_224" data-name="Group 224">
          <path id="Path_1709" data-name="Path 1709" d="M745.541,389.368l-18.227,10.9-4.5-20.071-10.378,3.82,4.14,23.048a12.433,12.433,0,0,0,11.993,10.322h.131a14.488,14.488,0,0,0,7.935-2.365l9.388-6.143Z" transform="translate(-712.439 -380.194)" fill="#266fa8"/>
        </g>
        <g id="Group_225" data-name="Group 225" transform="translate(31.854 1.616)">
          <path id="Path_1710" data-name="Path 1710" d="M758.954,381.111s17.291,9.157,17.86,13.311,1.429,63.374,1.429,63.374l-43.975-1.683V428.368s-2.669-14.783-3.263-19.566a73.609,73.609,0,0,1,.471-20.132l13.426-7.223A21.845,21.845,0,0,0,758.954,381.111Z" transform="translate(-730.511 -381.111)" fill="#266fa8"/>
        </g>
        <g id="Group_229" data-name="Group 229" transform="translate(69.135 61.646)">
          <g id="Group_226" data-name="Group 226">
            <path id="Path_1711" data-name="Path 1711" d="M790.133,440.181l-.976-25.012-37.494,8.155,5.39,26.261Z" transform="translate(-751.662 -415.169)" fill="#d0cde1"/>
          </g>
          <g id="Group_228" data-name="Group 228" transform="translate(1.175 1.78)">
            <g id="Group_227" data-name="Group 227">
              <path id="Path_1712" data-name="Path 1712" d="M789.89,416.178l1.293,25.114-34.471,8.526-4.383-26.19Z" transform="translate(-752.329 -416.178)" fill="#f3f8ff"/>
            </g>
          </g>
        </g>
        <g id="Group_231" data-name="Group 231" transform="translate(66.307 24.77)">
          <g id="Group_230" data-name="Group 230">
            <path id="Path_1713" data-name="Path 1713" d="M750.076,394.247a1.476,1.476,0,0,1,.053.374l.086,1.075c.063.934.167,2.284.312,3.952.286,3.333.793,7.93,1.625,12.966s1.844,9.55,2.649,12.8c.4,1.623.739,2.935.98,3.839l.266,1.045a1.494,1.494,0,0,1,.069.372,1.641,1.641,0,0,1-.138-.351l-.33-1.028c-.282-.894-.657-2.2-1.091-3.816-.869-3.236-1.916-7.754-2.755-12.8s-1.3-9.661-1.526-13c-.113-1.673-.178-3.028-.2-3.964l-.019-1.079A1.4,1.4,0,0,1,750.076,394.247Z" transform="translate(-750.058 -394.247)" fill="#263238"/>
          </g>
        </g>
        <g id="Group_233" data-name="Group 233" transform="translate(41.235 52.619)">
          <g id="Group_232" data-name="Group 232">
            <path id="Path_1714" data-name="Path 1714" d="M735.836,410.047a6.443,6.443,0,0,1,.511.929c.15.3.339.675.591,1.087s.5.9.848,1.4c.33.508.693,1.063,1.135,1.623.411.582.916,1.151,1.433,1.764a28.112,28.112,0,0,0,8.179,6.352c.719.349,1.4.7,2.062.954.652.287,1.28.5,1.854.7.569.213,1.1.339,1.567.474s.865.234,1.2.3a6.247,6.247,0,0,1,1.026.266,5.944,5.944,0,0,1-1.052-.13,10.629,10.629,0,0,1-1.221-.247c-.471-.118-1.015-.227-1.593-.428a19.335,19.335,0,0,1-1.888-.665c-.679-.245-1.369-.589-2.1-.934a26.915,26.915,0,0,1-8.276-6.428c-.515-.626-1.017-1.209-1.424-1.8a19.49,19.49,0,0,1-1.11-1.666c-.339-.511-.578-1.012-.809-1.438a10.725,10.725,0,0,1-.539-1.121A5.94,5.94,0,0,1,735.836,410.047Z" transform="translate(-735.834 -410.047)" fill="#263238"/>
          </g>
        </g>
        <g id="Group_235" data-name="Group 235" transform="translate(14.624 19.894)">
          <g id="Group_234" data-name="Group 234">
            <path id="Path_1715" data-name="Path 1715" d="M720.759,396.36c-.1-.03.157-1.1.21-2.434s-.1-2.424,0-2.445a6.717,6.717,0,0,1-.21,4.879Z" transform="translate(-720.736 -391.481)" fill="#263238"/>
          </g>
        </g>
        <g id="Group_237" data-name="Group 237" transform="translate(83.492 80.468)">
          <g id="Group_236" data-name="Group 236">
            <path id="Path_1716" data-name="Path 1716" d="M761.278,434.769l-1.47-5.952,8.138-2.97,3.146,6.432c.326.333.7.7,1.128,1.1a6.185,6.185,0,0,0,1.717,1.11,9.3,9.3,0,0,0,2.418.781c.779.06,1.1,1.017.5,1.384s-2.741.252-4.955-.95-.654,2.392-.15,3.728c.122.323.287,1.128-.217,1.354-.77.342-1.255-.268-1.761-.957a.785.785,0,0,0-1.054-.323l-.011.023a3.045,3.045,0,0,1-3.106,1.711c-1.248-.146-2.919-.5-3.217-1.331A40.116,40.116,0,0,1,761.278,434.769Z" transform="translate(-759.808 -425.847)" fill="#ffb8b8"/>
          </g>
        </g>
        <g id="Group_238" data-name="Group 238" transform="translate(66.244 11.371)">
          <path id="Path_1717" data-name="Path 1717" d="M757.956,386.654a4.975,4.975,0,0,1,4.23,3.217,36.767,36.767,0,0,1,2.26,8.127c.7,5.076,2.1,23.984,2.1,23.984s11.242,37.563,11.161,37.792a11.049,11.049,0,0,1-9.67,2.589s-10.069-20.247-11.994-25.149a89.824,89.824,0,0,1-4.553-23c-.132-5.016-1.47-12.812-1.468-17.39,0-2.129,1.594-5.667,2.93-7.324C754.093,388.088,755.653,386.518,757.956,386.654Z" transform="translate(-750.022 -386.645)" fill="#266fa8"/>
        </g>
        <g id="Group_240" data-name="Group 240" transform="translate(66.307 24.77)">
          <g id="Group_239" data-name="Group 239">
            <path id="Path_1718" data-name="Path 1718" d="M750.076,394.247a1.476,1.476,0,0,1,.053.374l.086,1.075c.063.934.167,2.284.312,3.952.286,3.333.793,7.93,1.625,12.966s1.844,9.55,2.649,12.8c.4,1.623.739,2.935.98,3.839l.266,1.045a1.494,1.494,0,0,1,.069.372,1.641,1.641,0,0,1-.138-.351l-.33-1.028c-.282-.894-.657-2.2-1.091-3.816-.869-3.236-1.916-7.754-2.755-12.8s-1.3-9.661-1.526-13c-.113-1.673-.178-3.028-.2-3.964l-.019-1.079A1.4,1.4,0,0,1,750.076,394.247Z" transform="translate(-750.058 -394.247)" fill="#263238"/>
          </g>
        </g>
        <g id="Group_241" data-name="Group 241" transform="translate(28.485 16.071)" opacity="0.3">
          <path id="Path_1719" data-name="Path 1719" d="M732.176,389.312s-4.541,11.2-3.39,15.826l3.682-2.409S731.339,393.794,732.176,389.312Z" transform="translate(-728.6 -389.312)"/>
        </g>
      </g>
    </g>
  </g>
</svg>
